<svg width="33" height="32" viewBox="0 0 33 32" fill="none" xmlns="http://www.w3.org/2000/svg">
<path d="M14.8949 25.4368C14.4695 25.8428 13.9637 26.1646 13.4066 26.3837C12.8496 26.6027 12.2524 26.7146 11.6496 26.7129C10.7379 26.7129 9.84673 26.4561 9.08861 25.9748C8.33048 25.4935 7.73941 24.8094 7.39009 24.009C7.04076 23.2086 6.94884 22.3277 7.12595 21.4777C7.30306 20.6276 7.74124 19.8465 8.38514 19.233L9.7467 20.5273C9.37443 20.8855 9.12184 21.3404 9.02068 21.8347C8.91951 22.3289 8.9743 22.8406 9.17814 23.3054C9.38198 23.7702 9.72577 24.1673 10.1663 24.447C10.6069 24.7266 11.1246 24.8761 11.6543 24.8769C12.0043 24.8781 12.351 24.8131 12.6744 24.6859C12.9977 24.5587 13.2913 24.3717 13.5381 24.1358L14.8949 25.4368Z" fill="white"/>
<path d="M16.7426 4.84446C15.5812 4.77641 14.4174 4.93674 13.324 5.31542C12.2306 5.6941 11.2311 6.28301 10.3879 7.04537C9.54577 7.80446 8.87462 8.71822 8.41512 9.73124C7.95564 10.7443 7.7174 11.8355 7.71484 12.9386C7.71484 13.1019 7.71484 13.2628 7.73154 13.4192C7.8701 15.2752 8.72226 17.0179 10.1256 18.3151L14.5894 22.5673L16.497 24.3806L17.6201 25.4482C18.0452 25.8513 18.5499 26.1705 19.1053 26.3875C19.6606 26.6046 20.2556 26.7152 20.8559 26.713C21.768 26.7136 22.6596 26.457 23.418 25.9758C24.1766 25.4945 24.7679 24.8102 25.1171 24.0094C25.4663 23.2086 25.5578 22.3273 25.3799 21.4771C25.2021 20.627 24.763 19.846 24.118 19.2331L22.7636 20.5342C23.1358 20.8924 23.3885 21.3472 23.4897 21.8415C23.5908 22.3358 23.536 22.8475 23.3322 23.3123C23.1284 23.777 22.7845 24.1742 22.344 24.4538C21.9034 24.7334 21.3857 24.883 20.8559 24.8838C20.506 24.8852 20.1592 24.8203 19.8358 24.6931C19.5124 24.5658 19.2188 24.3787 18.9722 24.1426L18.3379 23.542L14.6276 20.0173L11.4752 17.0208C10.4096 16.0397 9.75974 14.7211 9.6487 13.3149C9.6487 13.1902 9.6487 13.0656 9.6487 12.9409C9.64995 11.2774 10.3449 9.68229 11.5812 8.50499C12.8175 7.32768 14.4943 6.66424 16.2443 6.66004C16.3731 6.66004 16.5042 6.66004 16.633 6.66004C18.3057 6.77237 19.8731 7.47763 21.0248 8.63619C22.1764 9.79475 22.8285 11.3221 22.8518 12.916C22.8518 13.0262 22.8518 13.1374 22.8518 13.2491C22.7568 14.6794 22.1048 16.0249 21.0229 17.0231L17.6059 20.2622L18.9674 21.5564L22.375 18.3173C23.7956 16.9956 24.6459 15.2173 24.7595 13.3308C24.7595 13.1902 24.7595 13.0474 24.7595 12.9024C24.7495 10.8427 23.9154 8.86373 22.4266 7.36723C20.9377 5.87073 18.9056 4.96879 16.7426 4.84446Z" fill="white"/>
</svg>
