<svg width="33" height="33" viewBox="0 0 33 33" fill="none" xmlns="http://www.w3.org/2000/svg">
<path d="M14.9196 6.65154L14.64 6.58765C8.82541 6.59297 8.24768 6.5983 8.10391 6.63024C8.00807 6.65154 7.87229 6.68881 7.79774 6.71277C7.72586 6.73407 7.59274 6.78998 7.50488 6.83523C7.41702 6.87783 7.29189 6.95237 7.22533 6.99497C7.15878 7.04022 7.05228 7.12541 6.98838 7.18665C6.92449 7.24521 6.82066 7.35969 6.75942 7.43956C6.69819 7.51942 6.61033 7.65253 6.56507 7.7324C6.51981 7.81227 6.45059 7.96934 6.41331 8.07849C6.37604 8.18764 6.33344 8.36867 6.31747 8.47782C6.29883 8.61093 6.29351 9.75036 6.29883 11.9121C6.30682 14.963 6.30948 15.1573 6.3574 15.3197C6.38403 15.4156 6.44792 15.5833 6.49851 15.6924C6.54909 15.8016 6.64228 15.964 6.70617 16.0518C6.76741 16.1397 6.88988 16.2781 6.97507 16.3607C7.06293 16.4405 7.19339 16.547 7.26527 16.5976C7.33982 16.6482 7.47027 16.7201 7.55813 16.7627C7.64599 16.8026 7.81372 16.8638 7.93086 16.8958L8.14385 16.9543C13.7934 16.9836 14.1901 16.9916 14.4004 17.0315C14.5309 17.0555 14.7119 17.1008 14.7998 17.13C14.8876 17.162 15.0181 17.2179 15.09 17.2578C15.1618 17.2978 15.279 17.3963 15.3535 17.4761C15.4281 17.556 15.5266 17.7051 15.5745 17.8089C15.6224 17.9127 15.6783 18.0671 15.7023 18.155C15.7236 18.2428 15.7635 18.4345 15.7902 18.5809C15.8301 18.8152 15.8354 19.1826 15.8514 21.6425L15.8518 21.709C15.8674 24.3672 15.8678 24.4447 15.9233 24.6375C15.9526 24.7466 16.0244 24.9303 16.0804 25.0475C16.1389 25.162 16.2454 25.335 16.32 25.4335C16.3945 25.5293 16.5383 25.6784 16.6395 25.7636C16.7406 25.8488 16.9323 25.9739 17.0628 26.0378C17.1932 26.1017 17.4036 26.1816 17.5287 26.2162L17.755 26.2748H24.331C24.6825 26.1816 24.8848 26.1044 25.0099 26.0431C25.1351 25.9819 25.3188 25.8621 25.4226 25.7796C25.5264 25.6971 25.6729 25.548 25.7501 25.4468C25.8299 25.3456 25.9391 25.1673 25.9977 25.0501C26.0536 24.933 26.1255 24.7413 26.1547 24.6242C26.208 24.4165 26.208 24.326 26.208 21.0971V21.0967V21.0964C26.208 17.8542 26.208 17.7769 26.1547 17.5693C26.1255 17.4522 26.0589 17.2658 26.0056 17.1567C25.9551 17.0475 25.8432 16.8691 25.7607 16.76C25.6782 16.6508 25.5424 16.5071 25.4625 16.4405C25.3827 16.374 25.2549 16.2808 25.183 16.2329C25.1084 16.1849 24.9753 16.1157 24.8848 16.0785C24.7916 16.0412 24.6478 15.9906 24.5653 15.9666C24.4242 15.9241 24.1447 15.9187 21.5355 15.9054C18.9584 15.8894 18.6309 15.8841 18.3806 15.8415C18.2262 15.8149 17.9919 15.759 17.8615 15.7191C17.731 15.6765 17.55 15.5939 17.4621 15.538C17.3743 15.4821 17.2385 15.365 17.1613 15.2771C17.0814 15.1919 16.9829 15.0482 16.9403 14.9603C16.8977 14.8725 16.8338 14.6861 16.7992 14.5477C16.7646 14.4092 16.7193 14.1696 16.7007 14.0152C16.6767 13.8156 16.6634 12.9716 16.6528 11.0469L16.6368 8.35802C16.6368 8.04608 16.4657 7.76344 16.4032 7.66025L16.4018 7.65787C16.3405 7.5567 16.182 7.35635 16.0782 7.2472C15.977 7.14071 15.7875 7.0349 15.6917 6.97367C15.5958 6.90978 15.4467 6.82458 15.3589 6.78731C15.271 6.74738 15.074 6.68615 14.9196 6.65154Z" fill="white"/>
<g opacity="0.7">
<path d="M24.6908 6.92308C24.5417 6.88581 24.2195 6.88049 22.4011 6.88315C20.6413 6.88315 20.2606 6.89114 20.1381 6.92308C20.0582 6.94438 19.9145 7.00029 19.8213 7.04821C19.7228 7.09613 19.579 7.20262 19.4885 7.29313C19.398 7.38099 19.2888 7.52475 19.2409 7.6126C19.1956 7.70045 19.1397 7.83889 19.1158 7.91875C19.0785 8.04654 19.0732 8.32075 19.0732 10.2349C19.0732 12.157 19.0785 12.4206 19.1158 12.551C19.1397 12.6309 19.1956 12.7693 19.2409 12.8572C19.2862 12.9477 19.3926 13.0861 19.4832 13.1766C19.5737 13.2645 19.7175 13.3763 19.8053 13.4216C19.8932 13.4695 20.0369 13.5254 20.1248 13.5467C20.2632 13.584 20.5668 13.5893 22.4144 13.5893C24.2674 13.5893 24.5656 13.584 24.7041 13.5467C24.7919 13.5254 24.9304 13.4748 25.0102 13.4349C25.0901 13.3949 25.2206 13.3018 25.3031 13.2272C25.383 13.1527 25.4921 13.0276 25.5427 12.9477C25.5933 12.8678 25.6652 12.7267 25.7025 12.6309L25.769 12.4578C25.785 8.51775 25.7797 8.19829 25.7451 8.02524C25.7211 7.91609 25.6652 7.74837 25.6173 7.65253C25.564 7.54072 25.4708 7.41826 25.359 7.30644C25.2632 7.2106 25.1114 7.09347 25.0236 7.04821C24.9357 7.00029 24.7866 6.94438 24.6908 6.92308Z" fill="white"/>
<path d="M12.4705 19.3157C12.3933 19.2971 11.7064 19.2891 10.5004 19.2891C9.48333 19.2918 8.60475 19.3024 8.54884 19.3157C8.49559 19.329 8.37579 19.3769 8.28527 19.4222C8.18942 19.4701 8.05364 19.5713 7.97111 19.6565C7.89124 19.739 7.79273 19.8721 7.75279 19.952C7.71552 20.0319 7.67026 20.1517 7.65429 20.2182C7.63565 20.2954 7.625 20.9929 7.625 22.1936C7.625 23.9054 7.62766 24.0651 7.67292 24.2036C7.69955 24.2887 7.75279 24.4112 7.79007 24.4778C7.82734 24.5443 7.92585 24.6615 8.00838 24.736C8.09091 24.8132 8.23202 24.9117 8.32254 24.957C8.41572 24.9996 8.56748 25.0475 8.66332 25.0608C8.76982 25.0794 9.48333 25.0901 10.5137 25.0901C11.4482 25.0901 12.2682 25.0768 12.364 25.0634C12.4599 25.0501 12.6196 24.9969 12.7234 24.949C12.8352 24.8957 12.9657 24.8052 13.0482 24.7227C13.1388 24.6348 13.2266 24.5097 13.2878 24.3793L13.389 24.1743V20.1783C13.2399 19.8668 13.1574 19.7523 13.0482 19.6432C12.9577 19.5553 12.8166 19.4515 12.7367 19.4142C12.6569 19.3743 12.5371 19.3317 12.4705 19.3157Z" fill="white"/>
</g>
</svg>
