<svg width="33" height="32" viewBox="0 0 33 32" fill="none" xmlns="http://www.w3.org/2000/svg">
<rect x="18.2363" y="21.8122" width="9.96632" height="11.6241" rx="0.727273" transform="rotate(-135 18.2363 21.8122)" stroke="white" stroke-width="1.45455"/>
<path opacity="0.7" d="M17.6138 21.1898L11.8111 15.3872L7.87106 19.3273C7.58704 19.6113 7.58704 20.0718 7.87106 20.3558L11.4964 23.9812C11.5646 24.0494 11.6571 24.0877 11.7536 24.0877L14.5653 24.0877C14.6617 24.0877 14.7542 24.0494 14.8224 23.9812L17.6138 21.1898Z" stroke="white" stroke-width="1.45455"/>
<path opacity="0.7" fill-rule="evenodd" clip-rule="evenodd" d="M13.9023 4.9091C13.9023 4.60786 13.658 4.36365 13.3568 4.36365C13.0556 4.36365 12.8113 4.60786 12.8113 4.9091V5.01819C12.8113 5.4255 12.8113 5.62916 12.7321 5.78473C12.6624 5.92158 12.5511 6.03284 12.4142 6.10256C12.2587 6.18183 12.055 6.18183 11.6477 6.18183H11.5386C11.2374 6.18183 10.9932 6.42604 10.9932 6.72728C10.9932 7.02853 11.2374 7.27274 11.5386 7.27274H11.6477C12.055 7.27274 12.2587 7.27274 12.4142 7.35201C12.5511 7.42173 12.6624 7.53299 12.7321 7.66984C12.8113 7.82541 12.8113 8.02906 12.8113 8.43638V8.54547C12.8113 8.84671 13.0556 9.09092 13.3568 9.09092C13.658 9.09092 13.9023 8.84671 13.9023 8.54547V8.43638C13.9023 8.02906 13.9023 7.82541 13.9815 7.66984C14.0512 7.53299 14.1625 7.42173 14.2994 7.35201C14.4549 7.27274 14.6586 7.27274 15.0659 7.27274H15.175C15.4762 7.27274 15.7204 7.02853 15.7204 6.72728C15.7204 6.42604 15.4762 6.18183 15.175 6.18183H15.0659C14.6586 6.18183 14.4549 6.18183 14.2994 6.10256C14.1625 6.03284 14.0512 5.92158 13.9815 5.78473C13.9023 5.62916 13.9023 5.4255 13.9023 5.01819V4.9091Z" fill="white"/>
<path opacity="0.7" d="M25.6763 19.421C25.5902 19.2207 25.3931 19.0909 25.1751 19.0909C24.9571 19.0909 24.76 19.2207 24.674 19.421L24.2135 20.4929L23.1416 20.9534C22.9413 21.0394 22.8115 21.2365 22.8115 21.4545C22.8115 21.6726 22.9413 21.8696 23.1416 21.9557L24.2135 22.4162L24.674 23.488C24.76 23.6883 24.9571 23.8182 25.1751 23.8182C25.3931 23.8182 25.5902 23.6883 25.6763 23.488L26.1368 22.4162L27.2086 21.9557C27.4089 21.8696 27.5388 21.6726 27.5388 21.4545C27.5388 21.2365 27.4089 21.0394 27.2086 20.9534L26.1368 20.4929L25.6763 19.421Z" stroke="white" stroke-width="1.09091" stroke-linecap="round" stroke-linejoin="round"/>
<path opacity="0.7" d="M8.2474 7.13257C8.18388 6.89359 7.96753 6.72725 7.72026 6.72725C7.47298 6.72725 7.25664 6.89359 7.19311 7.13257L6.73982 8.83772L5.03467 9.29101C4.79569 9.35454 4.62935 9.57088 4.62935 9.81816C4.62935 10.0654 4.79569 10.2818 5.03467 10.3453L6.73982 10.7986L7.19311 12.5038C7.25664 12.7427 7.47298 12.9091 7.72026 12.9091C7.96753 12.9091 8.18388 12.7427 8.2474 12.5038L8.7007 10.7986L10.4058 10.3453C10.6448 10.2818 10.8112 10.0654 10.8112 9.81816C10.8112 9.57088 10.6448 9.35454 10.4058 9.29101L8.7007 8.83772L8.2474 7.13257Z" stroke="white" stroke-width="1.09091" stroke-linecap="round" stroke-linejoin="round"/>
<circle cx="18.2658" cy="25.4546" r="0.727273" fill="#D9D9D9"/>
<circle cx="5.17503" cy="22.5454" r="0.727273" fill="#D9D9D9"/>
<circle cx="8.08421" cy="24" r="0.727273" fill="#D9D9D9"/>
</svg>
