<svg width="33" height="32" viewBox="0 0 33 32" fill="none" xmlns="http://www.w3.org/2000/svg">
<rect x="19.8184" y="15.595" width="1.41772" height="4.25317" rx="0.708861" fill="white"/>
<rect x="11.312" y="15.595" width="1.41772" height="4.25317" rx="0.708861" fill="white"/>
<path opacity="0.7" d="M13.439 9.92407V7.79748C13.439 7.40599 13.7563 7.08862 14.1478 7.08862H18.401C18.7925 7.08862 19.1099 7.40599 19.1099 7.79748V9.92407" stroke="white" stroke-width="1.41772"/>
<path d="M24.9488 16.5526L25.522 16.9696L24.9488 16.5526ZM7.60074 16.5526L7.02755 16.9696L7.60074 16.5526ZM7.76843 11.3418C7.76843 10.9503 8.0858 10.6329 8.47729 10.6329V9.21521C7.30281 9.21521 6.35071 10.1673 6.35071 11.3418H7.76843ZM7.76843 14.8861V11.3418H6.35071V14.8861H7.76843ZM8.17393 16.1355C7.91876 15.7848 7.76843 15.3541 7.76843 14.8861H6.35071C6.35071 15.6637 6.60196 16.3847 7.02755 16.9696L8.17393 16.1355ZM8.47729 21.9747V17.0297H7.05957V21.9747H8.47729ZM24.0722 21.9747H8.47729V23.3924H24.0722V21.9747ZM24.0722 17.0297V21.9747H25.49V17.0297H24.0722ZM24.7811 14.8861C24.7811 15.3541 24.6308 15.7848 24.3756 16.1355L25.522 16.9696C25.9476 16.3847 26.1988 15.6637 26.1988 14.8861H24.7811ZM24.7811 11.3418V14.8861H26.1988V11.3418H24.7811ZM24.0722 10.6329C24.4637 10.6329 24.7811 10.9503 24.7811 11.3418H26.1988C26.1988 10.1673 25.2467 9.21521 24.0722 9.21521V10.6329ZM8.47729 10.6329H24.0722V9.21521H8.47729V10.6329ZM25.49 17.0297C25.49 17.0344 25.489 17.032 25.4929 17.0213C25.497 17.01 25.5057 16.9921 25.522 16.9696L24.3756 16.1355C24.2072 16.367 24.0722 16.6744 24.0722 17.0297H25.49ZM24.0722 23.3924C24.8552 23.3924 25.49 22.7577 25.49 21.9747H24.0722V21.9747V23.3924ZM7.05957 21.9747C7.05957 22.7577 7.69431 23.3924 8.47729 23.3924V21.9747H8.47729H7.05957ZM7.02755 16.9696C7.04386 16.9921 7.05252 17.01 7.05664 17.0213C7.06054 17.032 7.05957 17.0344 7.05957 17.0297H8.47729C8.47729 16.6744 8.34233 16.367 8.17393 16.1355L7.02755 16.9696Z" fill="white"/>
<path opacity="0.7" d="M7.05908 11.3418C7.05908 10.5588 7.69382 9.92407 8.4768 9.92407H24.0717C24.8547 9.92407 25.4895 10.5588 25.4895 11.3418V14.8861C25.4895 16.4521 24.22 17.7215 22.654 17.7215H9.89453C8.32856 17.7215 7.05908 16.4521 7.05908 14.8861V11.3418Z" stroke="white" stroke-width="1.41772"/>
</svg>
