<svg width="32" height="32" viewBox="0 0 32 32" fill="none" xmlns="http://www.w3.org/2000/svg">
<path d="M8.78392 19.9048C8.96806 21.6259 10.3523 23.0102 12.0726 23.2019C13.3503 23.3443 14.6623 23.4667 15.9999 23.4667C17.3375 23.4667 18.6494 23.3443 19.9271 23.2019C21.6474 23.0102 23.0317 21.6259 23.2158 19.9048C23.3517 18.6343 23.4665 17.3298 23.4665 16C23.4665 14.6701 23.3517 13.3657 23.2158 12.0952C23.0317 10.3741 21.6474 8.98982 19.9271 8.79807C18.6494 8.65565 17.3375 8.53333 15.9999 8.53333C14.6623 8.53333 13.3503 8.65565 12.0726 8.79807C10.3523 8.98982 8.96806 10.3741 8.78392 12.0952C8.64799 13.3657 8.5332 14.6701 8.5332 16C8.5332 17.3298 8.64799 18.6343 8.78392 19.9048Z" stroke="white" stroke-width="1.5"/>
<path d="M19.584 18.9867H16" stroke="white" stroke-width="1.5" stroke-linecap="round" stroke-linejoin="round"/>
<path d="M12.416 13.0133H16M16 13.0133C16 12.0236 16.8023 11.2213 17.792 11.2213C18.7817 11.2213 19.584 12.0236 19.584 13.0133C19.584 14.003 18.7817 14.8053 17.792 14.8053C16.8023 14.8053 16 14.003 16 13.0133Z" stroke="white" stroke-opacity="0.7" stroke-width="1.5" stroke-linecap="round" stroke-linejoin="round"/>
<path d="M14.208 20.7787C13.2183 20.7787 12.416 19.9764 12.416 18.9867C12.416 17.997 13.2183 17.1947 14.208 17.1947C15.1977 17.1947 16 17.997 16 18.9867C16 19.9764 15.1977 20.7787 14.208 20.7787Z" stroke="white" stroke-width="1.5" stroke-linecap="round" stroke-linejoin="round"/>
</svg>
