<svg width="33" height="32" viewBox="0 0 33 32" fill="none" xmlns="http://www.w3.org/2000/svg">
<path d="M8.37251 22.7749L8.45921 22.0713C8.41891 22.0664 8.37825 22.0649 8.3377 22.0669L8.37251 22.7749ZM6.9499 14.0674L7.14335 14.7494C7.45469 14.661 7.66669 14.3731 7.65853 14.0495L6.9499 14.0674ZM18.877 10.5617L18.2698 10.9274C18.3726 11.098 18.5424 11.2175 18.7377 11.2567C18.933 11.2958 19.1358 11.251 19.2964 11.1332L18.877 10.5617ZM24.4012 14.7502L23.7354 14.5067C23.6621 14.7071 23.683 14.9299 23.7923 15.1132C23.9016 15.2965 24.0876 15.4208 24.2988 15.4516L24.4012 14.7502ZM23.9817 22.777L23.9533 22.0687C23.9402 22.0692 23.9271 22.0701 23.9141 22.0713L23.9817 22.777ZM23.8188 22.0714H8.4601V23.4891H23.8188V22.0714ZM8.4601 22.0714L8.45921 22.0713L8.2858 23.4784C8.34321 23.4855 8.4014 23.4891 8.4601 23.4891V22.0714ZM8.3377 22.0669C8.27655 22.0699 8.21495 22.0714 8.15294 22.0714V23.4891C8.23818 23.4891 8.32299 23.487 8.40732 23.4829L8.3377 22.0669ZM8.15294 22.0714C6.10731 22.0714 4.44324 20.4042 4.44324 18.3406H3.02551C3.02551 21.1808 5.31796 23.4891 8.15294 23.4891V22.0714ZM4.44324 18.3406C4.44324 16.6309 5.58655 15.191 7.14335 14.7494L6.75645 13.3854C4.60198 13.9966 3.02551 15.9843 3.02551 18.3406H4.44324ZM7.65853 14.0495C7.65729 14.0001 7.65666 13.9506 7.65666 13.9008H6.23894C6.23894 13.9625 6.23972 14.0239 6.24126 14.0853L7.65853 14.0495ZM7.65666 13.9008C7.65666 10.7226 10.2199 8.15192 13.3748 8.15192V6.73419C9.43059 6.73419 6.23894 9.94599 6.23894 13.9008H7.65666ZM13.3748 8.15192C15.4483 8.15192 17.2661 9.26127 18.2698 10.9274L19.4842 10.1959C18.2359 8.12354 15.9679 6.73419 13.3748 6.73419V8.15192ZM19.2964 11.1332C19.7764 10.7809 20.3666 10.5736 21.0068 10.5736V9.15584C20.0544 9.15584 19.1723 9.4658 18.4577 9.99013L19.2964 11.1332ZM21.0068 10.5736C22.6087 10.5736 23.9131 11.8793 23.9131 13.4972H25.3309C25.3309 11.1027 23.3981 9.15584 21.0068 9.15584V10.5736ZM23.9131 13.4972C23.9131 13.8533 23.8502 14.193 23.7354 14.5067L25.0669 14.9936C25.2379 14.5262 25.3309 14.0218 25.3309 13.4972H23.9131ZM24.2988 15.4516C25.8955 15.6846 27.1268 17.0683 27.1268 18.7441H28.5445C28.5445 16.3593 26.7917 14.3827 24.5035 14.0487L24.2988 15.4516ZM27.1268 18.7441C27.1268 20.5394 25.7146 21.9981 23.9533 22.0687L24.0101 23.4853C26.5346 23.3841 28.5445 21.2974 28.5445 18.7441H27.1268ZM23.9141 22.0713L23.9133 22.0714V23.4891C23.959 23.4891 24.0043 23.4869 24.0493 23.4826L23.9141 22.0713ZM23.9133 22.0714H23.8188V23.4891H23.9133V22.0714Z" fill="white"/>
<path opacity="0.7" d="M9.05078 14.1772C9.05078 11.6325 11.1137 9.56964 13.6584 9.56964" stroke="white" stroke-width="1.41772" stroke-linecap="round"/>
<circle opacity="0.7" cx="16.848" cy="18.7848" r="1.06329" fill="white"/>
<circle opacity="0.7" cx="20.3924" cy="18.7848" r="1.06329" fill="white"/>
<circle opacity="0.7" cx="23.9368" cy="18.7848" r="1.06329" fill="white"/>
</svg>
