<svg width="33" height="33" viewBox="0 0 33 33" fill="none" xmlns="http://www.w3.org/2000/svg">
<path fill-rule="evenodd" clip-rule="evenodd" d="M8.6549 13.1775C8.85612 13.0714 9.10541 13.1207 9.26176 13.2868L10.3056 14.3958C10.4463 14.5453 10.6629 14.5985 10.8618 14.5454C11.143 14.4703 11.4314 14.4151 11.7248 14.3811C11.9234 14.358 12.0971 14.237 12.1701 14.056L12.7401 12.6413C12.8227 12.4362 13.033 12.3067 13.2585 12.3348C13.4973 12.3646 13.7368 12.4056 13.9764 12.4582C14.2203 12.5116 14.4589 12.576 14.692 12.6505C14.9082 12.7197 15.0446 12.9251 15.0338 13.1456L14.9659 14.5322C14.9557 14.741 15.079 14.9341 15.2694 15.0328C15.5842 15.196 15.8809 15.3847 16.1571 15.5955C16.3143 15.7155 16.5241 15.7514 16.7068 15.6777L17.9153 15.1898C18.127 15.1044 18.3742 15.1641 18.5124 15.345C18.8078 15.7314 19.0669 16.1446 19.2861 16.579C19.3868 16.7787 19.3307 17.0159 19.1595 17.1596L18.3433 17.8445C18.1765 17.9845 18.1221 18.2123 18.1916 18.4179C18.3107 18.7705 18.3962 19.1355 18.445 19.5084C18.4707 19.7049 18.5992 19.8778 18.7889 19.9501L19.7628 20.3217C19.9732 20.4019 20.1102 20.6045 20.0896 20.8227C20.0598 21.1389 20.0104 21.4568 19.9406 21.7749C19.9084 21.9221 19.8721 22.0674 19.8321 22.2108C19.77 22.4328 19.5525 22.5739 19.316 22.5579L18.4098 22.4966C18.1882 22.4816 17.9848 22.6062 17.8877 22.7998C17.6855 23.2027 17.4379 23.5758 17.1526 23.9144C17.0202 24.0715 16.9837 24.2888 17.0717 24.4755L17.5304 25.448C17.6226 25.6436 17.5807 25.8745 17.417 26.0158C17.0768 26.3095 16.7122 26.5733 16.3276 26.8044C16.1241 26.9266 15.8604 26.8816 15.6971 26.7081L14.9332 25.8966C14.7874 25.7417 14.5608 25.6907 14.3569 25.7532C13.8492 25.909 13.3157 25.9994 12.7692 26.0165C12.5517 26.0233 12.3545 26.1476 12.2753 26.3443L11.7907 27.5469C11.7074 27.7536 11.4945 27.8833 11.2676 27.8529C11.0534 27.8241 10.8387 27.7863 10.6239 27.7391C10.4132 27.6929 10.2064 27.6386 10.0037 27.5766C9.78437 27.5095 9.64498 27.3024 9.65589 27.0795L9.72558 25.6555C9.73527 25.4576 9.62464 25.2725 9.44955 25.1695C9.03223 24.9239 8.65059 24.6321 8.31051 24.3029C8.15165 24.1491 7.91564 24.0936 7.71087 24.1762L6.45201 24.6844C6.23112 24.7736 5.973 24.7043 5.83932 24.5083C5.58703 24.1385 5.3664 23.7474 5.1803 23.3394C5.09049 23.1424 5.14893 22.9149 5.31479 22.7757L6.46616 21.8095C6.61551 21.6842 6.67597 21.4866 6.63566 21.2969C6.57093 20.9924 6.53078 20.6812 6.51689 20.3658C6.50745 20.1516 6.37529 19.9562 6.16971 19.8778L4.89944 19.3932C4.67796 19.3087 4.53943 19.0895 4.5761 18.8618C4.59967 18.7155 4.62749 18.5689 4.65965 18.4224C4.72931 18.1048 4.81735 17.7961 4.9224 17.497C4.99505 17.2901 5.20425 17.1635 5.42899 17.1787L6.92681 17.2799C7.12713 17.2935 7.31456 17.1926 7.42088 17.028C7.55322 16.823 7.69809 16.6277 7.85424 16.4426C7.98685 16.2855 8.0235 16.068 7.93541 15.8812L7.30857 14.5521C7.21313 14.3497 7.2617 14.1106 7.43717 13.9715C7.8177 13.6698 8.2255 13.404 8.6549 13.1775Z" stroke="white" stroke-width="1.42222" stroke-miterlimit="10" stroke-linecap="round"/>
<circle opacity="0.7" cx="12.3003" cy="20.0987" r="3.42222" transform="rotate(12.3744 12.3003 20.0987)" stroke="white" stroke-width="1.42222" stroke-miterlimit="10" stroke-linecap="round"/>
<path opacity="0.7" d="M21.2706 17.9683C21.4342 17.9655 21.599 17.9563 21.7646 17.9403C21.9338 17.924 22.1008 17.9009 22.2655 17.8715C22.62 17.808 22.8721 17.4993 22.911 17.1348L22.9998 16.3035C23.0351 15.973 23.2506 15.6961 23.5392 15.5412C23.9299 15.3316 24.2873 15.0696 24.6034 14.7651C24.8402 14.537 25.1673 14.419 25.4862 14.4914L26.0176 14.6122C26.3896 14.6967 26.7775 14.5308 26.9386 14.1799C27.0938 13.842 27.2225 13.4888 27.3222 13.1237C27.4149 12.7843 27.2685 12.4295 26.9846 12.2265L26.5134 11.8897C26.2569 11.7063 26.121 11.3981 26.1136 11.0796C26.1108 10.9566 26.1034 10.8327 26.0914 10.7082C26.0706 10.4923 26.0364 10.2809 25.9897 10.0749C25.9149 9.74454 25.9837 9.39042 26.2141 9.14685L26.5297 8.81338C26.7805 8.54821 26.8506 8.15018 26.6703 7.82968C26.4707 7.47519 26.2418 7.14196 25.9872 6.83335C25.7546 6.55135 25.3647 6.48031 25.0339 6.62638L24.422 6.89657C24.1455 7.01864 23.8291 6.98255 23.5635 6.83592C23.2989 6.68988 23.0201 6.5683 22.7304 6.47387C22.4241 6.37399 22.1663 6.14538 22.0701 5.83285L21.8327 5.06212C21.7262 4.71631 21.426 4.46299 21.0704 4.46273C20.8709 4.46259 20.6696 4.47209 20.4671 4.49163C20.2683 4.5108 20.0726 4.53925 19.8802 4.57651C19.5306 4.64421 19.2837 4.95055 19.2452 5.31086L19.1424 6.27363C19.1101 6.5758 18.9264 6.8352 18.6743 6.99735C18.4772 7.12415 18.2901 7.26494 18.1142 7.41822C17.88 7.62238 17.5696 7.72443 17.2679 7.65588L16.3942 7.45732C16.0417 7.37722 15.6726 7.52134 15.4982 7.84237C15.3077 8.19276 15.1469 8.56232 15.0188 8.94704C14.9026 9.29628 15.0474 9.67403 15.3446 9.88652L16.0249 10.3729C16.2856 10.5593 16.4215 10.8741 16.4245 11.1979C16.4259 11.3436 16.4336 11.4906 16.4479 11.6386C16.4531 11.6929 16.4592 11.7469 16.4661 11.8006" stroke="white" stroke-width="1.42222" stroke-miterlimit="10" stroke-linecap="round"/>
<path fill-rule="evenodd" clip-rule="evenodd" d="M21.4847 13.4055C22.6952 13.2888 23.58 12.1947 23.4611 10.9618C23.3421 9.72896 22.2645 8.82419 21.054 8.94097C19.8436 9.05774 18.9587 10.1518 19.0777 11.3847C19.1966 12.6175 20.2743 13.5223 21.4847 13.4055Z" stroke="white" stroke-width="1.42222" stroke-miterlimit="10" stroke-linecap="round"/>
</svg>
