<svg width="33" height="32" viewBox="0 0 33 32" fill="none" xmlns="http://www.w3.org/2000/svg">
<path opacity="0.7" d="M21.8041 23.3784C21.7936 23.8279 21.6941 24.2753 21.5114 24.6949C21.3286 25.1144 21.0663 25.4978 20.7394 25.8227C20.2466 26.3156 19.6259 26.6585 18.9559 26.8082C18.2859 26.9579 17.5965 26.9076 16.9749 26.6637C16.3533 26.4198 15.8274 25.9933 15.4636 25.438C15.0998 24.8827 14.9144 24.2236 14.9309 23.5438L16.3666 23.5074C16.3591 23.9023 16.4684 24.2848 16.681 24.6067C16.8935 24.9286 17.1997 25.1756 17.5612 25.3167C17.9227 25.4578 18.3232 25.4866 18.7126 25.3996C19.1019 25.3126 19.4626 25.1136 19.7495 24.8276C19.9393 24.639 20.0916 24.4164 20.1976 24.1729C20.3037 23.9293 20.3613 23.6695 20.3672 23.4085L21.8041 23.3784Z" fill="white"/>
<path opacity="0.7" fill-rule="evenodd" clip-rule="evenodd" d="M27.2771 9.37886C27.4598 8.95927 27.5593 8.51185 27.5698 8.06238L26.133 8.09253C26.1271 8.35345 26.0694 8.61326 25.9634 8.85687C25.8573 9.10043 25.705 9.32302 25.5152 9.5116C25.2284 9.79755 24.8677 9.99657 24.4783 10.0836C24.089 10.1706 23.6884 10.1417 23.327 10.0007C22.9655 9.8596 22.6592 9.61259 22.4467 9.2907C22.2342 8.96877 22.197 8.52242 22.2046 8.12749L22.1959 8.12778C22.2083 7.45509 22.023 6.80341 21.6627 6.25355C21.2989 5.69824 20.773 5.27172 20.1514 5.02783C19.5299 4.78399 18.8405 4.7337 18.1704 4.88337C17.5004 5.03304 16.8797 5.37597 16.3869 5.86882C16.0601 6.1938 15.7977 6.57716 15.615 6.9967C15.4323 7.41629 15.3328 7.86371 15.3223 8.31318L16.7591 8.28304C16.765 8.02211 16.8227 7.76231 16.9287 7.5187C17.0348 7.27513 17.1871 7.05255 17.3769 6.86396C17.6637 6.57801 18.0244 6.37899 18.4138 6.29198C18.8031 6.20497 19.2037 6.23382 19.5651 6.37487C19.9266 6.51596 20.2329 6.76297 20.4454 7.08486C20.6563 7.40429 20.7656 7.78332 20.7599 8.17499L20.756 8.17512C20.7395 8.85488 20.8656 9.5667 21.2294 10.122C21.5932 10.6773 22.1191 11.1038 22.7407 11.3477C23.3622 11.5916 24.0516 11.6419 24.7217 11.4922C25.3917 11.3425 26.0123 10.9996 26.5052 10.5067C26.832 10.1818 27.0944 9.7984 27.2771 9.37886Z" fill="white"/>
<path opacity="0.7" d="M12.0587 22.7012C11.8248 23.0852 11.5149 23.4229 11.1469 23.6949C10.7789 23.9669 10.36 24.1677 9.9145 24.2857C9.24125 24.4661 8.53229 24.4528 7.87718 24.2474C7.22206 24.042 6.6502 23.6538 6.23384 23.1318C5.81747 22.6098 5.57528 21.9775 5.53786 21.3146C5.50045 20.6518 5.66948 19.9883 6.0236 19.4078L7.28522 20.0942C7.08119 20.4324 6.98465 20.8183 7.00777 21.2034C7.03086 21.5884 7.17257 21.9554 7.41508 22.2584C7.65758 22.5613 7.99006 22.7865 8.37075 22.9058C8.75145 23.0252 9.16334 23.0332 9.55471 22.9289C9.81339 22.8605 10.0566 22.7439 10.2702 22.586C10.4838 22.428 10.6637 22.2319 10.7992 22.0088L12.0587 22.7012Z" fill="white"/>
<path opacity="0.7" fill-rule="evenodd" clip-rule="evenodd" d="M9.60865 4.65612C9.18907 4.47341 8.74165 4.3739 8.29218 4.3634L8.32232 5.80027C8.58325 5.80618 8.84305 5.86381 9.08666 5.96983C9.33023 6.0759 9.55281 6.2282 9.7414 6.41801C10.0274 6.70484 10.2264 7.06554 10.3134 7.4549C10.4004 7.84424 10.3715 8.24481 10.2305 8.60627C10.0894 8.96776 9.84239 9.274 9.5205 9.48651C9.19857 9.69906 8.75222 9.73621 8.35729 9.72863L8.35757 9.73733C7.68489 9.72497 7.03321 9.91027 6.48335 10.2705C5.92804 10.6343 5.50152 11.1602 5.25763 11.7818C5.01378 12.4034 4.9635 13.0927 5.11317 13.7628C5.26284 14.4328 5.60577 15.0535 6.09862 15.5463C6.4236 15.8731 6.80696 16.1355 7.2265 16.3182C7.64609 16.5009 8.09351 16.6005 8.54298 16.611L8.51283 15.1741C8.25191 15.1682 7.99211 15.1106 7.74849 15.0045C7.50493 14.8985 7.28234 14.7462 7.09376 14.5563C6.80781 14.2695 6.60879 13.9088 6.52178 13.5195C6.43477 13.1301 6.46361 12.7295 6.60467 12.3681C6.74576 12.0066 6.99277 11.7004 7.31466 11.4879C7.63409 11.2769 8.01312 11.1676 8.40479 11.1734L8.40492 11.1773C9.08468 11.1937 9.7965 11.0677 10.3518 10.7038C10.9071 10.34 11.3336 9.81413 11.5775 9.19254C11.8214 8.57098 11.8717 7.88162 11.722 7.21157C11.5723 6.54153 11.2294 5.92088 10.7365 5.42803C10.4116 5.10121 10.0282 4.83887 9.60865 4.65612Z" fill="white"/>
<path opacity="0.7" d="M11.6696 11.2475C11.0049 11.8386 10.4624 12.5545 10.076 13.3503C9.68964 14.1461 9.46766 15.0049 9.42396 15.8729C9.37906 16.7385 9.51022 17.5953 9.80947 18.3914C10.1087 19.1875 10.5698 19.9062 11.1649 20.504C11.2531 20.5922 11.3401 20.6792 11.4337 20.7547C12.512 21.6832 13.9148 22.1646 15.3748 22.1073L20.0869 21.9929L22.0984 21.9419L23.2828 21.9119C23.7305 21.9 24.1759 21.7997 24.5935 21.6168C25.011 21.4339 25.3925 21.1721 25.7159 20.8463C26.2092 20.3536 26.5525 19.7329 26.7024 19.0627C26.8523 18.3924 26.802 17.7028 26.5579 17.0811C26.3138 16.4593 25.8868 15.9335 25.331 15.57C24.7752 15.2065 24.1156 15.0217 23.4356 15.039L23.4068 16.4746C23.8017 16.4671 24.1842 16.5763 24.5061 16.7889C24.828 17.0014 25.075 17.3076 25.2161 17.6691C25.3571 18.0306 25.3859 18.4312 25.2989 18.8205C25.2119 19.2099 25.013 19.5706 24.727 19.8574C24.5385 20.0474 24.316 20.1998 24.0723 20.3058C23.8287 20.4119 23.5689 20.4694 23.3079 20.4751L22.6403 20.4933L18.7289 20.5937L15.4047 20.6779C14.2982 20.7236 13.234 20.3621 12.4137 19.6619C12.3463 19.5945 12.279 19.5271 12.2116 19.4597C11.3129 18.5597 10.8263 17.3217 10.8582 16.0169C10.8901 14.712 11.4379 13.4468 12.3817 12.4985C12.4513 12.4288 12.5222 12.3579 12.5918 12.2883C13.5569 11.4448 14.7855 10.9787 16.0345 10.9824C17.2834 10.9861 18.4617 11.4593 19.3359 12.3084C19.3956 12.368 19.4556 12.4281 19.5161 12.4885C20.2379 13.3131 20.6128 14.393 20.5676 15.5175L20.4714 19.1159L21.9071 19.0796L21.9982 15.4863C22.0516 14.0037 21.55 12.5826 20.5915 11.5013C20.5155 11.4253 20.4383 11.3481 20.3599 11.2697C19.241 10.1616 17.7202 9.54266 16.1063 9.53853C14.4923 9.53441 12.9061 10.1454 11.6696 11.2475Z" fill="white"/>
<path d="M13.1724 14.3181L15.9901 15.9282V19.3498L13.1724 17.7396V14.3181Z" stroke="white" stroke-width="0.939242" stroke-miterlimit="10" stroke-linecap="round" stroke-linejoin="round"/>
<path d="M18.8076 14.3181L15.9899 15.9282V19.3498L18.8076 17.7396V14.3181Z" stroke="white" stroke-width="0.939242" stroke-miterlimit="10" stroke-linecap="round" stroke-linejoin="round"/>
<path d="M15.9901 15.9282L13.1724 14.3181L15.9901 12.9092L18.8078 14.3181L15.9901 15.9282Z" stroke="white" stroke-width="0.939242" stroke-miterlimit="10" stroke-linecap="round" stroke-linejoin="round"/>
</svg>
