<svg width="33" height="32" viewBox="0 0 33 32" fill="none" xmlns="http://www.w3.org/2000/svg">
<path d="M23.0113 16.8635C23.0531 16.5774 23.0749 16.2889 23.0767 16C23.0767 15.8268 23.0673 15.654 23.0532 15.482C23.0427 15.3713 23.0608 15.2598 23.106 15.1577C23.1511 15.0555 23.2219 14.966 23.3117 14.8972L24.9445 13.6511C25.0287 13.5833 25.0854 13.4887 25.1046 13.3842C25.1238 13.2796 25.1041 13.1718 25.0492 13.0799L23.2215 10.0062C23.166 9.91531 23.0792 9.84639 22.9765 9.81159C22.8738 9.77679 22.7617 9.77834 22.66 9.81596L20.7418 10.5665C20.6366 10.6077 20.5224 10.6227 20.4097 10.6103C20.297 10.5979 20.1892 10.5585 20.0961 10.4955C19.8053 10.2979 19.4986 10.1233 19.1791 9.97339C19.0769 9.92613 18.9884 9.85506 18.9213 9.76651C18.8542 9.67796 18.8106 9.57466 18.7945 9.46581L18.5073 7.47952C18.4856 7.37679 18.4285 7.28432 18.3455 7.21735C18.2624 7.15038 18.1584 7.1129 18.0505 7.11108H14.3952C14.2855 7.11334 14.18 7.15256 14.0968 7.22203C14.0136 7.29151 13.9577 7.38692 13.9388 7.49198L13.6513 9.48118C13.6358 9.58884 13.5934 9.69117 13.5277 9.77911C13.4619 9.86706 13.3749 9.93792 13.2744 9.98544C12.9544 10.1362 12.6467 10.3103 12.3539 10.5063C12.2605 10.5696 12.1523 10.6094 12.0392 10.6221C11.9261 10.6347 11.8115 10.6199 11.7057 10.579L9.78699 9.82801C9.68528 9.79042 9.57319 9.78893 9.47047 9.82381C9.36775 9.85869 9.28099 9.92769 9.22549 10.0187L7.39784 13.0924C7.34339 13.1836 7.3237 13.2905 7.34222 13.3944C7.36074 13.4983 7.41628 13.5925 7.49911 13.6606L9.13105 14.9067C9.2203 14.9748 9.29074 15.0633 9.33602 15.1644C9.3813 15.2655 9.4 15.3759 9.39043 15.4857C9.37462 15.6552 9.36565 15.8255 9.36565 15.9987C9.36565 16.1719 9.37505 16.3447 9.39043 16.5179C9.40117 16.6285 9.38335 16.7398 9.33857 16.842C9.2938 16.9441 9.2235 17.0338 9.13404 17.1028L7.50125 18.3489C7.41705 18.4166 7.36031 18.5112 7.34114 18.6158C7.32197 18.7204 7.34161 18.8282 7.39655 18.92L9.22421 21.9937C9.27978 22.0846 9.36656 22.1536 9.46928 22.1884C9.57199 22.2232 9.68405 22.2216 9.78571 22.184L11.704 21.4334C11.8092 21.3923 11.9233 21.3772 12.036 21.3896C12.1487 21.402 12.2565 21.4415 12.3496 21.5044C12.6405 21.702 12.9471 21.8766 13.2667 22.0266C13.3688 22.0738 13.4574 22.1449 13.5245 22.2334C13.5916 22.322 13.6351 22.4253 13.6513 22.5341L13.9384 24.5204C13.9602 24.6232 14.0172 24.7156 14.1003 24.7826C14.1833 24.8496 14.2873 24.887 14.3952 24.8889H18.0505C18.1602 24.8866 18.2657 24.8474 18.3489 24.7779C18.4322 24.7084 18.488 24.613 18.5069 24.508L18.7945 22.5188C18.8099 22.4111 18.8523 22.3088 18.9181 22.2208C18.9838 22.1329 19.0708 22.062 19.1714 22.0145C19.4913 21.8638 19.799 21.6896 20.0918 21.4936C20.1853 21.4303 20.2934 21.3906 20.4065 21.3779C20.5197 21.3652 20.6343 21.38 20.7401 21.4209L22.6588 22.1719C22.7605 22.2095 22.8726 22.211 22.9753 22.1761C23.078 22.1413 23.1648 22.0723 23.2203 21.9813L25.0479 18.9076C25.1028 18.8157 25.1224 18.7079 25.1032 18.6033C25.084 18.4988 25.0273 18.4042 24.9432 18.3364L23.0113 16.8635Z" stroke="white" stroke-width="1.5" stroke-linecap="round" stroke-linejoin="round"/>
<path d="M19.4225 13.5111L14.9425 18.4889L13.0225 16.6222" stroke="white" stroke-opacity="0.7" stroke-width="1.5" stroke-miterlimit="10" stroke-linecap="round"/>
</svg>
