<svg width="33" height="32" viewBox="0 0 33 32" fill="none" xmlns="http://www.w3.org/2000/svg">
<path d="M10.9777 19.7381L13.9332 21.9341C14.5415 22.3252 15.3572 22.1197 15.7353 21.4801C16.0975 20.8673 15.9222 20.0823 15.3394 19.7076L12.1575 17.366C11.2278 16.7681 10.0697 16.6484 9.02118 17.0418L6.97754 18.0795L6.97754 22.2898L8.61231 21.5478L13.2264 24.9734L22.6001 24.9734L22.6001 24.0989C22.6001 23.0224 21.7274 22.1497 20.651 22.1497L14.5281 22.1497" stroke="white" stroke-width="1.5" stroke-miterlimit="10" stroke-linejoin="round"/>
<path d="M26.0068 17.0204H15.2832V6.4H26.0068V17.0204Z" stroke="white" stroke-width="1.5" stroke-miterlimit="10" stroke-linejoin="round"/>
<path d="M22.0928 10.1556H19.1973V6.40007H22.0928V10.1556Z" stroke="white" stroke-opacity="0.7" stroke-width="1.5" stroke-miterlimit="10" stroke-linejoin="round"/>
<path d="M23.867 14.2446H21.4048" stroke="white" stroke-opacity="0.7" stroke-width="1.5" stroke-miterlimit="10" stroke-linejoin="round"/>
</svg>
