<svg width="16" height="13" viewBox="0 0 16 13" fill="none" xmlns="http://www.w3.org/2000/svg">
<g clip-path="url(#clip0_220_9501)">
<path d="M13.5535 1.01557C12.5023 0.5343 11.3926 0.192868 10.2526 0C10.0966 0.278859 9.95549 0.565767 9.82978 0.859525C8.61551 0.676548 7.38069 0.676548 6.16642 0.859525C6.04065 0.565798 5.8995 0.278893 5.74358 0C4.6029 0.194497 3.49241 0.536739 2.44013 1.01809C0.351097 4.10886 -0.215208 7.12286 0.0679445 10.0941C1.29134 10.998 2.66066 11.6854 4.11639 12.1265C4.44418 11.6856 4.73423 11.2179 4.98347 10.7283C4.51008 10.5515 4.05318 10.3334 3.61805 10.0765C3.73257 9.99339 3.84457 9.90782 3.9528 9.82476C5.21892 10.4202 6.60084 10.7289 7.99999 10.7289C9.39914 10.7289 10.7811 10.4202 12.0472 9.82476C12.1567 9.91411 12.2687 9.99969 12.3819 10.0765C11.946 10.3338 11.4882 10.5524 11.014 10.7296C11.2629 11.2189 11.553 11.6863 11.8811 12.1265C13.338 11.6872 14.7084 11.0001 15.932 10.0953C16.2643 6.64968 15.3645 3.66336 13.5535 1.01557ZM5.34213 8.26679C4.55308 8.26679 3.9012 7.55073 3.9012 6.66981C3.9012 5.78889 4.53043 5.06654 5.33961 5.06654C6.1488 5.06654 6.79565 5.78889 6.7818 6.66981C6.76796 7.55073 6.14628 8.26679 5.34213 8.26679ZM10.6578 8.26679C9.86754 8.26679 9.21817 7.55073 9.21817 6.66981C9.21817 5.78889 9.8474 5.06654 10.6578 5.06654C11.4683 5.06654 12.1101 5.78889 12.0963 6.66981C12.0824 7.55073 11.462 8.26679 10.6578 8.26679Z" fill="#F9FAFB"/>
</g>
<defs>
<clipPath id="clip0_220_9501">
<rect width="16" height="12.1265" fill="white"/>
</clipPath>
</defs>
</svg>
