<svg width="33" height="33" viewBox="0 0 33 33" fill="none" xmlns="http://www.w3.org/2000/svg">
<path fill-rule="evenodd" clip-rule="evenodd" d="M16.1464 6.59849C10.6541 6.59849 6.20164 11.0509 6.20164 16.5432C6.20164 22.0356 10.6541 26.488 16.1464 26.488C21.6387 26.488 26.0911 22.0356 26.0911 16.5432C26.0911 11.0509 21.6387 6.59849 16.1464 6.59849ZM4.75781 16.5432C4.75781 10.2535 9.85665 5.15466 16.1464 5.15466C22.4361 5.15466 27.535 10.2535 27.535 16.5432C27.535 22.833 22.4361 27.9318 16.1464 27.9318C9.85665 27.9318 4.75781 22.833 4.75781 16.5432Z" fill="white"/>
<path d="M16.4043 16.8653L16.4043 12.2432" stroke="white" stroke-width="1.85635" stroke-linecap="round"/>
<circle cx="16.3957" cy="21.0856" r="1.20816" fill="white"/>
</svg>
