<svg width="33" height="33" viewBox="0 0 33 33" fill="none" xmlns="http://www.w3.org/2000/svg">
<path d="M13.2502 13.9268L14.748 14.0281C14.9484 14.0416 15.1358 13.9408 15.2421 13.7761C15.3745 13.5712 15.5193 13.3758 15.6755 13.1907C15.8081 13.0336 15.8447 12.8161 15.7566 12.6294L15.1298 11.3002C15.0344 11.0978 15.0829 10.8587 15.2584 10.7196C15.6389 10.4179 16.0467 10.1521 16.4761 9.92565C16.6774 9.81954 16.9266 9.86884 17.083 10.0349L18.1269 11.1439C18.2676 11.2934 18.4841 11.3466 18.6831 11.2935C18.9643 11.2184 19.2526 11.1632 19.5461 11.1292C19.7447 11.1061 19.9184 10.9851 19.9913 10.8042L20.5613 9.38945C20.644 9.18435 20.8543 9.05486 21.0797 9.08296C21.3185 9.11271 21.558 9.1537 21.7977 9.20628C22.0415 9.25978 22.2802 9.32411 22.5133 9.39867C22.7294 9.46779 22.8658 9.67321 22.855 9.89377L22.7871 11.2803C22.7769 11.4891 22.9002 11.6822 23.0906 11.7809C23.4054 11.9441 23.7021 12.1328 23.9783 12.3436C24.1356 12.4636 24.3454 12.4995 24.528 12.4258L25.7365 11.938C25.9482 11.8525 26.1954 11.9122 26.3337 12.0931C26.629 12.4795 26.8881 12.8927 27.1073 13.3271C27.2081 13.5268 27.152 13.764 26.9808 13.9077L26.1645 14.5927C25.9977 14.7326 25.9434 14.9604 26.0128 15.166C26.132 15.5187 26.2174 15.8836 26.2662 16.2565C26.2919 16.453 26.4205 16.6259 26.6101 16.6982L27.584 17.0698C27.7944 17.1501 27.9314 17.3526 27.9108 17.5708C27.881 17.887 27.8317 18.2049 27.7619 18.5231C27.7296 18.6703 27.6934 18.8156 27.6533 18.9589C27.5912 19.181 27.3737 19.322 27.1372 19.306L26.2311 19.2447C26.0094 19.2298 25.806 19.3544 25.7089 19.5479C25.5067 19.9508 25.2592 20.3239 24.9739 20.6625C24.8415 20.8196 24.8049 21.0369 24.893 21.2236L25.3516 22.1961C25.4439 22.3918 25.4019 22.6226 25.2382 22.7639C24.898 23.0576 24.5334 23.3215 24.1488 23.5525C23.9454 23.6748 23.6817 23.6298 23.5183 23.4562L22.7545 22.6447C22.6087 22.4898 22.382 22.4388 22.1782 22.5013C21.6704 22.6571 21.137 22.7475 20.5904 22.7647C20.3729 22.7715 20.1758 22.8957 20.0965 23.0924L19.6119 24.295C19.5286 24.5018 19.3158 24.6315 19.0888 24.601C18.8746 24.5722 18.6599 24.5344 18.4451 24.4873C18.2344 24.4411 18.0276 24.3867 17.8249 24.3247C17.6056 24.2577 17.4662 24.0506 17.4771 23.8277L17.5468 22.4037C17.5565 22.2057 17.4459 22.0207 17.2708 21.9176C16.8535 21.672 16.4718 21.3802 16.1317 21.051C15.9729 20.8972 15.7369 20.8417 15.5321 20.9244L14.2732 21.4326C14.0524 21.5217 13.7942 21.4524 13.6606 21.2565C13.4083 20.8867 13.1876 20.4955 13.0015 20.0875" stroke="white" stroke-width="1.42222" stroke-miterlimit="10" stroke-linecap="round"/>
<circle opacity="0.7" cx="20.1215" cy="16.8468" r="3.42222" transform="rotate(12.3744 20.1215 16.8468)" stroke="white" stroke-width="1.42222" stroke-miterlimit="10" stroke-linecap="round"/>
<path d="M4.16348 13.6987L10.5635 13.6987" stroke="white" stroke-width="1.42222" stroke-miterlimit="10" stroke-linecap="round" stroke-linejoin="round"/>
<path opacity="0.7" d="M6.09443 16.8987H12.9702" stroke="white" stroke-width="1.42222" stroke-miterlimit="10" stroke-linecap="round" stroke-linejoin="round"/>
<path d="M9.13684 20.087H12.9702" stroke="white" stroke-width="1.42222" stroke-miterlimit="10" stroke-linecap="round" stroke-linejoin="round"/>
</svg>
