<svg width="33" height="32" viewBox="0 0 33 32" fill="none" xmlns="http://www.w3.org/2000/svg">
<path d="M22.0014 26.9861C24.443 26.9861 26.4222 25.0068 26.4222 22.5652C26.4222 20.1237 24.443 18.1444 22.0014 18.1444C19.5598 18.1444 17.5806 20.1237 17.5806 22.5652C17.5806 25.0068 19.5598 26.9861 22.0014 26.9861Z" stroke="white" stroke-width="1.5" stroke-miterlimit="10" stroke-linecap="round" stroke-linejoin="round"/>
<path d="M20.5518 18.2182V6.43616H5.44434V21.5436H17.2264" stroke="white" stroke-width="1.5" stroke-miterlimit="10" stroke-linecap="round" stroke-linejoin="round"/>
<path d="M19.9874 18.465L16.2594 11.5414L10.8736 21.5435M10.8736 21.5435H17.2264M10.8736 21.5435L5.44434 21.5435L9.22119 14.7452L11.9192 19.6016" stroke="white" stroke-opacity="0.7" stroke-width="1.5" stroke-miterlimit="10" stroke-linecap="round" stroke-linejoin="round"/>
<path d="M11.5814 12.1014C12.3636 12.1014 12.9977 11.4673 12.9977 10.6851C12.9977 9.90291 12.3636 9.2688 11.5814 9.2688C10.7991 9.2688 10.165 9.90291 10.165 10.6851C10.165 11.4673 10.7991 12.1014 11.5814 12.1014Z" stroke="white" stroke-opacity="0.7" stroke-width="1.5" stroke-miterlimit="10" stroke-linecap="round" stroke-linejoin="round"/>
<path d="M19.6069 23.8068V21.8911C19.6069 21.637 19.7077 21.3935 19.8876 21.2139C20.0672 21.034 20.3107 20.9332 20.5648 20.9332C20.8189 20.9332 21.0624 21.034 21.242 21.2139C21.4218 21.3935 21.5226 21.637 21.5226 21.8911C21.5226 22.7268 21.5226 23.8068 21.5226 23.8068" stroke="white" stroke-width="1.5" stroke-miterlimit="10" stroke-linecap="round" stroke-linejoin="round"/>
<path d="M19.6069 22.849H21.5226" stroke="white" stroke-width="1.5" stroke-miterlimit="10" stroke-linecap="round" stroke-linejoin="round"/>
<path d="M22.9595 20.9332H24.3962" stroke="white" stroke-width="1.5" stroke-miterlimit="10" stroke-linecap="round" stroke-linejoin="round"/>
<path d="M22.9595 23.8068H24.3962" stroke="white" stroke-width="1.5" stroke-miterlimit="10" stroke-linecap="round" stroke-linejoin="round"/>
<path d="M23.6782 20.9332V23.8068" stroke="white" stroke-width="1.5" stroke-miterlimit="10" stroke-linecap="round" stroke-linejoin="round"/>
</svg>
