<svg width="33" height="32" viewBox="0 0 33 32" fill="none" xmlns="http://www.w3.org/2000/svg">
<g clip-path="url(#clip0_62_25163)">
<mask id="mask0_62_25163" style="mask-type:luminance" maskUnits="userSpaceOnUse" x="0" y="10" width="18" height="18">
<path d="M0.778892 14.0756L14.0768 10.3603L17.792 23.6582L4.49414 27.3734L0.778892 14.0756Z" fill="white"/>
</mask>
<g mask="url(#mask0_62_25163)">
<path d="M11.0326 18.9105C11.1128 19.1974 11.4103 19.365 11.6972 19.2848C11.9841 19.2047 12.1517 18.9071 12.0715 18.6202C11.9913 18.3333 11.6938 18.1658 11.4069 18.2459C11.12 18.3261 10.9525 18.6236 11.0326 18.9105Z" fill="white"/>
<path d="M7.78683 19.8175C7.86699 20.1044 7.69941 20.4019 7.41251 20.4821C7.12562 20.5622 6.82809 20.3946 6.74794 20.1077C6.66779 19.8209 6.83537 19.5233 7.12226 19.4432C7.40915 19.363 7.70668 19.5306 7.78683 19.8175Z" fill="white"/>
<path d="M9.38866 24.3537C9.834 24.2106 10.3415 23.7888 10.4436 23.219L10.4956 23.2045C10.9076 23.6274 11.5672 23.7496 12.0119 23.6208" stroke="white" stroke-width="1.5" stroke-miterlimit="10" stroke-linecap="round" stroke-linejoin="round"/>
<path d="M10.2067 22.2574C10.162 22.2957 9.37963 22.0577 8.71703 21.4491C8.41575 21.1724 8.5338 20.6727 8.9278 20.5627L10.4168 20.1467C10.8128 20.036 11.1753 20.4068 11.0552 20.8001C10.7981 21.6418 10.2511 22.2193 10.2067 22.2574Z" fill="white"/>
<path d="M10.4565 23.1595L9.88329 21.1077" stroke="white" stroke-width="1.5" stroke-miterlimit="10" stroke-linecap="round" stroke-linejoin="round"/>
<path d="M6.07653 16.0016C5.50949 15.6932 4.69986 15.152 4.07823 14.3297C3.77974 13.9347 3.65893 13.8311 3.2174 13.9544C2.8614 14.0539 2.6468 14.9294 3.16 16.1542C3.41069 16.7524 4.01751 17.4621 4.63502 17.9261C4.49786 18.2109 4.44508 18.549 4.53684 18.8775C4.65554 19.3023 4.96494 19.6225 5.34654 19.7713C5.09733 20.0963 4.99865 20.5304 5.11735 20.9553C5.23604 21.3801 5.54545 21.7002 5.92705 21.849C5.67784 22.1741 5.57916 22.6082 5.69786 23.0331C5.80238 23.4072 6.05494 23.6998 6.37427 23.8661C6.18735 24.1738 6.12304 24.5549 6.22757 24.9291C6.42795 25.6463 7.17181 26.0652 7.88901 25.8649" stroke="white" stroke-width="1.5" stroke-miterlimit="10" stroke-linecap="round" stroke-linejoin="round"/>
<path d="M10.5446 14.7535C10.8697 14.1959 11.2815 13.3133 11.3869 12.2879C11.4375 11.7955 11.4871 11.6442 11.9286 11.5208C12.2846 11.4214 12.9219 12.0588 13.1179 13.3723C13.2135 14.0139 13.0624 14.9353 12.7748 15.6521C13.0397 15.8246 13.2601 16.0864 13.3519 16.4149C13.4706 16.8397 13.3719 17.2739 13.1227 17.5989C13.5043 17.7477 13.8137 18.0678 13.9324 18.4927C14.0511 18.9175 13.9524 19.3516 13.7033 19.6767C14.0848 19.8255 14.3942 20.1456 14.5129 20.5705C14.6174 20.9445 14.5532 21.3257 14.3663 21.6334C14.6856 21.7997 14.9381 22.0923 15.0426 22.4664C15.243 23.1836 14.824 23.9275 14.1068 24.1279" stroke="white" stroke-width="1.5" stroke-miterlimit="10" stroke-linecap="round" stroke-linejoin="round"/>
<path d="M10.9296 15.1314C10.3628 14.5058 9.57487 14.4179 9.06875 14.5593C8.7115 14.6592 8.43164 14.9057 8.26207 15.2047C7.96206 15.0369 7.59495 14.9711 7.2377 15.0709C6.73157 15.2123 6.10331 15.6958 5.94287 16.5247" stroke="white" stroke-width="1.5" stroke-miterlimit="10" stroke-linecap="round" stroke-linejoin="round"/>
</g>
<mask id="mask1_62_25163" style="mask-type:luminance" maskUnits="userSpaceOnUse" x="8" y="3" width="26" height="26">
<path d="M12.9503 3.50353L33.6891 7.75756L29.4351 28.4963L8.69629 24.2423L12.9503 3.50353Z" fill="white"/>
</mask>
<g mask="url(#mask1_62_25163)">
<path d="M23.5451 17.2847C23.4533 17.7322 23.7416 18.1692 24.189 18.261C24.6364 18.3528 25.0735 18.0645 25.1653 17.6171C25.2571 17.1697 24.9688 16.7326 24.5214 16.6408C24.0739 16.549 23.6369 16.8373 23.5451 17.2847Z" fill="white"/>
<path d="M18.4827 16.2461C18.3909 16.6935 17.9538 16.9818 17.5064 16.89C17.059 16.7983 16.7707 16.3612 16.8625 15.9138C16.9542 15.4663 17.3913 15.1781 17.8387 15.2698C18.2862 15.3616 18.5745 15.7987 18.4827 16.2461Z" fill="white"/>
<path d="M17.4878 23.5555C18.1954 23.6725 19.1831 23.453 19.7218 22.7474L19.8028 22.764C20.0682 23.6296 20.8822 24.2586 21.5789 24.3946" stroke="white" stroke-width="1.5" stroke-miterlimit="10" stroke-linecap="round" stroke-linejoin="round"/>
<path d="M20.0726 21.2699C19.9849 21.2908 19.0847 20.4179 18.6077 19.1235C18.3908 18.5349 18.902 17.9363 19.5164 18.0623L21.8386 18.5386C22.4562 18.6653 22.6907 19.425 22.2512 19.8772C21.3106 20.8449 20.1598 21.249 20.0726 21.2699Z" fill="white"/>
<path d="M19.7803 22.675L20.4367 19.4751" stroke="white" stroke-width="1.5" stroke-miterlimit="10" stroke-linecap="round" stroke-linejoin="round"/>
<path d="M18.8247 9.84361C18.2675 9.02564 17.5428 7.72005 17.2714 6.16294C17.1411 5.41515 17.0491 5.1891 16.3605 5.04785C15.8053 4.93397 14.899 5.97747 14.7403 8.00751C14.6629 8.99908 14.993 10.3922 15.51 11.4577C15.1233 11.75 14.8143 12.1742 14.7092 12.6864C14.5733 13.3489 14.7709 14.0024 15.187 14.4728C14.6193 14.7414 14.1804 15.2642 14.0445 15.9268C13.9086 16.5894 12.9756 17.2999 13.3918 17.7703" stroke="white" stroke-width="1.5" stroke-miterlimit="10" stroke-linecap="round" stroke-linejoin="round"/>
<path d="M25.7919 11.2727C26.6261 10.7401 27.8064 9.82526 28.6688 8.50073C29.0829 7.86461 29.2566 7.69306 29.9452 7.83431C30.5004 7.9482 30.9227 9.26422 30.2693 11.1928C29.9501 12.1348 29.0982 13.2854 28.2035 14.0614C28.4439 14.4823 28.561 14.9939 28.4559 15.5061C28.32 16.1686 27.8812 16.6915 27.3135 16.9601C27.7296 17.4305 27.9271 18.0839 27.7912 18.7465C27.6553 19.4091 27.2165 19.932 26.6488 20.2006C27.0649 20.671 27.2625 21.3244 27.1265 21.987C27.0069 22.5704 26.652 23.0452 26.1815 23.3338C26.5004 23.7843 26.6397 24.3604 26.52 24.9439C26.2906 26.0624 25.1978 26.7831 24.0793 26.5537" stroke="white" stroke-width="1.5" stroke-miterlimit="10" stroke-linecap="round" stroke-linejoin="round"/>
<path d="M26.0524 12.0584C25.718 10.8079 24.7051 10.1358 23.9158 9.97393C23.3586 9.85965 22.8042 9.99968 22.3633 10.2886C22.0718 9.84946 21.6173 9.50246 21.0601 9.38817C20.2708 9.22626 19.0751 9.4453 18.2754 10.4631" stroke="white" stroke-width="1.5" stroke-miterlimit="10" stroke-linecap="round" stroke-linejoin="round"/>
</g>
</g>
<defs>
<clipPath id="clip0_62_25163">
<rect width="32" height="32" fill="white" transform="translate(0.77832)"/>
</clipPath>
</defs>
</svg>
