<svg width="33" height="32" viewBox="0 0 33 32" fill="none" xmlns="http://www.w3.org/2000/svg">
<path d="M9.23976 24.8101H23.4927C24.6672 24.8101 25.6193 23.858 25.6193 22.6836V7.08862C25.6193 6.69713 25.3019 6.37976 24.9104 6.37976H11.7008C11.3094 6.37976 10.992 6.69713 10.992 7.08862V22.9817C10.992 23.9915 10.1734 24.8101 9.16357 24.8101V24.8101" stroke="white" stroke-width="1.41772"/>
<path opacity="0.7" d="M10.4796 12.3038H8.83405H8.01126C7.55685 12.3038 7.18848 12.6538 7.18848 13.0855V22.9342C7.18848 23.9703 8.07257 24.8102 9.16316 24.8102" stroke="white" stroke-width="1.41772"/>
<line opacity="0.7" x1="22.9347" y1="10.3798" x2="13.8208" y2="10.3798" stroke="white" stroke-width="1.41772" stroke-linecap="round"/>
<line opacity="0.7" x1="22.9347" y1="13.6709" x2="13.8208" y2="13.6709" stroke="white" stroke-width="1.41772" stroke-linecap="round"/>
<line opacity="0.7" x1="22.9347" y1="16.962" x2="13.8208" y2="16.962" stroke="white" stroke-width="1.41772" stroke-linecap="round"/>
<line opacity="0.7" x1="22.9347" y1="20.2532" x2="13.8208" y2="20.2532" stroke="white" stroke-width="1.41772" stroke-linecap="round"/>
</svg>
