<svg width="33" height="32" viewBox="0 0 33 32" fill="none" xmlns="http://www.w3.org/2000/svg">
<path fill-rule="evenodd" clip-rule="evenodd" d="M13.0791 9.92407C13.4706 9.92407 13.788 10.2414 13.788 10.6329L13.788 14.8861C13.788 15.0818 13.9466 15.2405 14.1424 15.2405C14.3381 15.2405 14.4968 15.0818 14.4968 14.8861V12.095C14.4968 11.7035 14.8142 11.3861 15.2057 11.3861C15.5972 11.3861 15.9145 11.7035 15.9145 12.095V14.8861C15.9145 15.0818 16.0732 15.2405 16.269 15.2405C16.4647 15.2405 16.6234 15.0818 16.6234 14.8861V13.7785C16.6234 13.387 16.9408 13.0696 17.3323 13.0696C17.7238 13.0696 18.0411 13.387 18.0411 13.7785V14.8861C18.0411 15.0818 18.1998 15.2405 18.3956 15.2405C18.5913 15.2405 18.75 15.0818 18.75 14.8861V12.095C18.75 11.7035 19.0674 11.3861 19.4589 11.3861C19.8503 11.3861 20.1677 11.7035 20.1677 12.095V14.8861C20.1677 15.0818 20.3264 15.2405 20.5221 15.2405C20.7179 15.2405 20.8766 15.0818 20.8766 14.8861V14.3798C20.8766 13.9883 21.1939 13.6709 21.5854 13.6709C21.9769 13.6709 22.2943 13.9883 22.2943 14.3798V16.8101C22.2943 17.2016 21.9769 17.519 21.5854 17.519C21.1939 17.519 20.8766 17.2016 20.8766 16.8101V16.3038C20.8766 16.1081 20.7179 15.9494 20.5221 15.9494C20.3264 15.9494 20.1677 16.1081 20.1677 16.3038V19.095C20.1677 19.4865 19.8503 19.8038 19.4589 19.8038C19.0674 19.8038 18.75 19.4865 18.75 19.095V16.3038C18.75 16.1081 18.5913 15.9494 18.3956 15.9494C18.1998 15.9494 18.0411 16.1081 18.0411 16.3038V17.4114C18.0411 17.8029 17.7238 18.1203 17.3323 18.1203C16.9408 18.1203 16.6234 17.8029 16.6234 17.4114V16.3038C16.6234 16.1081 16.4647 15.9494 16.269 15.9494C16.0732 15.9494 15.9145 16.1081 15.9145 16.3038V19.095C15.9145 19.4865 15.5972 19.8038 15.2057 19.8038C14.8142 19.8038 14.4968 19.4865 14.4968 19.095V16.3038C14.4968 16.1081 14.3381 15.9494 14.1424 15.9494C13.9466 15.9494 13.788 16.1081 13.788 16.3038L13.788 20.557C13.788 20.9485 13.4706 21.2658 13.0791 21.2658C12.6876 21.2658 12.3702 20.9485 12.3702 20.557L12.3702 16.3038C12.3702 16.1081 12.2116 15.9494 12.0158 15.9494C11.8201 15.9494 11.6614 16.1081 11.6614 16.3038L11.6614 17.7722C11.6614 18.1637 11.344 18.481 10.9525 18.481C10.561 18.481 10.2437 18.1637 10.2437 17.7722L10.2437 15.5973C10.2437 15.5965 10.2437 15.5957 10.2437 15.595C10.2437 15.5942 10.2437 15.5934 10.2437 15.5926L10.2437 13.4177C10.2437 13.0263 10.561 12.7089 10.9525 12.7089C11.344 12.7089 11.6614 13.0263 11.6614 13.4177L11.6614 14.8861C11.6614 15.0818 11.8201 15.2405 12.0158 15.2405C12.2116 15.2405 12.3702 15.0818 12.3702 14.8861L12.3702 10.6329C12.3702 10.2414 12.6876 9.92407 13.0791 9.92407Z" fill="white"/>
<path opacity="0.7" fill-rule="evenodd" clip-rule="evenodd" d="M16.6236 5.48115C16.415 5.60186 16.1729 5.67095 15.9145 5.67095C15.6562 5.67095 15.414 5.60186 15.2054 5.48115L7.40697 9.98359C7.38811 10.4406 7.15293 10.8417 6.80112 11.0874V20.1026C7.15293 20.3483 7.38811 20.7494 7.40697 21.2064L15.2054 25.7089C15.414 25.5882 15.6562 25.5191 15.9145 25.5191C16.1729 25.5191 16.415 25.5881 16.6236 25.7089L24.4221 21.2064C24.441 20.7494 24.6761 20.3483 25.0279 20.1027V11.0874C24.6761 10.8417 24.441 10.4406 24.4221 9.9836L16.6236 5.48115ZM17.3323 4.25323C17.3323 3.47025 16.6975 2.83551 15.9145 2.83551C15.1315 2.83551 14.4968 3.47025 14.4968 4.25323L6.74922 8.7263C6.52983 8.58704 6.26957 8.5064 5.99048 8.5064C5.20749 8.5064 4.57275 9.14113 4.57275 9.92412C4.57275 10.4899 4.90414 10.9782 5.3834 11.2057V19.9844C4.90414 20.2118 4.57275 20.7001 4.57275 21.2659C4.57275 22.0489 5.20749 22.6836 5.99048 22.6836C6.26957 22.6836 6.52983 22.603 6.74922 22.4637L14.4968 26.9368C14.4968 27.7198 15.1315 28.3545 15.9145 28.3545C16.6975 28.3545 17.3323 27.7198 17.3323 26.9368L25.0798 22.4637C25.2992 22.603 25.5595 22.6836 25.8386 22.6836C26.6216 22.6836 27.2563 22.0489 27.2563 21.2659C27.2563 20.7001 26.9249 20.2118 26.4457 19.9844V11.2057C26.9249 10.9782 27.2563 10.4899 27.2563 9.92412C27.2563 9.14113 26.6216 8.5064 25.8386 8.5064C25.5595 8.5064 25.2992 8.58704 25.0798 8.72631L17.3323 4.25323Z" fill="white"/>
</svg>
