<svg width="33" height="33" viewBox="0 0 33 33" fill="none" xmlns="http://www.w3.org/2000/svg">
<rect x="12.2197" y="12.5351" width="8.72727" height="8.72727" rx="0.727273" stroke="white" stroke-width="1.45455" stroke-miterlimit="10" stroke-linecap="round"/>
<path opacity="0.7" fill-rule="evenodd" clip-rule="evenodd" d="M26.7652 5.98962H22.4016C21.9999 5.98962 21.6743 6.31524 21.6743 6.7169C21.6743 7.11856 21.9999 7.44417 22.4016 7.44417H25.0094L21.8873 10.5663C21.6033 10.8503 21.6033 11.3108 21.8873 11.5948C22.1713 11.8788 22.6318 11.8788 22.9158 11.5948L26.038 8.47269V11.0805C26.038 11.4822 26.3636 11.8078 26.7652 11.8078C27.1669 11.8078 27.4925 11.4822 27.4925 11.0805V6.7169C27.4925 6.61829 27.4729 6.52426 27.4373 6.43851C27.4018 6.35273 27.3492 6.27237 27.2795 6.20264C27.2098 6.13291 27.1294 6.0803 27.0436 6.04481C26.9579 6.00925 26.8638 5.98962 26.7652 5.98962Z" fill="#F9FAFB"/>
<path opacity="0.7" fill-rule="evenodd" clip-rule="evenodd" d="M6.40119 21.9897C6.80285 21.9897 7.12846 22.3153 7.12846 22.717V25.3248L10.2506 22.2027C10.5346 21.9187 10.9951 21.9187 11.2791 22.2027C11.5631 22.4867 11.5631 22.9472 11.2791 23.2312L8.15698 26.3533H10.7648C11.1665 26.3533 11.4921 26.6789 11.4921 27.0806C11.4921 27.4823 11.1665 27.8079 10.7648 27.8079H6.40119C5.99953 27.8079 5.67392 27.4823 5.67392 27.0806V22.717C5.67392 22.3153 5.99953 21.9897 6.40119 21.9897Z" fill="#F9FAFB"/>
<path opacity="0.7" fill-rule="evenodd" clip-rule="evenodd" d="M6.40079 5.98962H10.7644C11.1661 5.98962 11.4917 6.31524 11.4917 6.7169C11.4917 7.11856 11.1661 7.44417 10.7644 7.44417H8.15658L11.2787 10.5663C11.5627 10.8503 11.5627 11.3108 11.2787 11.5948C10.9947 11.8788 10.5342 11.8788 10.2502 11.5948L7.12806 8.47269V11.0805C7.12806 11.4822 6.80245 11.8078 6.40079 11.8078C5.99913 11.8078 5.67352 11.4822 5.67352 11.0805V6.7169C5.67352 6.61829 5.69314 6.52426 5.7287 6.43851C5.76419 6.35273 5.8168 6.27237 5.88653 6.20264C5.95626 6.13291 6.03662 6.0803 6.1224 6.04481C6.20815 6.00925 6.30218 5.98962 6.40079 5.98962Z" fill="#F9FAFB"/>
<path opacity="0.7" fill-rule="evenodd" clip-rule="evenodd" d="M22.4013 27.8079C21.9996 27.8079 21.674 27.4823 21.674 27.0806C21.674 26.6789 21.9996 26.3533 22.4013 26.3533H25.009L21.8868 23.2312C21.6028 22.9472 21.6028 22.4867 21.8868 22.2027C22.1709 21.9187 22.6313 21.9187 22.9154 22.2027L26.0376 25.325V22.717C26.0376 22.3153 26.3633 21.9897 26.7649 21.9897C27.1666 21.9897 27.4922 22.3153 27.4922 22.717V27.0806C27.4922 27.4823 27.1666 27.8079 26.7649 27.8079H22.4013Z" fill="#F9FAFB"/>
<line x1="0.727273" y1="-0.727273" x2="6.54545" y2="-0.727273" transform="matrix(-1 0 0 1 20.2197 7.44421)" stroke="white" stroke-width="1.45455" stroke-linecap="round" stroke-dasharray="0.73 2.91"/>
<line x1="19.4925" y1="27.0805" x2="13.6743" y2="27.0805" stroke="white" stroke-width="1.45455" stroke-linecap="round" stroke-dasharray="0.73 2.91"/>
<line x1="0.727273" y1="-0.727273" x2="6.54545" y2="-0.727273" transform="matrix(4.37114e-08 -1 -1 -4.37114e-08 26.0371 20.5351)" stroke="white" stroke-width="1.45455" stroke-linecap="round" stroke-dasharray="0.73 2.91"/>
<line x1="6.40115" y1="19.8078" x2="6.40115" y2="13.9896" stroke="white" stroke-width="1.45455" stroke-linecap="round" stroke-dasharray="0.73 2.91"/>
</svg>
