<svg width="33" height="32" viewBox="0 0 33 32" fill="none" xmlns="http://www.w3.org/2000/svg">
<mask id="mask0_62_25173" style="mask-type:luminance" maskUnits="userSpaceOnUse" x="6" y="6" width="21" height="20">
<path d="M6.9541 6.39998H26.1541V25.6H6.9541V6.39998Z" fill="white"/>
</mask>
<g mask="url(#mask0_62_25173)">
<path d="M25.5918 9.21252H22.2168V8.65002C22.2168 7.71804 22.9723 6.96252 23.9043 6.96252C24.8363 6.96252 25.5918 7.71804 25.5918 8.65002V9.21252Z" stroke="white" stroke-width="1.5" stroke-miterlimit="10" stroke-linejoin="round"/>
<path d="M22.2168 9.21248V23.35" stroke="white" stroke-width="1.5" stroke-miterlimit="10" stroke-linejoin="round"/>
<path d="M22.2177 22.7875V23.35C22.2177 24.282 21.4622 25.0375 20.5302 25.0375C19.5982 25.0375 18.8427 24.282 18.8427 23.35V22.7875H10.9302V9.21248C10.9302 7.96984 11.9375 6.96248 13.1802 6.96248H23.9052" stroke="white" stroke-width="1.5" stroke-miterlimit="10" stroke-linejoin="round"/>
<path d="M10.9291 22.7875H7.5166V23.35C7.5166 24.282 8.27211 25.0375 9.2041 25.0375H20.5291" stroke="white" stroke-width="1.5" stroke-miterlimit="10" stroke-linejoin="round"/>
<path d="M13.7793 18.25H19.4043" stroke="white" stroke-width="1.5" stroke-miterlimit="10" stroke-linejoin="round"/>
<path d="M13.7793 20.5H19.4043" stroke="white" stroke-opacity="0.7" stroke-width="1.5" stroke-miterlimit="10" stroke-linejoin="round"/>
<path d="M17.7168 10.3375C17.0955 10.3375 16.5918 9.83386 16.5918 9.21252C16.5918 9.83386 16.0881 10.3375 15.4668 10.3375H14.3418V12.3219C14.3418 13.8636 15.2129 15.273 16.5918 15.9625C17.9707 15.273 18.8418 13.8636 18.8418 12.3219V10.3375H17.7168Z" stroke="white" stroke-opacity="0.7" stroke-width="1.5" stroke-miterlimit="10"/>
</g>
</svg>
