<svg width="29" height="13" viewBox="0 0 29 13" fill="none" xmlns="http://www.w3.org/2000/svg">
<path d="M5.2601 5.37799V1.01435H6.73453C7.07686 1.01435 7.35669 1.07614 7.57402 1.19972C7.79277 1.32188 7.9547 1.48737 8.05981 1.69617C8.16493 1.90498 8.21749 2.13793 8.21749 2.39504C8.21749 2.65214 8.16493 2.8858 8.05981 3.09603C7.95612 3.30626 7.79561 3.47387 7.57828 3.59887C7.36095 3.72245 7.08254 3.78424 6.74305 3.78424H5.68623V3.31549H6.72601C6.96038 3.31549 7.14859 3.27501 7.29064 3.19404C7.43268 3.11308 7.53567 3.0037 7.59959 2.86592C7.66493 2.72671 7.6976 2.56975 7.6976 2.39504C7.6976 2.22032 7.66493 2.06407 7.59959 1.92629C7.53567 1.7885 7.43197 1.68055 7.28851 1.60242C7.14504 1.52288 6.9547 1.4831 6.71748 1.4831H5.78851V5.37799H5.2601ZM9.00051 5.37799V2.10526H9.48631V2.59958H9.5204C9.58006 2.43765 9.68801 2.30626 9.84426 2.20541C10.0005 2.10455 10.1766 2.05413 10.3727 2.05413C10.4096 2.05413 10.4558 2.05484 10.5112 2.05626C10.5666 2.05768 10.6085 2.05981 10.6369 2.06265V2.57401C10.6198 2.56975 10.5808 2.56336 10.5197 2.55484C10.46 2.54489 10.3968 2.53992 10.3301 2.53992C10.171 2.53992 10.0289 2.5733 9.90392 2.64006C9.78034 2.70541 9.68233 2.79631 9.60989 2.91279C9.53886 3.02785 9.50335 3.15924 9.50335 3.30697V5.37799H9.00051ZM11.2329 5.37799V2.10526H11.7358V5.37799H11.2329ZM11.4886 1.55981C11.3906 1.55981 11.3061 1.52643 11.2351 1.45967C11.1655 1.39291 11.1307 1.31265 11.1307 1.2189C11.1307 1.12515 11.1655 1.04489 11.2351 0.978133C11.3061 0.911371 11.3906 0.877991 11.4886 0.877991C11.5866 0.877991 11.6704 0.911371 11.74 0.978133C11.8111 1.04489 11.8466 1.12515 11.8466 1.2189C11.8466 1.31265 11.8111 1.39291 11.74 1.45967C11.6704 1.52643 11.5866 1.55981 11.4886 1.55981ZM13.9863 5.44617C13.6795 5.44617 13.4153 5.37373 13.1937 5.22884C12.9721 5.08396 12.8016 4.88438 12.6823 4.63012C12.563 4.37586 12.5034 4.08538 12.5034 3.75867C12.5034 3.42629 12.5644 3.13296 12.6866 2.8787C12.8102 2.62302 12.982 2.42345 13.2022 2.27998C13.4238 2.13509 13.6823 2.06265 13.9778 2.06265C14.2079 2.06265 14.4153 2.10526 14.5999 2.19049C14.7846 2.27572 14.9359 2.39504 15.0538 2.54845C15.1717 2.70185 15.2448 2.88083 15.2732 3.08538H14.7704C14.732 2.93623 14.6468 2.80413 14.5147 2.68907C14.384 2.57259 14.2079 2.51435 13.9863 2.51435C13.7903 2.51435 13.6184 2.56549 13.4707 2.66776C13.3244 2.76862 13.21 2.91137 13.1276 3.09603C13.0467 3.27927 13.0062 3.49447 13.0062 3.74163C13.0062 3.99447 13.046 4.21464 13.1255 4.40214C13.2065 4.58964 13.3201 4.73524 13.4664 4.83893C13.6141 4.94262 13.7874 4.99447 13.9863 4.99447C14.117 4.99447 14.2356 4.97174 14.3421 4.92629C14.4487 4.88083 14.5389 4.81549 14.6127 4.73026C14.6866 4.64504 14.7391 4.54276 14.7704 4.42345H15.2732C15.2448 4.61663 15.1745 4.79063 15.0623 4.94546C14.9515 5.09887 14.8045 5.22103 14.6212 5.31194C14.4394 5.40143 14.2278 5.44617 13.9863 5.44617ZM16.0083 5.37799V2.10526H16.5112V5.37799H16.0083ZM16.264 1.55981C16.166 1.55981 16.0815 1.52643 16.0105 1.45967C15.9409 1.39291 15.9061 1.31265 15.9061 1.2189C15.9061 1.12515 15.9409 1.04489 16.0105 0.978133C16.0815 0.911371 16.166 0.877991 16.264 0.877991C16.362 0.877991 16.4458 0.911371 16.5154 0.978133C16.5864 1.04489 16.622 1.12515 16.622 1.2189C16.622 1.31265 16.5864 1.39291 16.5154 1.45967C16.4458 1.52643 16.362 1.55981 16.264 1.55981ZM17.935 3.40924V5.37799H17.4322V2.10526H17.9179V2.61663H17.9606C18.0373 2.45043 18.1537 2.31691 18.31 2.21606C18.4662 2.11379 18.6679 2.06265 18.9151 2.06265C19.1367 2.06265 19.3306 2.1081 19.4968 2.19901C19.663 2.2885 19.7922 2.42487 19.8846 2.6081C19.9769 2.78992 20.0231 3.02004 20.0231 3.29845V5.37799H19.5202V3.33254C19.5202 3.07543 19.4535 2.87515 19.3199 2.73168C19.1864 2.5868 19.0032 2.51435 18.7702 2.51435C18.6097 2.51435 18.4662 2.54916 18.3398 2.61876C18.2148 2.68836 18.1161 2.78992 18.0437 2.92345C17.9712 3.05697 17.935 3.2189 17.935 3.40924ZM22.2629 6.67345C22.02 6.67345 21.8112 6.6422 21.6365 6.5797C21.4618 6.51862 21.3162 6.43765 21.1997 6.3368C21.0847 6.23737 20.9931 6.13083 20.9249 6.0172L21.3254 5.73595C21.3709 5.7956 21.4284 5.86379 21.498 5.94049C21.5676 6.01862 21.6628 6.08609 21.7835 6.14291C21.9057 6.20114 22.0655 6.23026 22.2629 6.23026C22.5271 6.23026 22.7452 6.16634 22.9171 6.0385C23.0889 5.91066 23.1749 5.71038 23.1749 5.43765V4.77288H23.1323C23.0953 4.83254 23.0428 4.9064 22.9746 4.99447C22.9078 5.08112 22.8112 5.15853 22.6848 5.22671C22.5598 5.29347 22.3908 5.32685 22.1777 5.32685C21.9135 5.32685 21.6763 5.26435 21.4661 5.13935C21.2573 5.01435 21.0918 4.83254 20.9696 4.5939C20.8489 4.35526 20.7885 4.06549 20.7885 3.72458C20.7885 3.38935 20.8475 3.09745 20.9654 2.84887C21.0833 2.59887 21.2473 2.40569 21.4575 2.26933C21.6678 2.13154 21.9107 2.06265 22.1862 2.06265C22.3993 2.06265 22.5683 2.09816 22.6933 2.16918C22.8198 2.23879 22.9163 2.31833 22.9831 2.40782C23.0513 2.49589 23.1038 2.56833 23.1408 2.62515H23.1919V2.10526H23.6777V5.47174C23.6777 5.75299 23.6138 5.98168 23.486 6.15782C23.3595 6.33538 23.1891 6.46535 22.9746 6.54774C22.7615 6.63154 22.5243 6.67345 22.2629 6.67345ZM22.2459 4.87515C22.4476 4.87515 22.6181 4.82899 22.7573 4.73666C22.8965 4.64433 23.0023 4.51151 23.0747 4.33822C23.1472 4.16492 23.1834 3.95754 23.1834 3.71606C23.1834 3.48026 23.1479 3.27217 23.0769 3.09177C23.0058 2.91137 22.9007 2.77004 22.7615 2.66776C22.6223 2.56549 22.4504 2.51435 22.2459 2.51435C22.0328 2.51435 21.8553 2.56833 21.7132 2.67629C21.5726 2.78424 21.4668 2.92913 21.3958 3.11095C21.3261 3.29276 21.2913 3.49447 21.2913 3.71606C21.2913 3.94333 21.3269 4.14433 21.3979 4.31904C21.4703 4.49234 21.5769 4.6287 21.7175 4.72813C21.8595 4.82614 22.0357 4.87515 22.2459 4.87515ZM4.08982 9.37799H3.56141C3.53016 9.226 3.47548 9.09248 3.39735 8.97742C3.32065 8.86237 3.2269 8.76577 3.1161 8.68765C3.00673 8.6081 2.88528 8.54845 2.75175 8.50867C2.61823 8.4689 2.47903 8.44901 2.33414 8.44901C2.06994 8.44901 1.83059 8.51577 1.6161 8.6493C1.40303 8.78282 1.23329 8.97955 1.10687 9.2395C0.981867 9.49944 0.919367 9.81833 0.919367 10.1962C0.919367 10.574 0.981867 10.8929 1.10687 11.1528C1.23329 11.4128 1.40303 11.6095 1.6161 11.743C1.83059 11.8766 2.06994 11.9433 2.33414 11.9433C2.47903 11.9433 2.61823 11.9234 2.75175 11.8837C2.88528 11.8439 3.00673 11.785 3.1161 11.7068C3.2269 11.6273 3.32065 11.53 3.39735 11.4149C3.47548 11.2984 3.53016 11.1649 3.56141 11.0144H4.08982C4.05005 11.2374 3.97761 11.4369 3.87249 11.6131C3.76738 11.7892 3.6367 11.9391 3.48045 12.0626C3.3242 12.1848 3.14877 12.2778 2.95417 12.3418C2.76099 12.4057 2.55431 12.4376 2.33414 12.4376C1.96198 12.4376 1.63101 12.3467 1.34124 12.1649C1.05147 11.9831 0.823486 11.7246 0.657293 11.3894C0.4911 11.0541 0.408003 10.6564 0.408003 10.1962C0.408003 9.73595 0.4911 9.33822 0.657293 9.00299C0.823486 8.66776 1.05147 8.40924 1.34124 8.22742C1.63101 8.0456 1.96198 7.9547 2.33414 7.9547C2.55431 7.9547 2.76099 7.98666 2.95417 8.05058C3.14877 8.1145 3.3242 8.20825 3.48045 8.33183C3.6367 8.45398 3.76738 8.60313 3.87249 8.77927C3.97761 8.95398 4.05005 9.15356 4.08982 9.37799ZM5.83858 12.4547C5.63119 12.4547 5.44298 12.4156 5.27395 12.3375C5.10491 12.258 4.97068 12.1436 4.87125 11.9945C4.77182 11.8439 4.7221 11.6621 4.7221 11.449C4.7221 11.2615 4.75903 11.1095 4.8329 10.993C4.90676 10.8751 5.00548 10.7828 5.12906 10.7161C5.25264 10.6493 5.389 10.5996 5.53815 10.5669C5.68872 10.5328 5.84 10.5058 5.99199 10.4859C6.19085 10.4604 6.35207 10.4412 6.47565 10.4284C6.60065 10.4142 6.69156 10.3908 6.74838 10.3581C6.80662 10.3254 6.83574 10.2686 6.83574 10.1876V10.1706C6.83574 9.96038 6.77821 9.79702 6.66315 9.68055C6.54952 9.56407 6.37693 9.50583 6.1454 9.50583C5.90534 9.50583 5.71713 9.55839 5.58077 9.6635C5.4444 9.76862 5.34852 9.88083 5.29312 10.0001L4.81585 9.8297C4.90108 9.63083 5.01472 9.476 5.15676 9.36521C5.30023 9.25299 5.45648 9.17487 5.62551 9.13083C5.79597 9.08538 5.96358 9.06265 6.12835 9.06265C6.23347 9.06265 6.3542 9.07543 6.49057 9.101C6.62835 9.12515 6.76116 9.17558 6.889 9.25228C7.01827 9.32898 7.12551 9.44475 7.21074 9.59958C7.29597 9.75441 7.33858 9.9618 7.33858 10.2217V12.378H6.83574V11.9348H6.81017C6.77608 12.0058 6.71926 12.0818 6.63972 12.1628C6.56017 12.2438 6.45435 12.3126 6.32224 12.3695C6.19014 12.4263 6.02892 12.4547 5.83858 12.4547ZM5.91528 12.003C6.11415 12.003 6.28176 11.9639 6.41812 11.8858C6.55591 11.8077 6.6596 11.7068 6.7292 11.5832C6.80023 11.4597 6.83574 11.3297 6.83574 11.1933V10.7331C6.81443 10.7587 6.76756 10.7821 6.69511 10.8034C6.62409 10.8233 6.5417 10.8411 6.44795 10.8567C6.35562 10.8709 6.26543 10.8837 6.17736 10.895C6.09071 10.905 6.0204 10.9135 5.96642 10.9206C5.83574 10.9376 5.71358 10.9653 5.59994 11.0037C5.48773 11.0406 5.39682 11.0967 5.32722 11.172C5.25903 11.2459 5.22494 11.3467 5.22494 11.4746C5.22494 11.6493 5.28957 11.7814 5.41883 11.8709C5.54952 11.959 5.715 12.003 5.91528 12.003ZM8.75921 8.01435V12.378H8.25637V8.01435H8.75921ZM11.0097 12.4462C10.7029 12.4462 10.4387 12.3737 10.2171 12.2288C9.99554 12.084 9.82508 11.8844 9.70577 11.6301C9.58645 11.3759 9.52679 11.0854 9.52679 10.7587C9.52679 10.4263 9.58787 10.133 9.71003 9.8787C9.83361 9.62302 10.0055 9.42345 10.2257 9.27998C10.4472 9.13509 10.7058 9.06265 11.0012 9.06265C11.2313 9.06265 11.4387 9.10526 11.6234 9.19049C11.808 9.27572 11.9593 9.39504 12.0772 9.54845C12.1951 9.70185 12.2683 9.88083 12.2967 10.0854H11.7938C11.7555 9.93623 11.6703 9.80413 11.5382 9.68907C11.4075 9.57259 11.2313 9.51435 11.0097 9.51435C10.8137 9.51435 10.6418 9.56549 10.4941 9.66776C10.3478 9.76862 10.2335 9.91137 10.1511 10.096C10.0701 10.2793 10.0296 10.4945 10.0296 10.7416C10.0296 10.9945 10.0694 11.2146 10.1489 11.4021C10.2299 11.5896 10.3436 11.7352 10.4899 11.8389C10.6376 11.9426 10.8109 11.9945 11.0097 11.9945C11.1404 11.9945 11.259 11.9717 11.3656 11.9263C11.4721 11.8808 11.5623 11.8155 11.6362 11.7303C11.71 11.645 11.7626 11.5428 11.7938 11.4234H12.2967C12.2683 11.6166 12.198 11.7906 12.0857 11.9455C11.9749 12.0989 11.8279 12.221 11.6447 12.3119C11.4629 12.4014 11.2512 12.4462 11.0097 12.4462ZM15.0943 11.0399V9.10526H15.5971V12.378H15.0943V11.824H15.0602C14.9835 11.9902 14.8641 12.1315 14.7022 12.248C14.5403 12.3631 14.3357 12.4206 14.0886 12.4206C13.884 12.4206 13.7022 12.3759 13.5431 12.2864C13.384 12.1955 13.259 12.0591 13.1681 11.8773C13.0772 11.694 13.0318 11.4632 13.0318 11.1848V9.10526H13.5346V11.1507C13.5346 11.3894 13.6014 11.5797 13.7349 11.7217C13.8698 11.8638 14.0417 11.9348 14.2505 11.9348C14.3755 11.9348 14.5026 11.9028 14.6319 11.8389C14.7626 11.775 14.872 11.677 14.96 11.5449C15.0495 11.4128 15.0943 11.2445 15.0943 11.0399ZM17.0209 8.01435V12.378H16.5181V8.01435H17.0209ZM18.905 12.4547C18.6976 12.4547 18.5094 12.4156 18.3404 12.3375C18.1713 12.258 18.0371 12.1436 17.9377 11.9945C17.8382 11.8439 17.7885 11.6621 17.7885 11.449C17.7885 11.2615 17.8254 11.1095 17.8993 10.993C17.9732 10.8751 18.0719 10.7828 18.1955 10.7161C18.319 10.6493 18.4554 10.5996 18.6046 10.5669C18.7551 10.5328 18.9064 10.5058 19.0584 10.4859C19.2573 10.4604 19.4185 10.4412 19.5421 10.4284C19.6671 10.4142 19.758 10.3908 19.8148 10.3581C19.873 10.3254 19.9021 10.2686 19.9021 10.1876V10.1706C19.9021 9.96038 19.8446 9.79702 19.7296 9.68055C19.6159 9.56407 19.4433 9.50583 19.2118 9.50583C18.9717 9.50583 18.7835 9.55839 18.6472 9.6635C18.5108 9.76862 18.4149 9.88083 18.3595 10.0001L17.8823 9.8297C17.9675 9.63083 18.0811 9.476 18.2232 9.36521C18.3666 9.25299 18.5229 9.17487 18.6919 9.13083C18.8624 9.08538 19.03 9.06265 19.1948 9.06265C19.2999 9.06265 19.4206 9.07543 19.557 9.101C19.6948 9.12515 19.8276 9.17558 19.9554 9.25228C20.0847 9.32898 20.1919 9.44475 20.2771 9.59958C20.3624 9.75441 20.405 9.9618 20.405 10.2217V12.378H19.9021V11.9348H19.8766C19.8425 12.0058 19.7857 12.0818 19.7061 12.1628C19.6266 12.2438 19.5208 12.3126 19.3886 12.3695C19.2565 12.4263 19.0953 12.4547 18.905 12.4547ZM18.9817 12.003C19.1806 12.003 19.3482 11.9639 19.4845 11.8858C19.6223 11.8077 19.726 11.7068 19.7956 11.5832C19.8666 11.4597 19.9021 11.3297 19.9021 11.1933V10.7331C19.8808 10.7587 19.834 10.7821 19.7615 10.8034C19.6905 10.8233 19.6081 10.8411 19.5144 10.8567C19.422 10.8709 19.3318 10.8837 19.2438 10.895C19.1571 10.905 19.0868 10.9135 19.0328 10.9206C18.9021 10.9376 18.78 10.9653 18.6663 11.0037C18.5541 11.0406 18.4632 11.0967 18.3936 11.172C18.3254 11.2459 18.2913 11.3467 18.2913 11.4746C18.2913 11.6493 18.356 11.7814 18.4852 11.8709C18.6159 11.959 18.7814 12.003 18.9817 12.003ZM22.7461 9.10526V9.5314H21.05V9.10526H22.7461ZM21.5444 8.32117H22.0472V11.4405C22.0472 11.5825 22.0678 11.6891 22.109 11.7601C22.1516 11.8297 22.2056 11.8766 22.2709 11.9007C22.3377 11.9234 22.408 11.9348 22.4819 11.9348C22.5373 11.9348 22.5827 11.932 22.6182 11.9263C22.6537 11.9192 22.6822 11.9135 22.7035 11.9092L22.8057 12.3609C22.7716 12.3737 22.7241 12.3865 22.663 12.3993C22.6019 12.4135 22.5245 12.4206 22.4307 12.4206C22.2887 12.4206 22.1495 12.3901 22.0131 12.329C21.8782 12.2679 21.766 12.1749 21.6765 12.0499C21.5884 11.9249 21.5444 11.7672 21.5444 11.5769V8.32117ZM24.7969 12.4462C24.5014 12.4462 24.2422 12.3759 24.0192 12.2352C23.7976 12.0946 23.6243 11.8979 23.4993 11.645C23.3757 11.3922 23.3139 11.0967 23.3139 10.7587C23.3139 10.4178 23.3757 10.1202 23.4993 9.86592C23.6243 9.61166 23.7976 9.41421 24.0192 9.27359C24.2422 9.13296 24.5014 9.06265 24.7969 9.06265C25.0923 9.06265 25.3508 9.13296 25.5724 9.27359C25.7954 9.41421 25.9687 9.61166 26.0923 9.86592C26.2173 10.1202 26.2798 10.4178 26.2798 10.7587C26.2798 11.0967 26.2173 11.3922 26.0923 11.645C25.9687 11.8979 25.7954 12.0946 25.5724 12.2352C25.3508 12.3759 25.0923 12.4462 24.7969 12.4462ZM24.7969 11.9945C25.0213 11.9945 25.2059 11.9369 25.3508 11.8219C25.4957 11.7068 25.603 11.5555 25.6726 11.368C25.7422 11.1805 25.777 10.9774 25.777 10.7587C25.777 10.5399 25.7422 10.3361 25.6726 10.1472C25.603 9.95825 25.4957 9.80555 25.3508 9.68907C25.2059 9.57259 25.0213 9.51435 24.7969 9.51435C24.5724 9.51435 24.3878 9.57259 24.2429 9.68907C24.098 9.80555 23.9907 9.95825 23.9211 10.1472C23.8515 10.3361 23.8167 10.5399 23.8167 10.7587C23.8167 10.9774 23.8515 11.1805 23.9211 11.368C23.9907 11.5555 24.098 11.7068 24.2429 11.8219C24.3878 11.9369 24.5724 11.9945 24.7969 11.9945ZM27.0474 12.378V9.10526H27.5332V9.59958H27.5673C27.6269 9.43765 27.7349 9.30626 27.8911 9.20541C28.0474 9.10455 28.2235 9.05413 28.4195 9.05413C28.4565 9.05413 28.5026 9.05484 28.558 9.05626C28.6134 9.05768 28.6553 9.05981 28.6837 9.06265V9.57401C28.6667 9.56975 28.6276 9.56336 28.5666 9.55484C28.5069 9.54489 28.4437 9.53992 28.3769 9.53992C28.2178 9.53992 28.0758 9.5733 27.9508 9.64006C27.8272 9.70541 27.7292 9.79631 27.6568 9.91279C27.5857 10.0278 27.5502 10.1592 27.5502 10.307V12.378H27.0474Z" fill="white"/>
</svg>
