<svg width="34" height="14" viewBox="0 0 34 14" fill="none" xmlns="http://www.w3.org/2000/svg">
<path d="M7.59799 5.37799V1.01435H9.07242C9.41475 1.01435 9.69458 1.07614 9.91191 1.19972C10.1307 1.32188 10.2926 1.48737 10.3977 1.69617C10.5028 1.90498 10.5554 2.13793 10.5554 2.39504C10.5554 2.65214 10.5028 2.8858 10.3977 3.09603C10.294 3.30626 10.1335 3.47387 9.91617 3.59887C9.69884 3.72245 9.42043 3.78424 9.08094 3.78424H8.02413V3.31549H9.0639C9.29827 3.31549 9.48648 3.27501 9.62853 3.19404C9.77057 3.11308 9.87356 3.0037 9.93748 2.86592C10.0028 2.72671 10.0355 2.56975 10.0355 2.39504C10.0355 2.22032 10.0028 2.06407 9.93748 1.92629C9.87356 1.7885 9.76986 1.68055 9.6264 1.60242C9.48293 1.52288 9.29259 1.4831 9.05538 1.4831H8.1264V5.37799H7.59799ZM11.3384 5.37799V2.10526H11.8242V2.59958H11.8583C11.9179 2.43765 12.0259 2.30626 12.1822 2.20541C12.3384 2.10455 12.5145 2.05413 12.7106 2.05413C12.7475 2.05413 12.7937 2.05484 12.8491 2.05626C12.9045 2.05768 12.9464 2.05981 12.9748 2.06265V2.57401C12.9577 2.56975 12.9187 2.56336 12.8576 2.55484C12.7979 2.54489 12.7347 2.53992 12.6679 2.53992C12.5089 2.53992 12.3668 2.5733 12.2418 2.64006C12.1182 2.70541 12.0202 2.79631 11.9478 2.91279C11.8768 3.02785 11.8412 3.15924 11.8412 3.30697V5.37799H11.3384ZM13.5708 5.37799V2.10526H14.0737V5.37799H13.5708ZM13.8265 1.55981C13.7285 1.55981 13.644 1.52643 13.573 1.45967C13.5034 1.39291 13.4686 1.31265 13.4686 1.2189C13.4686 1.12515 13.5034 1.04489 13.573 0.978133C13.644 0.911371 13.7285 0.877991 13.8265 0.877991C13.9245 0.877991 14.0083 0.911371 14.0779 0.978133C14.1489 1.04489 14.1845 1.12515 14.1845 1.2189C14.1845 1.31265 14.1489 1.39291 14.0779 1.45967C14.0083 1.52643 13.9245 1.55981 13.8265 1.55981ZM17.6708 2.10526L16.4606 5.37799H15.9492L14.739 2.10526H15.2844L16.1878 4.71322H16.2219L17.1253 2.10526H17.6708ZM19.198 5.4547C18.9906 5.4547 18.8024 5.41563 18.6333 5.33751C18.4643 5.25796 18.3301 5.14362 18.2306 4.99447C18.1312 4.8439 18.0815 4.66208 18.0815 4.44901C18.0815 4.26151 18.1184 4.10952 18.1923 3.99305C18.2661 3.87515 18.3649 3.78282 18.4884 3.71606C18.612 3.6493 18.7484 3.59958 18.8975 3.56691C19.0481 3.53282 19.1994 3.50583 19.3514 3.48595C19.5502 3.46038 19.7114 3.4412 19.835 3.42842C19.96 3.41421 20.0509 3.39077 20.1078 3.3581C20.166 3.32543 20.1951 3.26862 20.1951 3.18765V3.1706C20.1951 2.96038 20.1376 2.79702 20.0225 2.68055C19.9089 2.56407 19.7363 2.50583 19.5048 2.50583C19.2647 2.50583 19.0765 2.55839 18.9401 2.6635C18.8038 2.76862 18.7079 2.88083 18.6525 3.00015L18.1752 2.8297C18.2605 2.63083 18.3741 2.476 18.5161 2.36521C18.6596 2.25299 18.8159 2.17487 18.9849 2.13083C19.1553 2.08538 19.323 2.06265 19.4877 2.06265C19.5928 2.06265 19.7136 2.07543 19.8499 2.101C19.9877 2.12515 20.1205 2.17558 20.2484 2.25228C20.3776 2.32898 20.4849 2.44475 20.5701 2.59958C20.6553 2.75441 20.698 2.9618 20.698 3.22174V5.37799H20.1951V4.93481H20.1695C20.1355 5.00583 20.0786 5.08183 19.9991 5.16279C19.9195 5.24376 19.8137 5.31265 19.6816 5.36947C19.5495 5.42629 19.3883 5.4547 19.198 5.4547ZM19.2747 5.00299C19.4735 5.00299 19.6411 4.96393 19.7775 4.8858C19.9153 4.80768 20.019 4.70683 20.0886 4.58325C20.1596 4.45967 20.1951 4.3297 20.1951 4.19333V3.7331C20.1738 3.75867 20.1269 3.78211 20.0545 3.80342C19.9835 3.8233 19.9011 3.84106 19.8073 3.85668C19.715 3.87089 19.6248 3.88367 19.5367 3.89504C19.4501 3.90498 19.3798 3.9135 19.3258 3.9206C19.1951 3.93765 19.073 3.96535 18.9593 4.0037C18.8471 4.04063 18.7562 4.09674 18.6866 4.17202C18.6184 4.24589 18.5843 4.34674 18.5843 4.47458C18.5843 4.6493 18.6489 4.7814 18.7782 4.87089C18.9089 4.95896 19.0744 5.00299 19.2747 5.00299ZM23.039 2.10526V2.5314H21.343V2.10526H23.039ZM21.8373 1.32117H22.3402V4.44049C22.3402 4.58254 22.3608 4.68907 22.402 4.76009C22.4446 4.8297 22.4986 4.87657 22.5639 4.90072C22.6307 4.92345 22.701 4.93481 22.7748 4.93481C22.8302 4.93481 22.8757 4.93197 22.9112 4.92629C22.9467 4.91918 22.9751 4.9135 22.9964 4.90924L23.0987 5.36095C23.0646 5.37373 23.017 5.38651 22.9559 5.3993C22.8949 5.4135 22.8174 5.4206 22.7237 5.4206C22.5817 5.4206 22.4424 5.39006 22.3061 5.32899C22.1711 5.26791 22.0589 5.17487 21.9694 5.04987C21.8814 4.92487 21.8373 4.7672 21.8373 4.57685V1.32117ZM25.1324 5.44617C24.8171 5.44617 24.5451 5.37657 24.3164 5.23737C24.0891 5.09674 23.9137 4.90072 23.7901 4.6493C23.6679 4.39646 23.6069 4.10242 23.6069 3.7672C23.6069 3.43197 23.6679 3.13651 23.7901 2.88083C23.9137 2.62373 24.0856 2.42345 24.3057 2.27998C24.5273 2.13509 24.7858 2.06265 25.0813 2.06265C25.2518 2.06265 25.4201 2.09106 25.5863 2.14788C25.7525 2.2047 25.9037 2.29702 26.0401 2.42487C26.1765 2.55129 26.2851 2.7189 26.3661 2.92771C26.4471 3.13651 26.4875 3.39362 26.4875 3.69901V3.91208H23.9648V3.47742H25.9762C25.9762 3.29276 25.9393 3.12799 25.8654 2.9831C25.7929 2.83822 25.6893 2.72387 25.5543 2.64006C25.4208 2.55626 25.2631 2.51435 25.0813 2.51435C24.881 2.51435 24.7077 2.56407 24.5614 2.6635C24.4165 2.76151 24.305 2.88935 24.2269 3.04702C24.1488 3.2047 24.1097 3.37373 24.1097 3.55413V3.8439C24.1097 4.09106 24.1523 4.30058 24.2375 4.47245C24.3242 4.64291 24.4442 4.77288 24.5976 4.86237C24.751 4.95043 24.9293 4.99447 25.1324 4.99447C25.2645 4.99447 25.3839 4.976 25.4904 4.93907C25.5983 4.90072 25.6914 4.8439 25.7695 4.76862C25.8476 4.69191 25.908 4.59674 25.9506 4.4831L26.4364 4.61947C26.3853 4.78424 26.2993 4.92913 26.1786 5.05413C26.0579 5.17771 25.9087 5.2743 25.7312 5.3439C25.5536 5.41208 25.354 5.44617 25.1324 5.44617ZM1.76392 12.378H0.417325V8.01435H1.82358C2.24687 8.01435 2.60909 8.10171 2.91022 8.27643C3.21136 8.44972 3.44218 8.69901 3.60269 9.0243C3.76321 9.34816 3.84346 9.73595 3.84346 10.1876C3.84346 10.6422 3.7625 11.0335 3.60056 11.3617C3.43863 11.6884 3.20284 11.9398 2.89318 12.1159C2.58352 12.2906 2.2071 12.378 1.76392 12.378ZM0.945734 11.9092H1.72983C2.09062 11.9092 2.38963 11.8396 2.62684 11.7004C2.86406 11.5612 3.0409 11.3631 3.15738 11.106C3.27386 10.8489 3.3321 10.5428 3.3321 10.1876C3.3321 9.83538 3.27457 9.53211 3.15951 9.27785C3.04446 9.02217 2.87258 8.82614 2.64389 8.68978C2.41519 8.552 2.13039 8.4831 1.78948 8.4831H0.945734V11.9092ZM6.0338 12.4462C5.71846 12.4462 5.44644 12.3766 5.21775 12.2374C4.99048 12.0967 4.81505 11.9007 4.69147 11.6493C4.56931 11.3965 4.50823 11.1024 4.50823 10.7672C4.50823 10.432 4.56931 10.1365 4.69147 9.88083C4.81505 9.62373 4.98693 9.42345 5.2071 9.27998C5.42869 9.13509 5.68721 9.06265 5.98267 9.06265C6.15312 9.06265 6.32144 9.09106 6.48764 9.14788C6.65383 9.2047 6.80511 9.29702 6.94147 9.42487C7.07784 9.55129 7.1865 9.7189 7.26747 9.92771C7.34843 10.1365 7.38892 10.3936 7.38892 10.699V10.9121H4.86619V10.4774H6.87755C6.87755 10.2928 6.84062 10.128 6.76676 9.9831C6.69431 9.83822 6.59062 9.72387 6.45568 9.64006C6.32215 9.55626 6.16448 9.51435 5.98267 9.51435C5.78238 9.51435 5.60909 9.56407 5.46278 9.6635C5.31789 9.76151 5.20639 9.88935 5.12826 10.047C5.05014 10.2047 5.01108 10.3737 5.01108 10.5541V10.8439C5.01108 11.0911 5.05369 11.3006 5.13892 11.4725C5.22556 11.6429 5.34559 11.7729 5.499 11.8624C5.65241 11.9504 5.83068 11.9945 6.0338 11.9945C6.1659 11.9945 6.28522 11.976 6.39176 11.9391C6.49971 11.9007 6.59275 11.8439 6.67088 11.7686C6.749 11.6919 6.80937 11.5967 6.85198 11.4831L7.33778 11.6195C7.28664 11.7842 7.20071 11.9291 7.07997 12.0541C6.95923 12.1777 6.81008 12.2743 6.63252 12.3439C6.45497 12.4121 6.25539 12.4462 6.0338 12.4462ZM8.15383 13.6053V9.10526H8.63963V9.62515H8.69929C8.73622 9.56833 8.78735 9.49589 8.85269 9.40782C8.91946 9.31833 9.01463 9.23879 9.13821 9.16918C9.26321 9.09816 9.43224 9.06265 9.64531 9.06265C9.92088 9.06265 10.1638 9.13154 10.374 9.26933C10.5842 9.40711 10.7483 9.60242 10.8662 9.85526C10.9841 10.1081 11.043 10.4064 11.043 10.7501C11.043 11.0967 10.9841 11.3972 10.8662 11.6514C10.7483 11.9043 10.5849 12.1003 10.3761 12.2395C10.1673 12.3773 9.92656 12.4462 9.65383 12.4462C9.4436 12.4462 9.27528 12.4114 9.14886 12.3418C9.02244 12.2707 8.92514 12.1905 8.85696 12.101C8.78877 12.0101 8.73622 11.9348 8.69929 11.8751H8.65667V13.6053H8.15383ZM8.64815 10.7416C8.64815 10.9888 8.68437 11.2068 8.75681 11.3957C8.82926 11.5832 8.93508 11.7303 9.07429 11.8368C9.21349 11.9419 9.38394 11.9945 9.58565 11.9945C9.79588 11.9945 9.9713 11.9391 10.1119 11.8283C10.254 11.7161 10.3605 11.5655 10.4315 11.3766C10.504 11.1862 10.5402 10.9746 10.5402 10.7416C10.5402 10.5115 10.5047 10.3041 10.4337 10.1195C10.3641 9.93339 10.2582 9.78637 10.1162 9.67842C9.97556 9.56904 9.79872 9.51435 9.58565 9.51435C9.3811 9.51435 9.20923 9.5662 9.07002 9.66989C8.93082 9.77217 8.82571 9.91563 8.75468 10.1003C8.68366 10.2835 8.64815 10.4973 8.64815 10.7416ZM12.3129 8.01435V12.378H11.8101V8.01435H12.3129ZM14.5635 12.4462C14.268 12.4462 14.0088 12.3759 13.7858 12.2352C13.5642 12.0946 13.3909 11.8979 13.2659 11.645C13.1423 11.3922 13.0805 11.0967 13.0805 10.7587C13.0805 10.4178 13.1423 10.1202 13.2659 9.86592C13.3909 9.61166 13.5642 9.41421 13.7858 9.27359C14.0088 9.13296 14.268 9.06265 14.5635 9.06265C14.8589 9.06265 15.1174 9.13296 15.339 9.27359C15.562 9.41421 15.7353 9.61166 15.8589 9.86592C15.9839 10.1202 16.0464 10.4178 16.0464 10.7587C16.0464 11.0967 15.9839 11.3922 15.8589 11.645C15.7353 11.8979 15.562 12.0946 15.339 12.2352C15.1174 12.3759 14.8589 12.4462 14.5635 12.4462ZM14.5635 11.9945C14.7879 11.9945 14.9725 11.9369 15.1174 11.8219C15.2623 11.7068 15.3696 11.5555 15.4392 11.368C15.5088 11.1805 15.5436 10.9774 15.5436 10.7587C15.5436 10.5399 15.5088 10.3361 15.4392 10.1472C15.3696 9.95825 15.2623 9.80555 15.1174 9.68907C14.9725 9.57259 14.7879 9.51435 14.5635 9.51435C14.339 9.51435 14.1544 9.57259 14.0095 9.68907C13.8646 9.80555 13.7573 9.95825 13.6877 10.1472C13.6181 10.3361 13.5833 10.5399 13.5833 10.7587C13.5833 10.9774 13.6181 11.1805 13.6877 11.368C13.7573 11.5555 13.8646 11.7068 14.0095 11.8219C14.1544 11.9369 14.339 11.9945 14.5635 11.9945ZM17.0207 13.6053C16.9354 13.6053 16.8594 13.5982 16.7927 13.584C16.7259 13.5712 16.6798 13.5584 16.6542 13.5456L16.782 13.1024C16.9042 13.1337 17.0121 13.145 17.1059 13.1365C17.1996 13.128 17.2827 13.0861 17.3552 13.0108C17.429 12.9369 17.4965 12.8169 17.5576 12.6507L17.6513 12.395L16.4411 9.10526H16.9866L17.89 11.7132H17.9241L18.8275 9.10526H19.3729L17.9837 12.8553C17.9212 13.0243 17.8438 13.1642 17.7515 13.275C17.6592 13.3872 17.5519 13.4703 17.4298 13.5243C17.309 13.5783 17.1727 13.6053 17.0207 13.6053ZM20.0366 12.378V9.10526H20.5224V9.61663H20.5651C20.6332 9.44191 20.7433 9.30626 20.8953 9.20967C21.0473 9.11166 21.2298 9.06265 21.4429 9.06265C21.6588 9.06265 21.8385 9.11166 21.982 9.20967C22.1268 9.30626 22.2398 9.44191 22.3207 9.61663H22.3548C22.4386 9.44759 22.5643 9.31336 22.732 9.21393C22.8996 9.11308 23.1006 9.06265 23.3349 9.06265C23.6276 9.06265 23.8669 9.15427 24.053 9.33751C24.2391 9.51933 24.3321 9.80271 24.3321 10.1876V12.378H23.8293V10.1876C23.8293 9.94617 23.7632 9.77359 23.6311 9.66989C23.499 9.5662 23.3435 9.51435 23.1645 9.51435C22.9344 9.51435 22.7561 9.58396 22.6297 9.72316C22.5033 9.86095 22.4401 10.0357 22.4401 10.2473V12.378H21.9287V10.1365C21.9287 9.95043 21.8683 9.80058 21.7476 9.68694C21.6268 9.57188 21.4713 9.51435 21.281 9.51435C21.1503 9.51435 21.0281 9.54916 20.9145 9.61876C20.8023 9.68836 20.7114 9.78495 20.6418 9.90853C20.5736 10.0307 20.5395 10.172 20.5395 10.3325V12.378H20.0366ZM26.6236 12.4462C26.3083 12.4462 26.0363 12.3766 25.8076 12.2374C25.5803 12.0967 25.4049 11.9007 25.2813 11.6493C25.1592 11.3965 25.0981 11.1024 25.0981 10.7672C25.0981 10.432 25.1592 10.1365 25.2813 9.88083C25.4049 9.62373 25.5768 9.42345 25.7969 9.27998C26.0185 9.13509 26.2771 9.06265 26.5725 9.06265C26.743 9.06265 26.9113 9.09106 27.0775 9.14788C27.2437 9.2047 27.395 9.29702 27.5313 9.42487C27.6677 9.55129 27.7763 9.7189 27.8573 9.92771C27.9383 10.1365 27.9788 10.3936 27.9788 10.699V10.9121H25.456V10.4774H27.4674C27.4674 10.2928 27.4305 10.128 27.3566 9.9831C27.2842 9.83822 27.1805 9.72387 27.0455 9.64006C26.912 9.55626 26.7543 9.51435 26.5725 9.51435C26.3722 9.51435 26.1989 9.56407 26.0526 9.6635C25.9077 9.76151 25.7962 9.88935 25.7181 10.047C25.64 10.2047 25.6009 10.3737 25.6009 10.5541V10.8439C25.6009 11.0911 25.6435 11.3006 25.7288 11.4725C25.8154 11.6429 25.9354 11.7729 26.0888 11.8624C26.2423 11.9504 26.4205 11.9945 26.6236 11.9945C26.7557 11.9945 26.8751 11.976 26.9816 11.9391C27.0896 11.9007 27.1826 11.8439 27.2607 11.7686C27.3388 11.6919 27.3992 11.5967 27.4418 11.4831L27.9276 11.6195C27.8765 11.7842 27.7905 11.9291 27.6698 12.0541C27.5491 12.1777 27.3999 12.2743 27.2224 12.3439C27.0448 12.4121 26.8452 12.4462 26.6236 12.4462ZM29.2465 10.4092V12.378H28.7437V9.10526H29.2295V9.61663H29.2721C29.3488 9.45043 29.4653 9.31691 29.6215 9.21606C29.7778 9.11379 29.9795 9.06265 30.2266 9.06265C30.4482 9.06265 30.6421 9.1081 30.8083 9.19901C30.9745 9.2885 31.1038 9.42487 31.1961 9.6081C31.2884 9.78992 31.3346 10.02 31.3346 10.2984V12.378H30.8317V10.3325C30.8317 10.0754 30.765 9.87515 30.6315 9.73168C30.4979 9.5868 30.3147 9.51435 30.0817 9.51435C29.9212 9.51435 29.7778 9.54916 29.6513 9.61876C29.5263 9.68836 29.4276 9.78992 29.3552 9.92345C29.2827 10.057 29.2465 10.2189 29.2465 10.4092ZM33.6767 9.10526V9.5314H31.9807V9.10526H33.6767ZM32.475 8.32117H32.9779V11.4405C32.9779 11.5825 32.9985 11.6891 33.0397 11.7601C33.0823 11.8297 33.1363 11.8766 33.2016 11.9007C33.2684 11.9234 33.3387 11.9348 33.4125 11.9348C33.4679 11.9348 33.5134 11.932 33.5489 11.9263C33.5844 11.9192 33.6128 11.9135 33.6341 11.9092L33.7364 12.3609C33.7023 12.3737 33.6547 12.3865 33.5936 12.3993C33.5326 12.4135 33.4551 12.4206 33.3614 12.4206C33.2193 12.4206 33.0801 12.3901 32.9438 12.329C32.8088 12.2679 32.6966 12.1749 32.6071 12.0499C32.5191 11.9249 32.475 11.7672 32.475 11.5769V8.32117Z" fill="white"/>
</svg>
