<svg width="33" height="33" viewBox="0 0 33 33" fill="none" xmlns="http://www.w3.org/2000/svg">
<path d="M9.09912 13.0944V8.07226C9.09912 7.38171 9.65784 6.81671 10.3547 6.81671H24.8688C25.5593 6.81671 26.1243 7.37543 26.1243 8.07226V22.5863C26.1243 23.2769 25.5656 23.8419 24.8688 23.8419H19.8466" stroke="#F9FAFB" stroke-width="1.73827" stroke-miterlimit="10" stroke-linecap="round"/>
<path d="M5.96045 18.217V14.1177C5.96045 13.5527 6.41872 13.0944 6.98372 13.0944H18.8235C19.3885 13.0944 19.8468 13.5527 19.8468 14.1177V25.9575C19.8468 26.5225 19.3885 26.9807 18.8235 26.9807H14.7241" stroke="#F9FAFB" stroke-width="1.73827" stroke-miterlimit="10" stroke-linecap="round"/>
<path opacity="0.7" d="M10.7065 17.4137H15.6969C15.6969 17.4137 15.7287 17.4273 15.7287 17.4455V22.4359" stroke="#F9FAFB" stroke-width="1.73827" stroke-miterlimit="10" stroke-linecap="round"/>
<path opacity="0.7" d="M15.7287 17.4137L10.7065 22.4359" stroke="#F9FAFB" stroke-width="1.73827" stroke-miterlimit="10" stroke-linecap="round"/>
</svg>
