<svg viewBox="0 0 24 12" fill="none" xmlns="http://www.w3.org/2000/svg">
<path d="M0.961892 0.983226V0.514476H4.23462V0.983226H2.86246V4.87811H2.33405V0.983226H0.961892ZM5.87951 4.94629C5.56416 4.94629 5.29215 4.87669 5.06345 4.73749C4.83618 4.59686 4.66076 4.40084 4.53718 4.14942C4.41502 3.89658 4.35394 3.60254 4.35394 3.26732C4.35394 2.93209 4.41502 2.63664 4.53718 2.38095C4.66076 2.12385 4.83263 1.92357 5.0528 1.7801C5.27439 1.63522 5.53291 1.56277 5.82837 1.56277C5.99882 1.56277 6.16715 1.59118 6.33334 1.648C6.49953 1.70482 6.65081 1.79715 6.78718 1.92499C6.92354 2.05141 7.0322 2.21902 7.11317 2.42783C7.19414 2.63664 7.23462 2.89374 7.23462 3.19914V3.4122H4.71189V2.97754H6.72326C6.72326 2.79289 6.68632 2.62811 6.61246 2.48323C6.54002 2.33834 6.43632 2.22399 6.30138 2.14019C6.16786 2.05638 6.01019 2.01448 5.82837 2.01448C5.62809 2.01448 5.45479 2.06419 5.30848 2.16362C5.1636 2.26164 5.05209 2.38948 4.97397 2.54715C4.89584 2.70482 4.85678 2.87385 4.85678 3.05425V3.34402C4.85678 3.59118 4.89939 3.8007 4.98462 3.97257C5.07127 4.14303 5.1913 4.273 5.3447 4.36249C5.49811 4.45056 5.67638 4.49459 5.87951 4.49459C6.01161 4.49459 6.13093 4.47612 6.23746 4.43919C6.34541 4.40084 6.43845 4.34402 6.51658 4.26874C6.5947 4.19203 6.65507 4.09686 6.69769 3.98323L7.18348 4.11959C7.13235 4.28436 7.04641 4.42925 6.92567 4.55425C6.80493 4.67783 6.65578 4.77442 6.47823 4.84402C6.30067 4.9122 6.1011 4.94629 5.87951 4.94629ZM8.50237 2.90936V4.87811H7.99953V1.60539H8.48533V2.11675H8.52794C8.60465 1.95056 8.72112 1.81703 8.87737 1.71618C9.03362 1.61391 9.23533 1.56277 9.48249 1.56277C9.70408 1.56277 9.89797 1.60823 10.0642 1.69914C10.2304 1.78862 10.3596 1.92499 10.4519 2.10823C10.5443 2.29004 10.5904 2.52016 10.5904 2.79857V4.87811H10.0876V2.83266C10.0876 2.57556 10.0208 2.37527 9.88732 2.23181C9.7538 2.08692 9.57056 2.01448 9.3376 2.01448C9.17709 2.01448 9.03362 2.04928 8.9072 2.11888C8.7822 2.18848 8.68348 2.29004 8.61104 2.42357C8.5386 2.55709 8.50237 2.71902 8.50237 2.90936ZM16.2479 1.87811C16.2011 1.73465 16.1393 1.6061 16.0626 1.49246C15.9873 1.3774 15.8971 1.27939 15.792 1.19843C15.6883 1.11746 15.5704 1.05567 15.4383 1.01306C15.3062 0.970442 15.1613 0.949135 15.0036 0.949135C14.7451 0.949135 14.51 1.0159 14.2984 1.14942C14.0867 1.28294 13.9184 1.47968 13.7934 1.73962C13.6684 1.99956 13.6059 2.31845 13.6059 2.69629C13.6059 3.07414 13.6691 3.39303 13.7955 3.65297C13.9219 3.91291 14.0931 4.10965 14.309 4.24317C14.5249 4.37669 14.7678 4.44345 15.0377 4.44345C15.2877 4.44345 15.5079 4.39019 15.6982 4.28365C15.89 4.1757 16.0391 4.02371 16.1457 3.82769C16.2536 3.63024 16.3076 3.398 16.3076 3.13095L16.4695 3.16504H15.157V2.69629H16.819V3.16504C16.819 3.52442 16.7423 3.83692 16.5888 4.10254C16.4369 4.36817 16.2266 4.57414 15.9582 4.72044C15.6911 4.86533 15.3843 4.93777 15.0377 4.93777C14.6513 4.93777 14.3119 4.84686 14.0192 4.66504C13.728 4.48323 13.5008 4.2247 13.3374 3.88948C13.1755 3.55425 13.0945 3.15652 13.0945 2.69629C13.0945 2.35112 13.1407 2.04075 13.233 1.76519C13.3268 1.4882 13.4589 1.2524 13.6293 1.0578C13.7998 0.863198 14.0015 0.71405 14.2344 0.610357C14.4674 0.506664 14.7238 0.454817 15.0036 0.454817C15.2337 0.454817 15.4482 0.489618 15.6471 0.559221C15.8474 0.627402 16.0256 0.724703 16.1819 0.851124C16.3396 0.976124 16.4709 1.12598 16.5761 1.3007C16.6812 1.47399 16.7536 1.66647 16.7934 1.87811H16.2479ZM19.0279 4.94629C18.7126 4.94629 18.4406 4.87669 18.2119 4.73749C17.9846 4.59686 17.8092 4.40084 17.6856 4.14942C17.5635 3.89658 17.5024 3.60254 17.5024 3.26732C17.5024 2.93209 17.5635 2.63664 17.6856 2.38095C17.8092 2.12385 17.9811 1.92357 18.2012 1.7801C18.4228 1.63522 18.6814 1.56277 18.9768 1.56277C19.1473 1.56277 19.3156 1.59118 19.4818 1.648C19.648 1.70482 19.7992 1.79715 19.9356 1.92499C20.072 2.05141 20.1806 2.21902 20.2616 2.42783C20.3426 2.63664 20.3831 2.89374 20.3831 3.19914V3.4122H17.8603V2.97754H19.8717C19.8717 2.79289 19.8348 2.62811 19.7609 2.48323C19.6885 2.33834 19.5848 2.22399 19.4498 2.14019C19.3163 2.05638 19.1586 2.01448 18.9768 2.01448C18.7765 2.01448 18.6032 2.06419 18.4569 2.16362C18.312 2.26164 18.2005 2.38948 18.1224 2.54715C18.0443 2.70482 18.0052 2.87385 18.0052 3.05425V3.34402C18.0052 3.59118 18.0478 3.8007 18.1331 3.97257C18.2197 4.14303 18.3397 4.273 18.4931 4.36249C18.6466 4.45056 18.8248 4.49459 19.0279 4.49459C19.16 4.49459 19.2794 4.47612 19.3859 4.43919C19.4939 4.40084 19.5869 4.34402 19.665 4.26874C19.7431 4.19203 19.8035 4.09686 19.8461 3.98323L20.3319 4.11959C20.2808 4.28436 20.1948 4.42925 20.0741 4.55425C19.9534 4.67783 19.8042 4.77442 19.6267 4.84402C19.4491 4.9122 19.2495 4.94629 19.0279 4.94629ZM21.6508 2.90936V4.87811H21.148V1.60539H21.6338V2.11675H21.6764C21.7531 1.95056 21.8696 1.81703 22.0258 1.71618C22.1821 1.61391 22.3838 1.56277 22.6309 1.56277C22.8525 1.56277 23.0464 1.60823 23.2126 1.69914C23.3788 1.78862 23.5081 1.92499 23.6004 2.10823C23.6927 2.29004 23.7389 2.52016 23.7389 2.79857V4.87811H23.236V2.83266C23.236 2.57556 23.1693 2.37527 23.0358 2.23181C22.9022 2.08692 22.719 2.01448 22.486 2.01448C22.3255 2.01448 22.1821 2.04928 22.0556 2.11888C21.9306 2.18848 21.8319 2.29004 21.7595 2.42357C21.687 2.55709 21.6508 2.71902 21.6508 2.90936ZM3.8447 8.60539C3.81914 8.38948 3.71544 8.22186 3.53362 8.10254C3.35181 7.98323 3.1288 7.92357 2.86459 7.92357C2.67141 7.92357 2.50237 7.95482 2.35749 8.01732C2.21402 8.07982 2.10181 8.16575 2.02084 8.27513C1.9413 8.3845 1.90152 8.50879 1.90152 8.648C1.90152 8.76448 1.92922 8.86462 1.98462 8.94843C2.04144 9.03081 2.11388 9.0997 2.20195 9.1551C2.29002 9.20908 2.38235 9.25382 2.47894 9.28933C2.57553 9.32343 2.66431 9.35112 2.74527 9.37243L3.18845 9.49175C3.30209 9.52158 3.42851 9.56277 3.56772 9.61533C3.70834 9.66789 3.84257 9.73962 3.97041 9.83053C4.09968 9.92002 4.20621 10.0351 4.29002 10.1757C4.37382 10.3163 4.41573 10.4889 4.41573 10.6935C4.41573 10.9292 4.35394 11.1423 4.23036 11.3327C4.1082 11.523 3.92922 11.6743 3.69343 11.7865C3.45905 11.8987 3.17425 11.9548 2.83902 11.9548C2.52652 11.9548 2.25593 11.9044 2.02723 11.8035C1.79996 11.7027 1.62098 11.5621 1.4903 11.3817C1.36104 11.2013 1.28789 10.9917 1.27084 10.7531H1.8163C1.8305 10.9179 1.8859 11.0542 1.98249 11.1622C2.0805 11.2687 2.20408 11.3483 2.35323 11.4008C2.5038 11.452 2.66573 11.4775 2.83902 11.4775C3.04073 11.4775 3.22184 11.4449 3.38235 11.3795C3.54286 11.3128 3.66999 11.2204 3.76374 11.1025C3.85749 10.9832 3.90436 10.844 3.90436 10.6849C3.90436 10.54 3.86388 10.4221 3.78291 10.3312C3.70195 10.2403 3.59541 10.1665 3.46331 10.1096C3.33121 10.0528 3.18845 10.0031 3.03505 9.9605L2.49811 9.80709C2.1572 9.70908 1.88732 9.56916 1.68845 9.38735C1.48959 9.20553 1.39016 8.9676 1.39016 8.67357C1.39016 8.42925 1.45621 8.21618 1.58831 8.03436C1.72184 7.85112 1.90081 7.70908 2.12524 7.60823C2.3511 7.50595 2.60323 7.45482 2.88164 7.45482C3.16289 7.45482 3.41289 7.50524 3.63164 7.6061C3.85039 7.70553 4.02368 7.84189 4.15152 8.01519C4.28078 8.18848 4.34897 8.38521 4.35607 8.60539H3.8447ZM6.54588 11.9463C6.25042 11.9463 5.99119 11.876 5.76818 11.7354C5.54659 11.5947 5.37329 11.398 5.24829 11.1452C5.12471 10.8923 5.06292 10.5969 5.06292 10.2588C5.06292 9.91789 5.12471 9.6203 5.24829 9.36604C5.37329 9.11178 5.54659 8.91433 5.76818 8.77371C5.99119 8.63308 6.25042 8.56277 6.54588 8.56277C6.84133 8.56277 7.09985 8.63308 7.32144 8.77371C7.54446 8.91433 7.71775 9.11178 7.84133 9.36604C7.96633 9.6203 8.02883 9.91789 8.02883 10.2588C8.02883 10.5969 7.96633 10.8923 7.84133 11.1452C7.71775 11.398 7.54446 11.5947 7.32144 11.7354C7.09985 11.876 6.84133 11.9463 6.54588 11.9463ZM6.54588 11.4946C6.77031 11.4946 6.95497 11.4371 7.09985 11.322C7.24474 11.2069 7.35198 11.0557 7.42159 10.8682C7.49119 10.6807 7.52599 10.4775 7.52599 10.2588C7.52599 10.04 7.49119 9.83621 7.42159 9.64729C7.35198 9.45837 7.24474 9.30567 7.09985 9.18919C6.95497 9.07271 6.77031 9.01448 6.54588 9.01448C6.32144 9.01448 6.13679 9.07271 5.9919 9.18919C5.84701 9.30567 5.73977 9.45837 5.67017 9.64729C5.60056 9.83621 5.56576 10.04 5.56576 10.2588C5.56576 10.4775 5.60056 10.6807 5.67017 10.8682C5.73977 11.0557 5.84701 11.2069 5.9919 11.322C6.13679 11.4371 6.32144 11.4946 6.54588 11.4946ZM9.29925 7.51448V11.8781H8.79641V7.51448H9.29925ZM12.2827 10.54V8.60539H12.7856V11.8781H12.2827V11.3241H12.2486C12.1719 11.4903 12.0526 11.6317 11.8907 11.7481C11.7288 11.8632 11.5242 11.9207 11.2771 11.9207C11.0725 11.9207 10.8907 11.876 10.7316 11.7865C10.5725 11.6956 10.4475 11.5592 10.3566 11.3774C10.2657 11.1942 10.2202 10.9633 10.2202 10.6849V8.60539H10.7231V10.6508C10.7231 10.8895 10.7898 11.0798 10.9234 11.2219C11.0583 11.3639 11.2302 11.4349 11.439 11.4349C11.564 11.4349 11.6911 11.403 11.8204 11.3391C11.9511 11.2751 12.0604 11.1771 12.1485 11.045C12.238 10.9129 12.2827 10.7446 12.2827 10.54ZM15.1299 8.60539V9.03152H13.4338V8.60539H15.1299ZM13.9282 7.82129H14.431V10.9406C14.431 11.0827 14.4516 11.1892 14.4928 11.2602C14.5354 11.3298 14.5894 11.3767 14.6547 11.4008C14.7215 11.4236 14.7918 11.4349 14.8657 11.4349C14.9211 11.4349 14.9665 11.4321 15.002 11.4264C15.0375 11.4193 15.0659 11.4136 15.0872 11.4094L15.1895 11.8611C15.1554 11.8739 15.1078 11.8866 15.0468 11.8994C14.9857 11.9136 14.9083 11.9207 14.8145 11.9207C14.6725 11.9207 14.5333 11.8902 14.3969 11.8291C14.262 11.768 14.1497 11.675 14.0603 11.55C13.9722 11.425 13.9282 11.2673 13.9282 11.077V7.82129ZM15.8863 11.8781V8.60539H16.3891V11.8781H15.8863ZM16.1419 8.05993C16.0439 8.05993 15.9594 8.02655 15.8884 7.95979C15.8188 7.89303 15.784 7.81277 15.784 7.71902C15.784 7.62527 15.8188 7.54502 15.8884 7.47825C15.9594 7.41149 16.0439 7.37811 16.1419 7.37811C16.2399 7.37811 16.3238 7.41149 16.3934 7.47825C16.4644 7.54502 16.4999 7.62527 16.4999 7.71902C16.4999 7.81277 16.4644 7.89303 16.3934 7.95979C16.3238 8.02655 16.2399 8.05993 16.1419 8.05993ZM18.6396 11.9463C18.3442 11.9463 18.0849 11.876 17.8619 11.7354C17.6403 11.5947 17.467 11.398 17.342 11.1452C17.2185 10.8923 17.1567 10.5969 17.1567 10.2588C17.1567 9.91789 17.2185 9.6203 17.342 9.36604C17.467 9.11178 17.6403 8.91433 17.8619 8.77371C18.0849 8.63308 18.3442 8.56277 18.6396 8.56277C18.9351 8.56277 19.1936 8.63308 19.4152 8.77371C19.6382 8.91433 19.8115 9.11178 19.9351 9.36604C20.0601 9.6203 20.1226 9.91789 20.1226 10.2588C20.1226 10.5969 20.0601 10.8923 19.9351 11.1452C19.8115 11.398 19.6382 11.5947 19.4152 11.7354C19.1936 11.876 18.9351 11.9463 18.6396 11.9463ZM18.6396 11.4946C18.8641 11.4946 19.0487 11.4371 19.1936 11.322C19.3385 11.2069 19.4457 11.0557 19.5153 10.8682C19.5849 10.6807 19.6197 10.4775 19.6197 10.2588C19.6197 10.04 19.5849 9.83621 19.5153 9.64729C19.4457 9.45837 19.3385 9.30567 19.1936 9.18919C19.0487 9.07271 18.8641 9.01448 18.6396 9.01448C18.4152 9.01448 18.2305 9.07271 18.0856 9.18919C17.9408 9.30567 17.8335 9.45837 17.7639 9.64729C17.6943 9.83621 17.6595 10.04 17.6595 10.2588C17.6595 10.4775 17.6943 10.6807 17.7639 10.8682C17.8335 11.0557 17.9408 11.2069 18.0856 11.322C18.2305 11.4371 18.4152 11.4946 18.6396 11.4946ZM21.393 9.90936V11.8781H20.8902V8.60539H21.376V9.11675H21.4186C21.4953 8.95056 21.6117 8.81703 21.768 8.71618C21.9242 8.61391 22.126 8.56277 22.3731 8.56277C22.5947 8.56277 22.7886 8.60823 22.9548 8.69914C23.121 8.78862 23.2502 8.92499 23.3426 9.10823C23.4349 9.29004 23.4811 9.52016 23.4811 9.79857V11.8781H22.9782V9.83266C22.9782 9.57556 22.9115 9.37527 22.7779 9.23181C22.6444 9.08692 22.4612 9.01448 22.2282 9.01448C22.0677 9.01448 21.9242 9.04928 21.7978 9.11888C21.6728 9.18848 21.5741 9.29004 21.5017 9.42357C21.4292 9.55709 21.393 9.71902 21.393 9.90936Z" fill="white"/>
</svg>
