<svg width="33" height="33" viewBox="0 0 33 33" fill="none" xmlns="http://www.w3.org/2000/svg">
<line x1="0.727273" y1="-0.727273" x2="21.0909" y2="-0.727273" transform="matrix(4.37115e-08 1 1 -4.37115e-08 12.4331 5.59094)" stroke="white" stroke-width="1.45455" stroke-linecap="round" stroke-linejoin="round"/>
<line x1="0.727273" y1="-0.727273" x2="5.09091" y2="-0.727273" transform="matrix(1 0 0 -1 8.79639 5.59094)" stroke="white" stroke-width="1.45455" stroke-linecap="round" stroke-linejoin="round"/>
<line x1="0.727273" y1="-0.727273" x2="5.09091" y2="-0.727273" transform="matrix(1 0 0 -1 8.79639 25.9546)" stroke="white" stroke-width="1.45455" stroke-linecap="round" stroke-linejoin="round"/>
<path d="M23.3424 11.4091H24.7969C25.6002 11.4091 26.2515 12.0603 26.2515 12.8636V20.1364C26.2515 20.9397 25.6002 21.5909 24.7969 21.5909H14.9787" stroke="white" stroke-width="1.45455" stroke-linecap="round" stroke-linejoin="round"/>
<path d="M11.7059 21.5909L7.34224 21.5909C6.53892 21.5909 5.8877 20.9397 5.8877 20.1364L5.88769 12.8636C5.88769 12.0603 6.53892 11.4091 7.34224 11.4091L11.7059 11.4091" stroke="white" stroke-width="1.45455" stroke-linecap="round" stroke-linejoin="round"/>
<path opacity="0.7" d="M20.0693 4.86365L18.9634 7.75773L16.0693 8.86365L18.9634 9.96956L20.0693 12.8636L21.1753 9.96956L24.0693 8.86365L21.1753 7.75773L20.0693 4.86365Z" stroke="white" stroke-width="1.45455" stroke-linecap="round" stroke-linejoin="round"/>
<g opacity="0.7">
<line x1="16.7966" y1="14.3182" x2="16.7966" y2="18.6818" stroke="white" stroke-width="1.45455" stroke-linecap="round" stroke-linejoin="round"/>
<line x1="18.9788" y1="16.5" x2="14.6151" y2="16.5" stroke="white" stroke-width="1.45455" stroke-linecap="round" stroke-linejoin="round"/>
</g>
</svg>
