<svg viewBox="0 0 24 24" fill="none" xmlns="http://www.w3.org/2000/svg">
<path d="M18 15.8369C19.4559 16.5683 20.7041 17.742 21.6152 19.2096C21.7957 19.5003 21.8859 19.6456 21.9171 19.8468C21.9805 20.2558 21.7008 20.7585 21.3199 20.9204C21.1325 21 20.9217 21 20.5 21M16 11.5322C17.4817 10.7959 18.5 9.26686 18.5 7.5C18.5 5.73314 17.4817 4.20411 16 3.46776M14 7.5C14 9.98528 11.9853 12 9.5 12C7.01472 12 5 9.98528 5 7.5C5 5.01472 7.01472 3 9.5 3C11.9853 3 14 5.01472 14 7.5ZM2.55923 18.9383C4.15354 16.5446 6.66937 15 9.5 15C12.3306 15 14.8465 16.5446 16.4408 18.9383C16.79 19.4628 16.9647 19.725 16.9446 20.0599C16.9289 20.3207 16.758 20.64 16.5496 20.7976C16.2819 21 15.9138 21 15.1776 21H3.82236C3.08617 21 2.71808 21 2.45044 20.7976C2.24205 20.64 2.07109 20.3207 2.05543 20.0599C2.03533 19.725 2.20996 19.4628 2.55923 18.9383Z" stroke="#000000" stroke-width="2" stroke-linecap="round" stroke-linejoin="round"/>
</svg>
