<svg width="33" height="33" viewBox="0 0 33 33" fill="none" xmlns="http://www.w3.org/2000/svg">
<path opacity="0.7" d="M18.731 6.5H8.39986C7.59653 6.5 6.94531 7.15122 6.94531 7.95454V12.0804M26.9453 20.4286V25.0455C26.9453 25.8488 26.2941 26.5 25.4908 26.5H9.08817H8.39986C7.59653 26.5 6.94531 25.8488 6.94531 25.0455V21" stroke="white" stroke-width="1.45455" stroke-linecap="round" stroke-linejoin="round"/>
<path opacity="0.7" d="M24.4453 5.5L25.413 8.03232L27.9453 9L25.413 9.96768L24.4453 12.5L23.4776 9.96768L20.9453 9L23.4776 8.03232L24.4453 5.5Z" stroke="white" stroke-width="1.45455" stroke-linecap="round" stroke-linejoin="round"/>
<g opacity="0.7">
<line x1="26.4001" y1="13.5909" x2="26.4001" y2="17.9545" stroke="white" stroke-width="1.45455" stroke-linecap="round" stroke-linejoin="round"/>
<line x1="28.5823" y1="15.7727" x2="24.2187" y2="15.7727" stroke="white" stroke-width="1.45455" stroke-linecap="round" stroke-linejoin="round"/>
</g>
<path d="M6.94531 14.8636L6.94531 18.2922" stroke="white" stroke-width="1.5" stroke-linecap="round"/>
<path d="M9.94531 12.5L9.94531 20.5" stroke="white" stroke-width="1.5" stroke-linecap="round"/>
<path d="M12.9453 13.5L12.9453 19.5" stroke="white" stroke-width="1.5" stroke-linecap="round"/>
<path d="M15.9453 10.5L15.9453 22.5" stroke="white" stroke-width="1.5" stroke-linecap="round"/>
<path d="M18.9453 13.5L18.9453 19.5" stroke="white" stroke-width="1.5" stroke-linecap="round"/>
<path d="M21.9453 15.5L21.9453 17.5" stroke="white" stroke-width="1.5" stroke-linecap="round"/>
</svg>
