<svg width="33" height="32" viewBox="0 0 33 32" fill="none" xmlns="http://www.w3.org/2000/svg">
<path d="M23.3338 25.4112C24.2236 25.4112 24.9449 24.6899 24.9449 23.8001C24.9449 22.9103 24.2236 22.189 23.3338 22.189C22.444 22.189 21.7227 22.9103 21.7227 23.8001C21.7227 24.6899 22.444 25.4112 23.3338 25.4112Z" stroke="white" stroke-width="1.5" stroke-miterlimit="10" stroke-linecap="round" stroke-linejoin="round"/>
<path d="M23.3338 9.62225C24.2236 9.62225 24.9449 8.90093 24.9449 8.01114C24.9449 7.12134 24.2236 6.40002 23.3338 6.40002C22.444 6.40002 21.7227 7.12134 21.7227 8.01114C21.7227 8.90093 22.444 9.62225 23.3338 9.62225Z" stroke="white" stroke-width="1.5" stroke-miterlimit="10" stroke-linecap="round" stroke-linejoin="round"/>
<path d="M17.0508 20.7389H20.273L22.1949 22.6608" stroke="white" stroke-width="1.5" stroke-miterlimit="10" stroke-linecap="round" stroke-linejoin="round"/>
<path d="M17.0508 11.0722H20.273L22.1949 9.15027" stroke="white" stroke-width="1.5" stroke-miterlimit="10" stroke-linecap="round" stroke-linejoin="round"/>
<path d="M23.1728 15.9055C23.1728 16.7953 23.8941 17.5167 24.7839 17.5167C25.6737 17.5167 26.395 16.7953 26.395 15.9055C26.395 15.0158 25.6737 14.2944 24.7839 14.2944C23.8941 14.2944 23.1728 15.0158 23.1728 15.9055ZM23.1728 15.9055H15.4395" stroke="white" stroke-opacity="0.7" stroke-width="1.5" stroke-miterlimit="10" stroke-linecap="round" stroke-linejoin="round"/>
<path d="M12.6709 21.7458C12.3854 22.1426 12.2173 22.6295 12.2173 23.1556C12.2173 24.4903 13.2993 25.4111 14.634 25.4111C15.9686 25.4111 17.0506 24.3292 17.0506 22.9945V8.81669C17.0506 7.48201 15.9686 6.40002 14.634 6.40002C13.2993 6.40002 12.2173 7.3209 12.2173 8.65558C12.2173 9.18169 12.3854 9.66853 12.6709 10.0653" stroke="white" stroke-width="1.5" stroke-miterlimit="10" stroke-linecap="round" stroke-linejoin="round"/>
<path d="M12.3536 7.85284C12.3084 7.85086 12.2628 7.84998 12.2171 7.84998C10.4376 7.84998 8.9949 9.29252 8.9949 11.0722C8.9949 11.3852 9.03953 11.6879 9.12282 11.974C8.11797 12.267 7.38379 13.195 7.38379 14.2944C7.38379 14.2945 7.38379 14.2946 7.38379 14.2947C7.38391 15.1845 8.10516 15.9055 8.9949 15.9055M8.9949 15.9055H10.606M8.9949 15.9055C8.10524 15.9055 7.38391 16.6267 7.38379 17.5163C7.38379 17.5164 7.38379 17.5165 7.38379 17.5166C7.38379 18.616 8.11797 19.544 9.12282 19.8369C9.03953 20.1232 8.9949 20.4258 8.9949 20.7389C8.9949 22.5184 10.4376 23.9611 12.2171 23.9611C12.2628 23.9611 12.3084 23.9601 12.3536 23.9582" stroke="white" stroke-width="1.5" stroke-miterlimit="10" stroke-linecap="round" stroke-linejoin="round"/>
</svg>
