<svg width="33" height="32" viewBox="0 0 33 32" fill="none" xmlns="http://www.w3.org/2000/svg">
<path d="M23.5514 12.5876C23.2577 10.7576 21.6634 9.35272 19.7518 9.35272C19.3809 9.35272 19.0113 9.40665 18.6573 9.51136C17.4951 8.01492 15.4879 7.22954 13.4491 7.5299C10.6967 7.93372 8.69201 10.1682 8.70204 12.6707C7.34072 13.2808 6.43652 14.6419 6.43652 16.1784C6.43652 18.1088 7.86681 19.7071 9.72224 19.9805C9.69497 19.7379 9.67772 19.4924 9.67772 19.2425C9.67772 18.9531 9.70312 18.67 9.7398 18.39C8.74499 18.1448 8.00414 17.2475 8.00414 16.1781C8.00414 15.1331 8.70894 14.2255 9.71817 13.9706C10.1072 13.8725 10.3593 13.4956 10.3019 13.0984C10.0267 11.1969 11.5407 9.39442 13.677 9.08058C13.8915 9.04892 14.105 9.03387 14.3163 9.03387C15.7297 9.03387 17.0305 9.72236 17.6769 10.8586C17.8842 11.2226 18.341 11.3593 18.7153 11.1686C19.037 11.004 19.386 10.9203 19.7522 10.9203C21.0047 10.9203 22.0277 11.9374 22.0324 13.1871C22.034 13.5546 22.2901 13.8718 22.6494 13.9499C23.7047 14.1797 24.4418 15.0961 24.4418 16.1781C24.4418 17.2475 23.701 18.1448 22.7062 18.39C22.7428 18.6697 22.7682 18.9528 22.7682 19.2425C22.7682 19.4924 22.751 19.7379 22.7237 19.9805C24.5792 19.7068 26.0094 18.1088 26.0094 16.1784C26.0091 14.5541 25.024 13.151 23.5514 12.5876Z" fill="white"/>
<path d="M16.2232 13.9551C15.8792 13.9551 15.5369 13.9893 15.2011 14.0555C15.429 13.7432 15.3638 13.3055 15.0531 13.0741C14.7399 12.8415 14.2985 12.9064 14.0661 13.2187L12.8497 14.8524C12.7315 15.0114 12.6854 15.2127 12.7227 15.4071C12.7603 15.6015 12.8776 15.7714 13.0462 15.8748L14.7932 16.9471C14.9083 17.0179 15.0356 17.0515 15.1616 17.0515C15.3986 17.0515 15.6303 16.9317 15.7632 16.7151C15.967 16.3831 15.8633 15.9485 15.5312 15.7447L15.3441 15.6297C15.6287 15.5604 15.9219 15.5221 16.2229 15.5221C18.2749 15.5221 19.9444 17.1916 19.9444 19.2436C19.9444 19.8895 19.7842 20.5018 19.4675 21.0646C19.133 21.6612 18.6401 22.1541 18.0426 22.4892C17.4807 22.8053 16.8684 22.9655 16.2225 22.9655C14.1705 22.9655 12.501 21.296 12.501 19.244C12.501 18.6737 12.6258 18.131 12.8719 17.6306C13.0629 17.2421 12.903 16.7725 12.5145 16.5812C12.1261 16.3896 11.6564 16.5502 11.4652 16.9386C11.1121 17.6563 10.9331 18.4319 10.9331 19.2443C10.9331 22.1607 13.3058 24.5334 16.2222 24.5334C17.1277 24.5334 18.0225 24.2992 18.8097 23.8565C19.6584 23.3803 20.3582 22.6805 20.8338 21.8327C21.2772 21.0445 21.5114 20.1497 21.5114 19.2443C21.5123 16.3279 19.1396 13.9551 16.2232 13.9551Z" fill="white" fill-opacity="0.7"/>
</svg>
