<svg width="33" height="33" viewBox="0 0 33 33" fill="none" xmlns="http://www.w3.org/2000/svg">
<rect opacity="0.7" x="19.2178" y="11.3004" width="3.63636" height="17.8193" rx="0.727273" transform="rotate(45 19.2178 11.3004)" stroke="white" stroke-width="1.45455"/>
<rect x="23.0742" y="7.44421" width="3.63636" height="23.2727" rx="0.727273" transform="rotate(45 23.0742 7.44421)" stroke="white" stroke-width="1.45455"/>
<path opacity="0.7" d="M14.7811 5.84949C14.7176 5.61051 14.5012 5.44417 14.254 5.44417C14.0067 5.44417 13.7903 5.61051 13.7268 5.84949L13.2735 7.55464L11.5684 8.00793C11.3294 8.07146 11.163 8.2878 11.163 8.53508C11.163 8.78235 11.3294 8.99869 11.5684 9.06222L13.2735 9.51552L13.7268 11.2207C13.7903 11.4596 14.0067 11.626 14.254 11.626C14.5012 11.626 14.7176 11.4596 14.7811 11.2207L15.2344 9.51552L16.9395 9.06222C17.1785 8.99869 17.3449 8.78235 17.3449 8.53508C17.3449 8.2878 17.1785 8.07146 16.9395 8.00793L15.2344 7.55464L14.7811 5.84949Z" stroke="white" stroke-width="1.09091" stroke-linecap="round" stroke-linejoin="round"/>
<path opacity="0.7" d="M24.2097 16.6834C24.1236 16.4831 23.9266 16.3533 23.7085 16.3533C23.4905 16.3533 23.2934 16.4831 23.2074 16.6834L22.5283 18.264L20.9478 18.943C20.7475 19.0291 20.6176 19.2262 20.6176 19.4442C20.6176 19.6622 20.7475 19.8593 20.9478 19.9454L22.5283 20.6244L23.2074 22.205C23.2934 22.4053 23.4905 22.5351 23.7085 22.5351C23.9266 22.5351 24.1236 22.4053 24.2097 22.205L24.8888 20.6244L26.4693 19.9454C26.6696 19.8593 26.7994 19.6622 26.7994 19.4442C26.7994 19.2262 26.6696 19.0291 26.4693 18.943L24.8888 18.264L24.2097 16.6834Z" stroke="white" stroke-width="1.09091" stroke-linecap="round" stroke-linejoin="round"/>
<path opacity="0.7" fill-rule="evenodd" clip-rule="evenodd" d="M9.52677 13.8078C9.52677 13.5066 9.28256 13.2624 8.98131 13.2624C8.68007 13.2624 8.43586 13.5066 8.43586 13.8078V13.9169C8.43586 14.3242 8.43586 14.5279 8.35659 14.6835C8.28686 14.8203 8.17561 14.9316 8.03876 15.0013C7.88319 15.0806 7.67953 15.0806 7.27222 15.0806H7.16313C6.86188 15.0806 6.61768 15.3248 6.61768 15.626C6.61768 15.9273 6.86188 16.1715 7.16313 16.1715H7.27222C7.67953 16.1715 7.88319 16.1715 8.03876 16.2507C8.17561 16.3205 8.28686 16.4317 8.35659 16.5686C8.43586 16.7242 8.43586 16.9278 8.43586 17.3351V17.4442C8.43586 17.7455 8.68007 17.9897 8.98131 17.9897C9.28256 17.9897 9.52677 17.7455 9.52677 17.4442V17.3351C9.52677 16.9278 9.52677 16.7242 9.60604 16.5686C9.67576 16.4317 9.78702 16.3205 9.92387 16.2507C10.0794 16.1715 10.2831 16.1715 10.6904 16.1715H10.7995C11.1007 16.1715 11.3449 15.9273 11.3449 15.626C11.3449 15.3248 11.1007 15.0806 10.7995 15.0806H10.6904C10.2831 15.0806 10.0794 15.0806 9.92387 15.0013C9.78702 14.9316 9.67576 14.8203 9.60604 14.6835C9.52677 14.5279 9.52677 14.3242 9.52677 13.9169V13.8078Z" fill="white"/>
</svg>
