<svg width="33" height="33" viewBox="0 0 33 33" fill="none" xmlns="http://www.w3.org/2000/svg">
<circle cx="8.4512" cy="7.29874" r="2.13333" fill="white"/>
<circle cx="24.8067" cy="12.2765" r="2.13333" fill="white"/>
<circle cx="24.8067" cy="20.8098" r="2.13333" fill="white"/>
<circle cx="8.4512" cy="16.5432" r="2.13333" fill="white"/>
<circle cx="8.4512" cy="25.7876" r="2.13333" fill="white"/>
<path opacity="0.7" fill-rule="evenodd" clip-rule="evenodd" d="M11.6435 9.01374L17.1283 13.5446L22.1912 12.2239L22.1899 12.2235L22.1563 12.2133L22.1227 12.2031L22.0892 12.1929L22.0557 12.1827L22.0223 12.1725L21.9889 12.1623L21.9223 12.1421L21.7895 12.1017L21.7235 12.0815L21.6905 12.0715L21.6575 12.0615L21.6246 12.0515L21.5918 12.0415L21.559 12.0315L21.5262 12.0215L21.4608 12.0016L21.4282 11.9917L21.3956 11.9818L21.363 11.9718L21.3305 11.962L21.2656 11.9422L21.2332 11.9323L21.2008 11.9225L21.1685 11.9127L21.1363 11.9028L21.0075 11.8637L20.9754 11.8539L20.9434 11.8441L20.9114 11.8344L20.8794 11.8247L20.8475 11.8149L20.8156 11.8052L20.7519 11.7859L20.4986 11.7088L20.3728 11.6705L20.3101 11.6514L20.2788 11.6419L20.2475 11.6323L20.2162 11.6228L20.185 11.6133L20.1227 11.5944L20.0605 11.5754L20.0294 11.566L19.9984 11.5565L19.9674 11.5471L19.9365 11.5377L19.8746 11.5189L19.7513 11.4813L19.6898 11.4626L19.6591 11.4533L19.6284 11.4439L19.5671 11.4253L19.5365 11.416L19.5059 11.4066L19.4449 11.3881L19.4144 11.3788L19.3839 11.3695L19.3534 11.3602L19.323 11.351L19.2623 11.3325L19.0201 11.2588L18.8996 11.2221L18.7794 11.1855L18.6595 11.149L18.5997 11.1308L18.54 11.1127L18.5101 11.1036L18.4803 11.0945L18.4505 11.0854L18.4207 11.0764L18.3909 11.0673L18.3612 11.0582L18.3314 11.0492L18.3017 11.0401L18.0644 10.9679L18.0053 10.9499L17.9462 10.9319L17.8871 10.914L17.8281 10.896L17.7691 10.8781L17.7102 10.8601L17.6808 10.8512L17.6513 10.8422L17.5925 10.8243L17.5631 10.8154L17.5337 10.8064L17.5043 10.7975L17.475 10.7885L17.4456 10.7796L17.4163 10.7707L17.3576 10.7528L17.2989 10.735L17.2403 10.7171L17.1231 10.6815L17.0939 10.6725L17.0646 10.6636L17.0353 10.6547L17.0061 10.6458L16.9768 10.6369L16.9476 10.628L16.9183 10.6191L16.8891 10.6102L16.6553 10.5391L16.5969 10.5213L16.5677 10.5124L16.5385 10.5035L16.4801 10.4857L16.4217 10.468L16.3633 10.4502L16.3049 10.4324L16.2756 10.4235L16.2464 10.4146L16.188 10.3968L16.1588 10.388L16.1296 10.3791L16.1004 10.3702L16.0711 10.3613L15.9542 10.3257L15.925 10.3168L15.8958 10.3079L15.8665 10.299L15.8373 10.2901L15.808 10.2812L15.7787 10.2723L15.7495 10.2634L15.7202 10.2545L15.4858 10.1831L15.4564 10.1742L15.4271 10.1653L15.3977 10.1563L15.3684 10.1474L15.339 10.1385L15.3096 10.1295L15.2802 10.1206L15.2508 10.1116L15.1331 10.0758L15.1037 10.0668L15.0742 10.0579L15.0153 10.0399L14.8972 10.004L14.8676 9.99499L14.8381 9.98599L14.8085 9.97699L14.7789 9.96799L14.7197 9.94996L14.6604 9.93192L14.6011 9.91386L14.5714 9.90482L14.5416 9.89578L13.5811 9.60344L13.5203 9.58494L13.4899 9.57568L13.4595 9.56642L13.3374 9.52927L13.3068 9.51997L13.2762 9.51066L13.215 9.492L13.1843 9.48267L13.1536 9.47332L13.1228 9.46397L13.0921 9.4546L13.0613 9.44523L13.0305 9.43585L12.9996 9.42646L12.9687 9.41707L12.9378 9.40766L12.9069 9.39824L12.8759 9.38882L12.8449 9.37939L12.8139 9.36994L12.7828 9.36049L12.7518 9.35103L12.7206 9.34156L12.5959 9.30358L12.4706 9.26545L12.4392 9.25589L12.4077 9.24632L12.3762 9.23674L12.3447 9.22715L12.3132 9.21756L12.2816 9.20794L12.2184 9.18869L12.1867 9.17905L12.155 9.1694L12.1232 9.15974L12.0914 9.15006L12.0596 9.14038L12.0277 9.13068L11.9958 9.12097L11.9639 9.11125L11.8358 9.07226L11.7715 9.0527L11.7393 9.0429L11.7071 9.03309L11.6748 9.02327L11.6435 9.01374ZM18.525 16.5432L16.7834 15.1044L11.2681 16.5432L16.7834 17.982L18.525 16.5432ZM19.6416 17.4656L18.4805 18.4247L21.8744 19.3101L19.6416 17.4656ZM15.4311 19.099L8.27144 17.2313L8.45094 16.5432L8.27144 15.8551L15.4311 13.9874L7.99805 7.84701L8.45094 7.29877L8.65799 6.61847L8.69538 6.62985L8.73271 6.64121L8.76998 6.65255L8.80718 6.66387L8.88139 6.68646L8.91841 6.69773L8.95536 6.70897L8.99225 6.7202L9.02907 6.73141L9.10254 6.75377L9.17576 6.77605L9.21228 6.78717L9.24874 6.79826L9.53827 6.88638L9.61007 6.90823L9.68164 6.93001L9.71733 6.94088L9.75297 6.95172L9.78856 6.96255L9.82408 6.97337L9.85955 6.98416L9.89497 6.99494L9.93033 7.0057L9.96563 7.01645L10.0009 7.02717L10.0361 7.03788L10.0712 7.04858L10.1063 7.05926L10.1413 7.06992L10.1763 7.08056L10.2112 7.09119L10.2461 7.1018L10.385 7.14409L10.4196 7.15462L10.4542 7.16514L10.4887 7.17564L10.5231 7.18613L10.6604 7.22791L10.6946 7.23832L10.7288 7.24871L10.7969 7.26945L10.8649 7.29013L10.8988 7.30045L10.9326 7.31075L11.2017 7.39265L11.2352 7.40283L11.2685 7.41299L11.3019 7.42313L11.3352 7.43326L11.4016 7.45349L11.4348 7.46358L11.4679 7.47366L11.501 7.48372L11.534 7.49377L11.567 7.50381L11.5999 7.51383L11.6328 7.52384L11.6656 7.53384L11.6984 7.54383L11.7312 7.5538L11.9918 7.63312L12.0242 7.64298L12.0566 7.65283L12.1212 7.67249L12.1534 7.6823L12.1856 7.6921L12.2178 7.70188L12.2499 7.71166L12.378 7.75065L12.4099 7.76037L12.4418 7.77008L12.5055 7.78946L12.5373 7.79913L12.5691 7.8088L12.6008 7.81845L12.6325 7.82809L12.6957 7.84734L12.7273 7.85695L12.7588 7.86655L12.7903 7.87614L12.8218 7.88572L12.8847 7.90485L12.916 7.9144L12.9474 7.92393L13.01 7.94298L13.1347 7.98096L13.1659 7.99043L13.1969 7.99989L13.228 8.00934L13.259 8.01878L13.3828 8.05646L13.5062 8.094L13.5369 8.10336L13.5677 8.11272L13.5984 8.12206L13.6291 8.1314L13.6903 8.15005L13.7209 8.15937L13.7515 8.16867L13.7821 8.17797L13.8126 8.18726L13.8431 8.19654L13.8735 8.20581L13.904 8.21508L13.9344 8.22434L13.9648 8.23359L13.9952 8.24283L14.478 8.38979L14.508 8.39892L14.538 8.40804L14.5979 8.42627L14.6278 8.43537L14.6577 8.44447L14.6876 8.45357L14.7175 8.46266L14.9557 8.53518L14.9855 8.54422L15.0152 8.55326L15.0745 8.57132L15.1041 8.58034L15.1338 8.58936L15.1634 8.59837L15.193 8.60738L15.4293 8.67932L15.4588 8.68829L15.4883 8.69726L15.5178 8.70623L15.5472 8.71519L15.6649 8.75102L15.8999 8.82252L15.9292 8.83144L15.9585 8.84037L16.0171 8.85821L16.0757 8.87604L16.105 8.88495L16.1343 8.89387L16.1636 8.90277L16.1928 8.91168L16.2221 8.92059L16.2514 8.92949L16.2806 8.9384L16.3098 8.9473L16.3391 8.9562L16.3683 8.96509L16.4268 8.98289L16.4852 9.00068L16.5145 9.00957L16.5437 9.01846L16.6021 9.03625L16.6313 9.04514L16.6605 9.05403L16.7189 9.0718L16.7774 9.08958L16.8066 9.09847L16.8358 9.10736L16.865 9.11625L16.8942 9.12513L16.9526 9.14291L16.9818 9.1518L17.011 9.16069L17.0402 9.16958L17.0694 9.17847L17.1863 9.21404L17.2447 9.23183L17.274 9.24072L17.3032 9.24962L17.4202 9.28522L17.4494 9.29413L17.4787 9.30303L17.508 9.31194L17.5372 9.32085L17.5665 9.32976L17.5958 9.33867L17.6544 9.35651L17.6837 9.36543L17.713 9.37435L17.7423 9.38327L17.7717 9.3922L18.0066 9.4637L18.036 9.47265L18.0654 9.4816L18.1243 9.49952L18.2422 9.5354L18.4785 9.60733L18.5378 9.62536L18.5674 9.63437L18.597 9.6434L18.6564 9.66146L18.6861 9.6705L18.7158 9.67954L18.7455 9.68858L18.7753 9.69764L18.805 9.70669L18.8348 9.71576L18.8944 9.7339L18.9541 9.75206L18.9839 9.76115L19.0138 9.77024L19.0736 9.78845L19.1935 9.82493L19.2536 9.84321L19.2836 9.85235L19.3137 9.86151L19.3438 9.87067L19.3739 9.87984L19.4041 9.88901L19.4342 9.89819L19.4644 9.90738L19.4946 9.91657L19.5248 9.92577L19.5551 9.93498L19.6764 9.97188L19.92 10.046L19.9506 10.0553L19.9812 10.0647L20.0425 10.0833L20.0732 10.0927L20.1039 10.102L20.1654 10.1207L20.227 10.1395L20.2887 10.1583L20.4125 10.1959L20.5368 10.2338L20.5991 10.2527L20.6303 10.2622L20.6616 10.2717L22.7389 10.904L22.8746 10.9453L22.9428 10.966L23.0111 10.9868L23.0453 10.9972L23.0796 11.0077L23.114 11.0181L23.1484 11.0286L23.1828 11.0391L23.2173 11.0496L23.2865 11.0706L23.3559 11.0917L23.4254 11.1129L23.4952 11.1342L23.5652 11.1555L23.6003 11.1661L23.6355 11.1768L23.7059 11.1983L23.7412 11.209L23.7766 11.2198L23.812 11.2306L23.8475 11.2413L23.883 11.2522L23.9186 11.263L23.9542 11.2738L23.9899 11.2847L24.0257 11.2956L24.0615 11.3065L24.1333 11.3283L24.2053 11.3503L24.2414 11.3612L24.2775 11.3722L24.3138 11.3833L24.3501 11.3943L24.3864 11.4054L24.4228 11.4165L24.4592 11.4275L24.4958 11.4387L24.5324 11.4498L24.569 11.4609L24.7162 11.5057L25.0135 11.5962L24.8065 12.2765L25.2594 12.8248L20.7581 16.5432L25.2594 20.2616L24.8065 20.8099L25.0135 21.4902L8.65799 26.468L8.45094 25.7877L7.99805 25.2394L15.4311 19.099ZM11.6435 24.0727L17.1283 19.5418L22.1912 20.8625L11.6435 24.0727ZM21.8744 13.7764L19.6416 15.6208L18.4805 14.6617L21.8744 13.7764Z" fill="white"/>
</svg>
