<svg width="33" height="33" viewBox="0 0 33 33" fill="none" xmlns="http://www.w3.org/2000/svg">
<path opacity="0.7" fill-rule="evenodd" clip-rule="evenodd" d="M5.6281 5.87653C5.23537 5.87653 4.91699 6.1949 4.91699 6.58764V8.00986V26.4987C4.91699 26.8915 5.23537 27.2099 5.6281 27.2099H18.4281C18.8208 27.2099 19.1392 26.8915 19.1392 26.4987V8.00986C19.1392 7.61712 18.8208 7.29875 18.4281 7.29875H11.317V6.58764C11.317 6.1949 10.9986 5.87653 10.6059 5.87653H5.6281ZM10.605 8.72097C10.6053 8.72097 10.6056 8.72097 10.6059 8.72097C10.6062 8.72097 10.6064 8.72097 10.6067 8.72097H17.717V25.7876H6.33921V8.72097H10.605ZM6.33921 6.94319C6.33921 6.74682 6.4984 6.58764 6.69476 6.58764H9.53921C9.73558 6.58764 9.89476 6.74682 9.89476 6.94319C9.89476 7.13956 9.73558 7.29875 9.53921 7.29875H6.69476C6.4984 7.29875 6.33921 7.13956 6.33921 6.94319Z" fill="white"/>
<path fill-rule="evenodd" clip-rule="evenodd" d="M10.6066 11.5654C10.2139 11.5654 9.89551 11.8837 9.89551 12.2765V13.6987V22.9431C9.89551 23.3359 10.2139 23.6543 10.6066 23.6543H26.9622C27.3549 23.6543 27.6733 23.3359 27.6733 22.9431V13.6987C27.6733 13.306 27.3549 12.9876 26.9622 12.9876H16.2955V12.2765C16.2955 11.8837 15.9771 11.5654 15.5844 11.5654H10.6066ZM11.3177 14.4098V22.232H26.2511V14.4098H15.5854C15.5851 14.4098 15.5847 14.4098 15.5844 14.4098L11.3177 14.4098ZM11.3173 12.6321C11.3173 12.4357 11.4765 12.2765 11.6729 12.2765H14.5173C14.7137 12.2765 14.8729 12.4357 14.8729 12.6321C14.8729 12.8284 14.7137 12.9876 14.5173 12.9876H11.6729C11.4765 12.9876 11.3173 12.8284 11.3173 12.6321Z" fill="white"/>
</svg>
