<svg width="33" height="33" viewBox="0 0 33 33" fill="none" xmlns="http://www.w3.org/2000/svg">
<path d="M29.1716 12.2581L17.1284 5.77345C16.6211 5.50029 16.0105 5.50029 15.5032 5.77346L3.46018 12.2581M29.1716 12.2581L17.1284 18.7428C16.6211 19.016 16.0105 19.016 15.5032 18.7428L3.46018 12.2581M29.1716 12.2581L17.1284 18.7428C16.6211 19.016 16.0105 19.016 15.5032 18.7428L3.46018 12.2581" stroke="#FACA2A" stroke-width="1.75" stroke-linejoin="round"/>
<path opacity="0.7" d="M29.1716 16.5432L17.1284 23.028C16.6211 23.3012 16.0105 23.3012 15.5032 23.028L3.46018 16.5433" stroke="#FACA2A" stroke-width="1.75" stroke-linecap="round" stroke-linejoin="round"/>
<path opacity="0.7" d="M29.1716 20.8284L17.1284 27.3132C16.6211 27.5864 16.0105 27.5864 15.5032 27.3132L3.46018 20.8285" stroke="#FACA2A" stroke-width="1.75" stroke-linecap="round" stroke-linejoin="round"/>
</svg>
