<svg width="33" height="32" viewBox="0 0 33 32" fill="none" xmlns="http://www.w3.org/2000/svg">
<path d="M11.085 16.0004V12.4758C11.0954 11.7829 11.2425 11.099 11.5178 10.4631C11.793 9.82721 12.191 9.25188 12.689 8.77008C13.187 8.28828 13.7752 7.90948 14.4198 7.65538C15.0644 7.40128 15.7529 7.27688 16.4456 7.2893V7.2893C17.1384 7.27688 17.8269 7.40128 18.4715 7.65538C19.1161 7.90948 19.7043 8.28828 20.2023 8.77008C20.7003 9.25188 21.0983 9.82721 21.3735 10.4631C21.6488 11.099 21.7959 11.7829 21.8063 12.4758V16.0004" stroke="white" stroke-opacity="0.7" stroke-width="1.5" stroke-linecap="round" stroke-linejoin="round"/>
<path d="M9.07455 13.9901H10.4147C10.5924 13.9901 10.7629 14.0607 10.8885 14.1864C11.0142 14.312 11.0848 14.4825 11.0848 14.6602V18.6807C11.0848 18.8584 11.0142 19.0289 10.8885 19.1545C10.7629 19.2802 10.5924 19.3508 10.4147 19.3508H9.07455C8.71911 19.3508 8.37823 19.2096 8.1269 18.9583C7.87557 18.7069 7.73438 18.3661 7.73438 18.0106V15.3303C7.73438 14.9748 7.87557 14.634 8.1269 14.3826C8.37823 14.1313 8.71911 13.9901 9.07455 13.9901V13.9901Z" stroke="white" stroke-width="1.5" stroke-linecap="round" stroke-linejoin="round"/>
<path d="M23.8166 19.3508H22.4764C22.2987 19.3508 22.1282 19.2802 22.0026 19.1546C21.8769 19.0289 21.8063 18.8585 21.8063 18.6807V14.6602C21.8063 14.4825 21.8769 14.3121 22.0026 14.1864C22.1282 14.0607 22.2987 13.9901 22.4764 13.9901H23.8166C24.172 13.9901 24.5129 14.1313 24.7642 14.3827C25.0155 14.634 25.1567 14.9749 25.1567 15.3303V18.0107C25.1567 18.3661 25.0155 18.707 24.7642 18.9583C24.5129 19.2096 24.172 19.3508 23.8166 19.3508V19.3508Z" stroke="white" stroke-width="1.5" stroke-linecap="round" stroke-linejoin="round"/>
<path d="M19.1258 23.0363C19.8367 23.0363 20.5184 22.7539 21.0211 22.2512C21.5238 21.7486 21.8062 21.0668 21.8062 20.356V17.3406M19.1258 23.0363C19.1258 23.4806 18.9493 23.9067 18.6352 24.2209C18.321 24.535 17.8949 24.7115 17.4506 24.7115H15.4404C14.9961 24.7115 14.57 24.535 14.2558 24.2209C13.9416 23.9067 13.7651 23.4806 13.7651 23.0363C13.7651 22.592 13.9416 22.1659 14.2558 21.8517C14.57 21.5376 14.9961 21.3611 15.4404 21.3611H17.4506C17.8949 21.3611 18.321 21.5376 18.6352 21.8517C18.9493 22.1659 19.1258 22.592 19.1258 23.0363Z" stroke="white" stroke-opacity="0.7" stroke-width="1.5" stroke-linecap="round" stroke-linejoin="round"/>
</svg>
