<svg width="33" height="32" viewBox="0 0 33 32" fill="none" xmlns="http://www.w3.org/2000/svg">
<path d="M14.3831 19.9111L17.2275 11.3778" stroke="white" stroke-width="1.42222" stroke-linecap="round"/>
<circle opacity="0.7" cx="15.8055" cy="15.6445" r="1.42222" fill="white"/>
<path opacity="0.7" d="M12.25 12.0889L9.40556 15.7232L12.25 19.2" stroke="white" stroke-width="1.42222" stroke-miterlimit="10" stroke-linecap="round" stroke-linejoin="round"/>
<path opacity="0.7" d="M19.3613 12.0889L22.2058 15.7232L19.3613 19.2" stroke="white" stroke-width="1.42222" stroke-miterlimit="10" stroke-linecap="round" stroke-linejoin="round"/>
<path fill-rule="evenodd" clip-rule="evenodd" d="M5.87496 14.9333C6.22301 10.0018 10.1629 6.06193 15.0944 5.71389V6.4C15.0944 6.79273 15.4128 7.11111 15.8055 7.11111C16.1982 7.11111 16.5166 6.79273 16.5166 6.4V5.71389C21.4482 6.06193 25.388 10.0018 25.7361 14.9333H25.05C24.6572 14.9333 24.3388 15.2517 24.3388 15.6444C24.3388 16.0372 24.6572 16.3556 25.05 16.3556H25.7361C25.388 21.2871 21.4482 25.2269 16.5166 25.575V24.8889C16.5166 24.4961 16.1982 24.1778 15.8055 24.1778C15.4128 24.1778 15.0944 24.4961 15.0944 24.8889V25.575C10.1629 25.2269 6.22301 21.2871 5.87496 16.3556H6.56107C6.9538 16.3556 7.27218 16.0372 7.27218 15.6444C7.27218 15.2517 6.9538 14.9333 6.56107 14.9333H5.87496ZM4.42773 15.6444C4.42773 9.36067 9.52174 4.26666 15.8055 4.26666C22.0893 4.26666 27.1833 9.36067 27.1833 15.6444C27.1833 21.9282 22.0893 27.0222 15.8055 27.0222C9.52174 27.0222 4.42773 21.9282 4.42773 15.6444Z" fill="white"/>
</svg>
