<svg width="33" height="32" viewBox="0 0 33 32" fill="none" xmlns="http://www.w3.org/2000/svg">
<path d="M12.7734 10.6329H23.4064C24.1893 10.6329 24.8241 11.2677 24.8241 12.0507V25.519H12.7734V10.6329Z" stroke="white" stroke-width="1.41772"/>
<path opacity="0.7" fill-rule="evenodd" clip-rule="evenodd" d="M6.39355 4.25317H7.10242H17.0265C18.2009 4.25317 19.1531 5.20528 19.1531 6.37976V7.08862H20.5708C21.7453 7.08862 22.6974 8.04072 22.6974 9.2152V10.6329H21.2796V9.2152C21.2796 8.82371 20.9623 8.50634 20.5708 8.50634H19.1531V10.6329H17.7353V8.50634H10.6467V18.4304H12.7733V19.8481H10.6467V21.9747H12.7733V23.3924H9.93786H9.229V22.6836V19.8481H7.10242H6.39355V19.1393V4.96203V4.25317ZM17.7353 6.37976V7.08862H9.93786H9.229V7.79748V18.4304H7.81128V5.6709H17.0265C17.418 5.6709 17.7353 5.98826 17.7353 6.37976Z" fill="white"/>
<path opacity="0.7" d="M15.6089 19.8481L18.4443 21.2973L15.6089 22.6836" stroke="white" stroke-width="1.41772" stroke-miterlimit="10" stroke-linecap="round" stroke-linejoin="round"/>
<line opacity="0.7" x1="20.5707" y1="22.6836" x2="23.4061" y2="22.6836" stroke="white" stroke-width="1.41772" stroke-miterlimit="10" stroke-linecap="round" stroke-linejoin="round"/>
</svg>
