<svg width="33" height="32" viewBox="0 0 33 32" fill="none" xmlns="http://www.w3.org/2000/svg">
<mask id="mask0_62_25181" style="mask-type:luminance" maskUnits="userSpaceOnUse" x="7" y="7" width="19" height="19">
<path d="M25.5475 7.11121H7.53271V25.126H25.5475V7.11121Z" fill="white"/>
</mask>
<g mask="url(#mask0_62_25181)">
<mask id="mask1_62_25181" style="mask-type:luminance" maskUnits="userSpaceOnUse" x="7" y="7" width="19" height="19">
<path d="M7.53125 7.11118H25.546V25.126H7.53125V7.11118Z" fill="white"/>
</mask>
<g mask="url(#mask1_62_25181)">
<path d="M24.8422 16.0834H23.7866H17.8403" stroke="white" stroke-width="1.5" stroke-miterlimit="10" stroke-linecap="round" stroke-linejoin="round"/>
<path d="M14.8843 7.81486H22.3787C23.156 7.81486 23.7861 8.44503 23.7861 9.22227V16.0834" stroke="white" stroke-width="1.5" stroke-miterlimit="10" stroke-linecap="round" stroke-linejoin="round"/>
<path d="M12.4573 12.7056H12.4077C12.8785 12.7056 13.318 12.9406 13.5787 13.3322L15.0258 16.0834" stroke="white" stroke-width="1.5" stroke-miterlimit="10" stroke-linecap="round" stroke-linejoin="round"/>
<path d="M8.23389 17.3148V14.113C8.23389 13.3357 8.86405 12.7056 9.64129 12.7056H12.4065" stroke="white" stroke-width="1.5" stroke-miterlimit="10" stroke-linecap="round" stroke-linejoin="round"/>
<path d="M9.64209 9.22223C9.64209 8.44499 10.2723 7.81483 11.0495 7.81483C11.8267 7.81483 12.4569 8.44499 12.4569 9.22223C12.4569 9.99947 11.8267 10.6296 11.0495 10.6296C10.2723 10.6296 9.64209 9.99947 9.64209 9.22223Z" stroke="white" stroke-width="1.5" stroke-miterlimit="10"/>
<path d="M16.5204 21.6778C15.7516 21.668 15.1313 21.0417 15.1313 20.2704C15.1313 19.4932 15.7615 18.863 16.5387 18.863C17.3159 18.863 17.9461 19.4932 17.9461 20.2704C17.9461 21.0417 17.3258 21.668 16.557 21.6778M16.5204 21.6778H16.557M16.5204 21.6778C15.2003 21.6778 14.0983 22.6141 13.8394 23.86M16.557 21.6778C17.8772 21.6778 18.9792 22.6141 19.2381 23.86M10.926 21.6778C10.1572 21.668 9.5369 21.0417 9.5369 20.2704C9.5369 19.4932 10.1671 18.863 10.9443 18.863C11.7215 18.863 12.3517 19.4932 12.3517 20.2704C12.3517 21.0417 11.7314 21.668 10.9626 21.6778M10.926 21.6778H10.9626M10.926 21.6778C9.60583 21.6778 8.50379 22.6141 8.24486 23.86C8.1847 24.15 8.40351 24.4223 8.6991 24.4223H24.3783C24.6738 24.4223 24.8927 24.15 24.8325 23.86M10.9626 21.6778C12.2827 21.6778 13.3847 22.6141 13.6436 23.86M22.1149 21.6778C21.3461 21.668 20.7258 21.0417 20.7258 20.2704C20.7258 19.4932 21.3559 18.863 22.1332 18.863C22.9104 18.863 23.5406 19.4932 23.5406 20.2704C23.5406 21.0417 22.9203 21.668 22.1514 21.6778H22.1149ZM22.1149 21.6778C20.7947 21.6778 19.6927 22.6141 19.4338 23.86" stroke="white" stroke-opacity="0.7" stroke-width="1.5" stroke-miterlimit="10" stroke-linecap="round" stroke-linejoin="round"/>
</g>
</g>
</svg>
