<svg width="33" height="33" viewBox="0 0 33 33" fill="none" xmlns="http://www.w3.org/2000/svg">
<circle cx="20.3791" cy="15.4765" r="2.84444" stroke="white" stroke-width="1.42222"/>
<rect x="6.86816" y="9.78766" width="19.2" height="11.3778" rx="0.711111" stroke="white" stroke-width="1.42222"/>
<line x1="10.4235" y1="13.3432" x2="10.4235" y2="17.6099" stroke="white" stroke-width="1.42222" stroke-linecap="round"/>
<line x1="12.5573" y1="12.6321" x2="12.5573" y2="18.321" stroke="white" stroke-width="1.42222" stroke-linecap="round"/>
<line x1="14.6906" y1="13.3432" x2="14.6906" y2="17.6099" stroke="white" stroke-width="1.42222" stroke-linecap="round"/>
<path opacity="0.7" fill-rule="evenodd" clip-rule="evenodd" d="M9.00098 23.2987V21.8765H10.4232V23.2987L13.2676 23.2987V21.8765H14.6899L14.6899 23.2987L17.5343 23.2987V21.8765H18.9565V23.2987C18.9565 24.0842 18.3198 24.721 17.5343 24.721H14.6899C14.4308 24.721 14.1879 24.6517 13.9788 24.5307C13.7696 24.6517 13.5267 24.721 13.2676 24.721H10.4232C9.63773 24.721 9.00098 24.0842 9.00098 23.2987ZM20.3788 21.8765V23.2987C20.3788 24.0842 21.0155 24.721 21.801 24.721H23.2232C24.0087 24.721 24.6454 24.0842 24.6454 23.2987V21.8765H23.2232V23.2987L21.801 23.2987V21.8765H20.3788Z" fill="white"/>
<path d="M4.73486 8.00989H6.15709C6.54982 8.00989 6.8682 8.32826 6.8682 8.721V22.5877" stroke="white" stroke-width="1.42222"/>
<circle opacity="0.7" cx="24.2906" cy="11.5655" r="0.355556" fill="white"/>
<circle opacity="0.7" cx="8.64608" cy="11.5655" r="0.355556" fill="white"/>
<circle opacity="0.7" cx="8.64608" cy="19.3877" r="0.355556" fill="white"/>
<circle opacity="0.7" cx="24.2906" cy="19.3877" r="0.355556" fill="white"/>
</svg>
