<svg width="33" height="33" viewBox="0 0 33 33" fill="none" xmlns="http://www.w3.org/2000/svg">
<path opacity="0.7" fill-rule="evenodd" clip-rule="evenodd" d="M13.067 4.45428C13.4598 4.45428 13.7781 4.77266 13.7781 5.1654V8.00984H15.9115V5.1654C15.9115 4.77266 16.2298 4.45428 16.6226 4.45428C17.0153 4.45428 17.3337 4.77266 17.3337 5.1654V8.00984H19.467V5.1654C19.467 4.77266 19.7854 4.45428 20.1781 4.45428C20.5709 4.45428 20.8892 4.77266 20.8892 5.1654V8.00984L23.0226 8.00984C24.2008 8.00984 25.1559 8.96497 25.1559 10.1432V12.2765H28.0004C28.3931 12.2765 28.7115 12.5949 28.7115 12.9876C28.7115 13.3804 28.3931 13.6987 28.0004 13.6987L25.1559 13.6987V15.8321H28.0004C28.3931 15.8321 28.7115 16.1504 28.7115 16.5432C28.7115 16.9359 28.3931 17.2543 28.0004 17.2543H25.1559V19.3876H28.0004C28.3931 19.3876 28.7115 19.706 28.7115 20.0987C28.7115 20.4915 28.3931 20.8098 28.0004 20.8098H25.1559C24.3704 20.8098 23.7337 20.1731 23.7337 19.3876V10.1432C23.7337 9.75044 23.4153 9.43206 23.0226 9.43206H10.2226C9.82984 9.43206 9.51147 9.75044 9.51147 10.1432V22.9432C9.51147 23.3359 9.82984 23.6543 10.2226 23.6543H19.467C20.2525 23.6543 20.8892 24.291 20.8892 25.0765V27.921C20.8892 28.3137 20.5709 28.6321 20.1781 28.6321C19.7854 28.6321 19.467 28.3137 19.467 27.921V25.0765H17.3337V27.921C17.3337 28.3137 17.0153 28.6321 16.6226 28.6321C16.2298 28.6321 15.9115 28.3137 15.9115 27.921V25.0765H13.7781V27.921C13.7781 28.3137 13.4598 28.6321 13.067 28.6321C12.6743 28.6321 12.3559 28.3137 12.3559 27.921V25.0765H10.2226C9.04437 25.0765 8.08925 24.1214 8.08925 22.9432L8.08925 20.8098L5.2448 20.8098C4.85207 20.8098 4.53369 20.4915 4.53369 20.0987C4.53369 19.706 4.85207 19.3876 5.2448 19.3876H8.08925L8.08925 17.2543H5.2448C4.85207 17.2543 4.53369 16.9359 4.53369 16.5432C4.53369 16.1504 4.85207 15.8321 5.2448 15.8321H8.08925L8.08925 13.6987L5.2448 13.6987C4.85207 13.6987 4.53369 13.3804 4.53369 12.9876C4.53369 12.5949 4.85207 12.2765 5.2448 12.2765H8.08925V10.1432C8.08925 8.96497 9.04437 8.00984 10.2226 8.00984L12.3559 8.00984V5.1654C12.3559 4.77266 12.6743 4.45428 13.067 4.45428Z" fill="white"/>
<path fill-rule="evenodd" clip-rule="evenodd" d="M13.0668 16.5432C13.0668 14.5795 14.6586 12.9877 16.6223 12.9877C18.586 12.9877 20.1779 14.5795 20.1779 16.5432C20.1779 18.5069 18.586 20.0988 16.6223 20.0988C14.6586 20.0988 13.0668 18.5069 13.0668 16.5432ZM16.6223 11.5654C13.8732 11.5654 11.6445 13.7941 11.6445 16.5432C11.6445 19.2924 13.8732 21.521 16.6223 21.521C17.6542 21.521 18.6127 21.207 19.4076 20.6694L23.9091 24.6083C24.2047 24.8669 24.6539 24.8369 24.9126 24.5414C25.1712 24.2458 25.1412 23.7965 24.8457 23.5379L20.4663 19.706C21.1747 18.8461 21.6001 17.7443 21.6001 16.5432C21.6001 13.7941 19.3715 11.5654 16.6223 11.5654Z" fill="white"/>
</svg>
