<svg width="33" height="32" viewBox="0 0 33 32" fill="none" xmlns="http://www.w3.org/2000/svg">
<path opacity="0.7" d="M11.8998 19.3851L11.9008 19.8891C11.8115 19.7409 11.7599 19.5678 11.7599 19.3836V12.515C11.7599 12.3392 11.806 12.1742 11.8865 12.0313L11.8874 12.529L11.8998 19.3851ZM12.7476 20.3712C12.5779 20.3712 12.4177 20.3275 12.2776 20.2508L12.7678 20.2499L19.6037 20.2375L19.6052 20.2375L19.6099 20.2375H20.1121C19.9662 20.3225 19.7966 20.3712 19.6161 20.3712H12.7476ZM20.6037 19.3836C20.6037 19.5601 20.5574 19.7256 20.4763 19.8689V19.3711V12.515V12.0323C20.5573 12.1754 20.6037 12.3402 20.6037 12.515V19.3836ZM20.0861 11.6478L19.6083 11.6486L12.7522 11.6611L12.25 11.662C12.3963 11.5764 12.5664 11.5274 12.7476 11.5274H19.6161C19.7858 11.5274 19.946 11.5711 20.0861 11.6478Z" stroke="#F9FAFB" stroke-width="1.73277" stroke-miterlimit="10" stroke-linecap="round"/>
<path d="M28.0712 16.8826C28.5876 16.8826 29.0044 16.4657 29.0044 15.9493C29.0044 15.433 28.5876 15.0161 28.0712 15.0161H24.6742V12.9817H28.0712C28.5876 12.9817 29.0044 12.5648 29.0044 12.0485C29.0044 11.5321 28.5876 11.1152 28.0712 11.1152H24.6742V10.2567C24.6742 8.71374 23.4175 7.457 21.8746 7.457H21.016V4.06006C21.016 3.54367 20.5992 3.12683 20.0828 3.12683C19.5664 3.12683 19.1495 3.54367 19.1495 4.06006V7.457H17.1151V4.06006C17.1151 3.54367 16.6983 3.12683 16.1819 3.12683C15.6655 3.12683 15.2487 3.54367 15.2487 4.06006V7.457H13.2142V4.06006C13.2142 3.54367 12.7974 3.12683 12.281 3.12683C11.7646 3.12683 11.3478 3.54367 11.3478 4.06006V7.457H10.4892C8.94628 7.457 7.68954 8.71374 7.68954 10.2567V11.1152H4.2926C3.77622 11.1152 3.35938 11.5321 3.35938 12.0485C3.35938 12.5648 3.77622 12.9817 4.2926 12.9817H7.68954V15.0161H4.2926C3.77622 15.0161 3.35938 15.433 3.35938 15.9493C3.35938 16.4657 3.77622 16.8826 4.2926 16.8826H7.68954V18.917H4.2926C3.77622 18.917 3.35938 19.3338 3.35938 19.8502C3.35938 20.3666 3.77622 20.7835 4.2926 20.7835H7.68954V21.642C7.68954 23.185 8.94628 24.4417 10.4892 24.4417H11.3478V27.8386C11.3478 28.355 11.7646 28.7719 12.281 28.7719C12.7974 28.7719 13.2142 28.355 13.2142 27.8386V24.4417H15.2487V27.8386C15.2487 28.355 15.6655 28.7719 16.1819 28.7719C16.6983 28.7719 17.1151 28.355 17.1151 27.8386V24.4417H19.1495V27.8386C19.1495 28.355 19.5664 28.7719 20.0828 28.7719C20.5992 28.7719 21.016 28.355 21.016 27.8386V24.4417H21.8746C23.4175 24.4417 24.6742 23.185 24.6742 21.642V20.7835H28.0712C28.5876 20.7835 29.0044 20.3666 29.0044 19.8502C29.0044 19.3338 28.5876 18.917 28.0712 18.917H24.6742V16.8826H28.0712ZM22.8078 21.642C22.8078 22.1584 22.391 22.5752 21.8746 22.5752H10.4892C9.97283 22.5752 9.55599 22.1584 9.55599 21.642V10.2567C9.55599 9.74029 9.97283 9.32345 10.4892 9.32345H21.8746C22.391 9.32345 22.8078 9.74029 22.8078 10.2567V21.642Z" fill="#F9FAFB"/>
</svg>
