<svg width="33" height="32" viewBox="0 0 33 32" fill="none" xmlns="http://www.w3.org/2000/svg">
<rect x="6.41406" y="5.81818" width="20.3636" height="20.3636" rx="1.45455" stroke="white" stroke-width="1.45455" stroke-linecap="round" stroke-linejoin="round"/>
<rect x="13.6865" y="13.0909" width="5.81818" height="5.81818" rx="0.727273" stroke="white" stroke-width="1.45455" stroke-linecap="round" stroke-linejoin="round" stroke-dasharray="1.45 4.36"/>
<path opacity="0.7" fill-rule="evenodd" clip-rule="evenodd" d="M9.142 19.7401C8.79055 19.7401 8.50564 20.025 8.50564 20.3765C8.50564 20.7279 8.79055 21.0128 9.142 21.0128H10.6829L8.14586 23.5499C7.89734 23.7984 7.89734 24.2013 8.14586 24.4499C8.39437 24.6984 8.7973 24.6984 9.04581 24.4499L11.5829 21.9128V23.4536C11.5829 23.805 11.8678 24.0899 12.2192 24.0899C12.5707 24.0899 12.8556 23.805 12.8556 23.4536V20.3765C12.8556 20.2029 12.7861 20.0455 12.6734 19.9307C12.6706 19.9279 12.6678 19.9251 12.665 19.9224C12.6055 19.8639 12.5373 19.8195 12.4646 19.7891C12.3891 19.7576 12.3062 19.7401 12.2192 19.7401H9.142Z" fill="white"/>
<path opacity="0.7" fill-rule="evenodd" clip-rule="evenodd" d="M12.8075 11.8671C12.7764 11.9422 12.7304 12.0125 12.6694 12.0735C12.5451 12.1978 12.3823 12.2599 12.2194 12.2599H9.14239C8.79094 12.2599 8.50603 11.975 8.50603 11.6235C8.50603 11.2721 8.79094 10.9872 9.14239 10.9872H10.6831L8.14586 8.44997C7.89734 8.20145 7.89734 7.79853 8.14586 7.55001C8.39437 7.3015 8.7973 7.3015 9.04581 7.55001L11.583 10.0872V8.54643C11.583 8.19498 11.8679 7.91007 12.2194 7.91007C12.5708 7.91007 12.8558 8.19498 12.8558 8.54643V11.6235C12.8558 11.7098 12.8386 11.7921 12.8075 11.8671Z" fill="white"/>
<path opacity="0.7" fill-rule="evenodd" clip-rule="evenodd" d="M24.0497 19.7401C24.4011 19.7401 24.686 20.025 24.686 20.3765C24.686 20.7279 24.4011 21.0128 24.0497 21.0128H22.5085L25.0455 23.5499C25.2941 23.7984 25.2941 24.2013 25.0455 24.4499C24.797 24.6984 24.3941 24.6984 24.1456 24.4499L21.6088 21.9131V23.4536C21.6088 23.805 21.3239 24.0899 20.9724 24.0899C20.621 24.0899 20.3361 23.805 20.3361 23.4536V20.3949C20.3312 20.226 20.3932 20.0555 20.5222 19.9265C20.6122 19.8365 20.7225 19.7791 20.8384 19.7543C20.8815 19.745 20.9263 19.7401 20.9723 19.7401C20.9723 19.7401 20.9724 19.7401 20.9724 19.7401H24.0497Z" fill="white"/>
<path opacity="0.7" fill-rule="evenodd" clip-rule="evenodd" d="M24.0497 12.2599C24.4011 12.2599 24.686 11.975 24.686 11.6235C24.686 11.2721 24.4011 10.9872 24.0497 10.9872H22.5083L25.0455 8.44992C25.2941 8.20141 25.2941 7.79848 25.0455 7.54997C24.797 7.30145 24.3941 7.30145 24.1456 7.54997L21.6088 10.0868V8.54643C21.6088 8.19498 21.3239 7.91007 20.9724 7.91007C20.621 7.91007 20.3361 8.19498 20.3361 8.54643V11.5997C20.3297 11.7704 20.3917 11.9432 20.522 12.0735C20.6463 12.1978 20.8093 12.2599 20.9722 12.2599C20.9723 12.2599 20.9724 12.2599 20.9724 12.2599H24.0497Z" fill="white"/>
</svg>
