<svg width="33" height="32" viewBox="0 0 33 32" fill="none" xmlns="http://www.w3.org/2000/svg">
<path d="M25.0153 26.9333C26.755 26.9333 28.1653 25.523 28.1653 23.7833C28.1653 22.0436 26.755 20.6333 25.0153 20.6333C23.2755 20.6333 21.8652 22.0436 21.8652 23.7833C21.8652 25.523 23.2755 26.9333 25.0153 26.9333Z" stroke="white" stroke-width="1.5" stroke-miterlimit="10" stroke-linecap="round" stroke-linejoin="round"/>
<mask id="mask0_62_25164" style="mask-type:luminance" maskUnits="userSpaceOnUse" x="4" y="5" width="22" height="21">
<path d="M4.94629 5.6889H25.213V25.9556H4.94629V5.6889Z" fill="white"/>
</mask>
<g mask="url(#mask0_62_25164)">
<path d="M17.5342 16.5743C17.5342 17.0115 17.8886 17.366 18.3258 17.366C18.7631 17.366 19.1175 17.0115 19.1175 16.5743C19.1175 16.1371 18.7631 15.7826 18.3258 15.7826C17.8886 15.7826 17.5342 16.1371 17.5342 16.5743Z" fill="white"/>
<path d="M12.5868 16.5743C12.5868 17.0115 12.2323 17.366 11.7951 17.366C11.3578 17.366 11.0034 17.0115 11.0034 16.5743C11.0034 16.1371 11.3578 15.7826 11.7951 15.7826C12.2323 15.7826 12.5868 16.1371 12.5868 16.5743Z" fill="white"/>
<path d="M13.0601 23.62C13.7462 23.5936 14.6302 23.1978 14.9996 22.4325H15.0788C15.4942 23.1932 16.3785 23.6265 17.058 23.62" stroke="white" stroke-width="1.5" stroke-miterlimit="10" stroke-linecap="round" stroke-linejoin="round"/>
<path d="M15.0441 20.9795C14.9658 21.016 13.9537 20.3705 13.2574 19.2485C12.9408 18.7382 13.305 18.0785 13.9055 18.0785H16.1748C16.7784 18.0785 17.1444 18.7458 16.8192 19.2544C16.1233 20.3428 15.1219 20.9432 15.0441 20.9795Z" fill="white"/>
<path d="M15.04 22.3535V19.2264" stroke="white" stroke-width="1.5" stroke-miterlimit="10" stroke-linecap="round" stroke-linejoin="round"/>
<path d="M11.6763 10.5043C10.9965 9.8444 10.0657 8.75946 9.51169 7.35144C9.24569 6.67524 9.11586 6.48097 8.44294 6.48097C7.90037 6.48097 7.2512 7.63387 7.49294 9.56811C7.61106 10.5129 8.18862 11.7558 8.87836 12.6556C8.57194 13.0041 8.36377 13.4613 8.36377 13.9619C8.36377 14.6093 8.67474 15.1841 9.15544 15.5452C8.67474 15.9063 8.36377 16.481 8.36377 17.1285C8.36377 17.776 8.67474 18.3508 9.15544 18.7119C8.67474 19.0729 8.36377 19.6477 8.36377 20.2952C8.36377 20.8653 8.60523 21.3788 8.99101 21.74C8.60523 22.1011 8.36377 22.6146 8.36377 23.1848C8.36377 24.2778 9.24988 25.1639 10.3429 25.1639" stroke="white" stroke-width="1.5" stroke-miterlimit="10" stroke-linecap="round" stroke-linejoin="round"/>
<path d="M18.4844 10.5043C19.1642 9.8444 20.095 8.75946 20.649 7.35144C20.915 6.67524 21.0449 6.48097 21.7178 6.48097C22.2603 6.48097 22.9095 7.63387 22.6678 9.56811C22.5497 10.5129 21.9721 11.7558 21.2824 12.6556C21.5888 13.0041 21.7969 13.4613 21.7969 13.9619C21.7969 14.6093 21.486 15.1841 21.0053 15.5452C21.486 15.9063 21.7969 16.481 21.7969 17.1285C21.7969 17.776 21.486 18.3508 21.0053 18.7119C21.486 19.0729 21.7969 19.6477 21.7969 20.2952C21.7969 20.8653 21.5555 21.3788 21.1697 21.74C21.5555 22.1011 21.7969 22.6146 21.7969 23.1848C21.7969 24.2778 20.9108 25.1639 19.8178 25.1639" stroke="white" stroke-width="1.5" stroke-miterlimit="10" stroke-linecap="round" stroke-linejoin="round"/>
<path d="M18.8803 11.1909C18.3261 10.0826 17.2469 9.64717 16.4756 9.64717C15.9311 9.64717 15.4381 9.88514 15.0803 10.2409C14.7224 9.88514 14.2294 9.64717 13.685 9.64717C12.9136 9.64717 11.8344 10.0826 11.2803 11.1909" stroke="white" stroke-width="1.5" stroke-miterlimit="10" stroke-linecap="round" stroke-linejoin="round"/>
</g>
<path d="M24.1113 24.0769V25.3334H26.1261V24.5275H25.0124L26.1261 23.9706V22.3112H24.1113V23.1171H25.3202V23.4725L24.1113 24.0769Z" fill="white" fill-opacity="0.7"/>
</svg>
