<svg viewBox="0 0 24 24" fill="none" xmlns="http://www.w3.org/2000/svg">
<path d="M2.99988 7.99993H3.19988C4.88004 7.99993 5.72011 7.99993 6.36185 7.67295C6.92634 7.38533 7.38528 6.92639 7.6729 6.3619C7.99988 5.72017 7.99988 4.88009 7.99988 3.19993V2.99993M2.99988 15.9999H3.19988C4.88004 15.9999 5.72011 15.9999 6.36185 16.3269C6.92634 16.6145 7.38528 17.0735 7.6729 17.638C7.99988 18.2797 7.99988 19.1198 7.99988 20.7999V20.9999M15.9999 2.99993V3.19993C15.9999 4.88009 15.9999 5.72017 16.3269 6.3619C16.6145 6.92639 17.0734 7.38533 17.6379 7.67295C18.2796 7.99993 19.1197 7.99993 20.7999 7.99993H20.9999M15.9999 20.9999V20.7999C15.9999 19.1198 15.9999 18.2797 16.3269 17.638C16.6145 17.0735 17.0734 16.6145 17.6379 16.3269C18.2796 15.9999 19.1197 15.9999 20.7999 15.9999H20.9999" stroke="#000000" stroke-width="2" stroke-linecap="round" stroke-linejoin="round"/>
</svg>
