<svg width="33" height="32" viewBox="0 0 33 32" fill="none" xmlns="http://www.w3.org/2000/svg">
<path opacity="0.7" fill-rule="evenodd" clip-rule="evenodd" d="M9.04719 6.9255C9.2992 6.71269 9.66757 6.70506 9.94061 6.89173L11.7636 8.13799C12.0093 8.30594 12.3325 8.31398 12.5978 8.17698C12.9727 7.98332 13.3639 7.81556 13.769 7.67614C14.043 7.5818 14.2515 7.35644 14.2985 7.07747L14.6663 4.89674C14.7196 4.58059 14.9772 4.33186 15.3052 4.3016C15.6526 4.26955 16.0046 4.25317 16.3603 4.25317C16.7223 4.25317 17.0803 4.27013 17.4336 4.30329C17.7612 4.33404 18.0181 4.58258 18.0714 4.89831L18.4061 6.88309C18.4565 7.18195 18.6912 7.4172 18.9914 7.4978C19.4881 7.63112 19.9668 7.8062 20.4236 8.0189C20.6835 8.13996 20.9918 8.12566 21.2276 7.96447L22.7875 6.89806C23.0608 6.71125 23.4295 6.71906 23.6814 6.93224C24.2198 7.38771 24.7152 7.89246 25.1606 8.43953C25.3653 8.69106 25.3596 9.0444 25.1617 9.30111L24.2185 10.5248C24.0259 10.7748 24.0196 11.1144 24.1819 11.384C24.4602 11.8464 24.6946 12.3367 24.8796 12.8497C24.977 13.1199 25.2128 13.3249 25.5039 13.3684L26.9986 13.592C27.3216 13.6403 27.5785 13.8846 27.6172 14.2C27.6732 14.6571 27.7021 15.1227 27.7021 15.5949C27.7021 15.8134 27.6959 16.0305 27.6837 16.2459C27.6648 16.5797 27.4006 16.847 27.0607 16.8979L25.7583 17.0927C25.4397 17.1403 25.1904 17.38 25.113 17.6843C24.9518 18.3178 24.7172 18.9231 24.4183 19.4912C24.2796 19.7549 24.2954 20.074 24.4781 20.311L25.4298 21.5459C25.6213 21.7943 25.6336 22.1342 25.4457 22.3852C25.0551 22.9069 24.6207 23.3939 24.1478 23.8406C23.8977 24.077 23.5102 24.0952 23.2249 23.9001L21.891 22.9882C21.6364 22.8141 21.2995 22.8122 21.0302 22.9642C20.3596 23.3426 19.6322 23.6364 18.8634 23.8305C18.5575 23.9077 18.3169 24.1449 18.2658 24.4481L17.9532 26.3019C17.8994 26.6206 17.6383 26.8704 17.3073 26.8977C16.9951 26.9236 16.6792 26.9367 16.3603 26.9367C16.0476 26.9367 15.7378 26.9241 15.4315 26.8992C15.1001 26.8724 14.8383 26.6224 14.7845 26.3033L14.4407 24.2649C14.3929 23.9815 14.1788 23.7538 13.8988 23.6623C13.2314 23.4442 12.6003 23.1495 12.0163 22.7889C11.7436 22.6205 11.392 22.6152 11.1277 22.7959L9.50276 23.9067C9.21764 24.1017 8.83051 24.0836 8.58032 23.8477C8.1081 23.4024 7.6741 22.917 7.28375 22.3969C7.09536 22.1459 7.10744 21.8055 7.29908 21.5569L8.6295 19.8307C8.80208 19.6068 8.82631 19.3082 8.71029 19.0521C8.524 18.641 8.37043 18.2127 8.25276 17.7703C8.17283 17.4698 7.92495 17.2342 7.60942 17.187L5.65981 16.8953C5.31989 16.8445 5.05559 16.5771 5.03677 16.2432C5.02468 16.0287 5.01855 15.8125 5.01855 15.5949C5.01855 15.1236 5.04731 14.659 5.10315 14.2027C5.14177 13.8872 5.39869 13.6429 5.7217 13.5945L7.87446 13.2725C8.16237 13.2295 8.3965 13.0284 8.49591 12.7622C8.61967 12.4308 8.76413 12.1091 8.92777 11.7985C9.06675 11.5347 9.05109 11.2154 8.8683 10.9782L7.56754 9.29055C7.36949 9.03359 7.36396 8.67982 7.56926 8.42829C8.01446 7.88284 8.50941 7.37961 9.04719 6.9255Z" stroke="white" stroke-width="1.41772" stroke-miterlimit="10" stroke-linecap="round"/>
<path d="M12.1074 12.8608L16.3606 15.2912V20.4557L12.1074 18.0253V12.8608Z" stroke="white" stroke-width="1.41772" stroke-miterlimit="10" stroke-linecap="round" stroke-linejoin="round"/>
<path d="M20.6138 12.8608L16.3606 15.2912V20.4557L20.6138 18.0253V12.8608Z" stroke="white" stroke-width="1.41772" stroke-miterlimit="10" stroke-linecap="round" stroke-linejoin="round"/>
<path d="M16.3606 15.2912L12.1074 12.8608L16.3606 10.7342L20.6138 12.8608L16.3606 15.2912Z" stroke="white" stroke-width="1.41772" stroke-miterlimit="10" stroke-linecap="round" stroke-linejoin="round"/>
</svg>
