<svg width="32" height="32" viewBox="0 0 32 32" fill="none" xmlns="http://www.w3.org/2000/svg">
<path d="M14.9609 16.9692L16.9264 20.3387L14.8701 23.9003L12.9046 20.5308L14.9609 16.9692Z" stroke="white" stroke-width="1.45" stroke-miterlimit="10" stroke-linecap="round" stroke-linejoin="round"/>
<path d="M20.8271 20.3561L16.9264 20.3387L14.87 23.9004L18.7708 23.9177L20.8271 20.3561Z" stroke="white" stroke-width="1.45" stroke-miterlimit="10" stroke-linecap="round" stroke-linejoin="round"/>
<path d="M16.9263 20.3387L14.9609 16.9692L18.7407 17.1961L20.8271 20.3561L16.9263 20.3387Z" stroke="white" stroke-width="1.45" stroke-miterlimit="10" stroke-linecap="round" stroke-linejoin="round"/>
<g opacity="0.7">
<path d="M8.84668 15.6317L12.7475 15.6143L14.8038 19.1759L10.903 19.1933L8.84668 15.6317Z" stroke="white" stroke-width="1.45" stroke-miterlimit="10" stroke-linecap="round" stroke-linejoin="round"/>
<path d="M14.7134 12.2449L12.7479 15.6144L14.8043 19.176L16.7697 15.8065L14.7134 12.2449Z" stroke="white" stroke-width="1.45" stroke-miterlimit="10" stroke-linecap="round" stroke-linejoin="round"/>
<path d="M12.7475 15.6142L8.84672 15.6315L10.9331 12.4715L14.713 12.2447L12.7475 15.6142Z" stroke="white" stroke-width="1.45" stroke-miterlimit="10" stroke-linecap="round" stroke-linejoin="round"/>
</g>
<path d="M8.1543 9.77814H22.1543V22.7781C22.1543 23.8827 21.2589 24.7781 20.1543 24.7781H10.1543C9.04973 24.7781 8.1543 23.8827 8.1543 22.7781V9.77814Z" stroke="white" stroke-width="1.45" stroke-miterlimit="10" stroke-linecap="round" stroke-linejoin="round"/>
<path opacity="0.7" d="M24.802 12.8434C25.166 12.4794 25.4548 12.0473 25.6518 11.5717C25.8488 11.0961 25.9501 10.5864 25.9501 10.0716C25.9501 9.55685 25.8488 9.04713 25.6518 8.57155C25.4548 8.09597 25.166 7.66384 24.802 7.29985C24.4381 6.93585 24.0059 6.64712 23.5303 6.45012C23.0548 6.25313 22.545 6.15174 22.0303 6.15174C21.5155 6.15174 21.0058 6.25313 20.5302 6.45013C20.0546 6.64712 19.6225 6.93585 19.2585 7.29985L22.0303 10.0716L24.802 12.8434Z" stroke="white" stroke-width="1.45" stroke-miterlimit="10" stroke-linecap="round" stroke-linejoin="round"/>
</svg>
