<svg width="33" height="32" viewBox="0 0 33 32" fill="none" xmlns="http://www.w3.org/2000/svg">
<path opacity="0.7" d="M25.436 26.099V9.42468M25.436 9.42468L28.3359 12.3246M25.436 9.42468L22.5361 12.3246" stroke="white" stroke-width="1.41772" stroke-miterlimit="10" stroke-linecap="round" stroke-linejoin="round"/>
<path opacity="0.7" d="M8.03709 26.099V9.42462M8.03709 9.42462L10.937 12.3245M8.03709 9.42462L5.13721 12.3245" stroke="white" stroke-width="1.41772" stroke-miterlimit="10" stroke-linecap="round" stroke-linejoin="round"/>
<path d="M16.7365 15.2244V3.62488M16.7365 3.62488L12.3867 7.97471M16.7365 3.62488L21.0864 7.97471" stroke="white" stroke-width="1.41772" stroke-miterlimit="10" stroke-linecap="round" stroke-linejoin="round"/>
<path d="M18.6879 20.8746C18.6879 19.1804 14.7392 18.9937 14.7392 21.2007C14.7392 23.4077 18.9114 22.006 18.9114 24.4582C18.9114 26.9105 14.5615 26.3643 14.5615 24.4582" stroke="white" stroke-width="1.41772" stroke-miterlimit="10" stroke-linecap="round"/>
<path d="M16.7363 26.8239L16.7363 27.5489" stroke="white" stroke-width="1.41772" stroke-miterlimit="10" stroke-linecap="round"/>
<path d="M16.7363 18.1243L16.7363 18.8492" stroke="white" stroke-width="1.41772" stroke-miterlimit="10" stroke-linecap="round"/>
</svg>
