<svg width="33" height="33" viewBox="0 0 33 33" fill="none" xmlns="http://www.w3.org/2000/svg">
<path opacity="0.7" fill-rule="evenodd" clip-rule="evenodd" d="M8.92695 21.4253C8.95124 21.9852 8.99799 22.6083 9.088 23.0832C9.0834 23.0789 9.07882 23.0746 9.07426 23.0702L8.42118 22.4494L7.31195 21.395L4.71629 18.9224C3.90027 18.1681 3.40475 17.1547 3.32417 16.0755C3.31447 15.9845 3.31447 15.891 3.31447 15.7961C3.31595 15.1546 3.45449 14.5201 3.72167 13.931C3.98886 13.342 4.37913 12.8106 4.86881 12.3692C5.35913 11.9259 5.94032 11.5835 6.57611 11.3633C7.2119 11.1431 7.88863 11.0499 8.564 11.0894C9.20674 11.1264 9.82961 11.2814 10.4006 11.5403C10.2305 11.7772 10.0823 12.0232 9.96736 12.2765C9.93577 12.3462 9.90674 12.4163 9.88009 12.4868C9.44987 12.2947 8.98259 12.1776 8.50023 12.1452H8.27422C7.25665 12.1476 6.28158 12.5334 5.56268 13.218C4.84379 13.9026 4.43971 14.8301 4.43898 15.7974V16.0149C4.50355 16.8326 4.88146 17.5993 5.50109 18.1698L7.33413 19.9122L8.92695 21.4253ZM23.7513 22.5037C23.761 21.9268 23.6962 21.346 23.6226 20.8769L24.7647 21.9618L25.1335 22.3111C25.2769 22.4483 25.4476 22.5571 25.6357 22.6311C25.8237 22.7051 26.0254 22.7428 26.2289 22.742C26.5369 22.7416 26.8379 22.6546 27.0941 22.492C27.3503 22.3294 27.5503 22.0984 27.6688 21.8282C27.7873 21.5579 27.8192 21.2604 27.7603 20.973C27.7015 20.6855 27.5546 20.4211 27.3382 20.2128L28.1257 19.4562C28.5008 19.8126 28.7561 20.2667 28.8595 20.7611C28.9629 21.2555 28.9097 21.7679 28.7066 22.2336C28.5036 22.6992 28.1598 23.0971 27.7187 23.377C27.2776 23.6568 26.7592 23.806 26.2289 23.8057C25.8798 23.807 25.5338 23.7426 25.2109 23.6164C24.888 23.4902 24.5945 23.3046 24.3473 23.0702L23.7513 22.5037ZM22.6597 12.2461C22.5296 11.904 22.3735 11.5719 22.1912 11.2581C22.725 11.1142 23.2815 11.0569 23.837 11.0894C25.0947 11.1617 26.2764 11.6862 27.1422 12.5564C28.0079 13.4266 28.4929 14.5773 28.4987 15.775V16.0241C28.4327 17.1211 27.9382 18.1551 27.1122 18.9237L25.1307 20.8072L24.339 20.0546L26.3259 18.1711C26.9551 17.5907 27.3342 16.8083 27.3895 15.9766V15.7829C27.3759 14.8561 26.9967 13.9679 26.327 13.2943C25.6573 12.6206 24.7459 12.2105 23.7733 12.1452H23.5473C23.2458 12.1459 22.9481 12.1802 22.6597 12.2461ZM6.62411 23.6142C6.94802 23.4868 7.24216 23.2997 7.48952 23.0636L6.70057 22.3071C6.55707 22.4443 6.38636 22.553 6.19832 22.627C6.01029 22.7009 5.80868 22.7387 5.60518 22.7381C5.29714 22.7376 4.99612 22.6506 4.73993 22.488C4.48375 22.3254 4.28384 22.0945 4.16531 21.8243C4.04678 21.554 4.01492 21.2564 4.07375 20.969C4.13257 20.6816 4.27945 20.4171 4.49592 20.2088L3.70419 19.4562C3.32977 19.8129 3.07497 20.2671 2.97199 20.7614C2.86901 21.2557 2.92245 21.7679 3.12558 22.2334C3.32871 22.6988 3.67241 23.0966 4.11325 23.3764C4.55409 23.6563 5.0723 23.8057 5.60241 23.8057C5.95294 23.8066 6.3002 23.7416 6.62411 23.6142Z" fill="white"/>
<path fill-rule="evenodd" clip-rule="evenodd" d="M14.1667 9.26225C14.9842 8.97913 15.8543 8.85926 16.7227 8.91014C18.3398 9.00309 19.8592 9.67743 20.9723 10.7963C22.0855 11.9152 22.7091 13.3947 22.7165 14.9346V15.2549C22.6316 16.6654 21.9958 17.9949 20.9337 18.9832L18.3861 21.4049L17.3681 20.4372L19.9228 18.0155C20.7317 17.2692 21.2192 16.2633 21.2903 15.1939V14.9448C21.2728 13.7532 20.7853 12.6112 19.9243 11.745C19.0632 10.8788 17.8913 10.3515 16.6407 10.2676H16.3501C15.0418 10.2707 13.788 10.7667 12.8637 11.6469C11.9394 12.5271 11.4198 13.7198 11.4189 14.9635V15.2431C11.5019 16.2944 11.9878 17.2803 12.7845 18.0138L15.1414 20.2542L17.9154 22.8894L18.3896 23.3385C18.574 23.515 18.7935 23.6549 19.0353 23.75C19.2771 23.8451 19.5364 23.8936 19.798 23.8926C20.1941 23.892 20.5812 23.7802 20.9105 23.5711C21.2399 23.362 21.497 23.0651 21.6494 22.7176C21.8018 22.3701 21.8428 21.9876 21.7671 21.618C21.6915 21.2484 21.5026 20.9084 21.2243 20.6406L22.2369 19.6678C22.7191 20.126 23.0474 20.71 23.1804 21.3456C23.3134 21.9813 23.245 22.6401 22.9839 23.2389C22.7228 23.8376 22.2807 24.3492 21.7136 24.709C21.1465 25.0688 20.4799 25.2606 19.798 25.2602C19.3492 25.2619 18.9043 25.1791 18.4892 25.0169C18.0739 24.8546 17.6966 24.6159 17.3788 24.3146L16.5391 23.5164L15.1129 22.1607L11.7755 18.9815C10.7262 18.0116 10.0891 16.7087 9.98553 15.321C9.97305 15.2041 9.97305 15.0838 9.97305 14.9618C9.97495 14.137 10.1531 13.3211 10.4966 12.5638C10.8402 11.8064 11.3419 11.1232 11.9716 10.5557C12.602 9.98567 13.3493 9.54537 14.1667 9.26225ZM14.2282 25.014C14.6447 24.8502 15.0229 24.6097 15.341 24.3061L14.3266 23.3334C14.142 23.5097 13.9226 23.6495 13.6808 23.7447C13.439 23.8398 13.1798 23.8884 12.9181 23.8875C12.5221 23.8869 12.135 23.7751 11.8056 23.566C11.4763 23.357 11.2192 23.06 11.0668 22.7126C10.9144 22.3651 10.8735 21.9825 10.9491 21.613C11.0247 21.2434 11.2136 20.9033 11.4919 20.6355L10.4739 19.6678C9.99251 20.1265 9.6649 20.7105 9.53249 21.346C9.40008 21.9816 9.4688 22.6402 9.72997 23.2386C9.99115 23.837 10.4331 24.3485 10.9999 24.7083C11.5667 25.0681 12.233 25.2602 12.9146 25.2602C13.3653 25.2615 13.8118 25.1778 14.2282 25.014Z" fill="white"/>
</svg>
