<svg width="33" height="32" viewBox="0 0 33 32" fill="none" xmlns="http://www.w3.org/2000/svg">
<path d="M19.4855 14.3454V13.2629C19.4855 11.7682 18.2739 10.5566 16.7793 10.5566C15.2846 10.5566 14.073 11.7682 14.073 13.2629V14.3454M16.7793 16.781V17.8635M15.0472 20.2992H18.5113C19.4207 20.2992 19.8754 20.2992 20.2227 20.1222C20.5282 19.9665 20.7766 19.7181 20.9323 19.4126C21.1093 19.0652 21.1093 18.6105 21.1093 17.7011V16.9434C21.1093 16.034 21.1093 15.5793 20.9323 15.232C20.7766 14.9264 20.5282 14.678 20.2227 14.5223C19.8754 14.3454 19.4207 14.3454 18.5113 14.3454H15.0472C14.1378 14.3454 13.6832 14.3454 13.3358 14.5223C13.0303 14.678 12.7819 14.9264 12.6262 15.232C12.4492 15.5793 12.4492 16.034 12.4492 16.9434V17.7011C12.4492 18.6105 12.4492 19.0652 12.6262 19.4126C12.7819 19.7181 13.0303 19.9665 13.3358 20.1222C13.6832 20.2992 14.1378 20.2992 15.0472 20.2992Z" stroke="white" stroke-width="1.45" stroke-linecap="round" stroke-linejoin="round"/>
<path opacity="0.7" d="M16.8162 24.2354V27.5489M16.8162 27.5489L18.9547 25.4104M16.8162 27.5489L14.6777 25.4105" stroke="white" stroke-width="1.41772" stroke-miterlimit="10" stroke-linecap="round" stroke-linejoin="round"/>
<path opacity="0.7" d="M16.7795 7.78484L16.7795 4.47131M16.7795 4.47131L14.641 6.60979M16.7795 4.47131L18.918 6.60973" stroke="white" stroke-width="1.41772" stroke-miterlimit="10" stroke-linecap="round" stroke-linejoin="round"/>
<path opacity="0.7" d="M8.42437 15.8921L5.11084 15.8921M5.11084 15.8921L7.24932 18.0306M5.11084 15.8921L7.24926 13.7537" stroke="white" stroke-width="1.41772" stroke-miterlimit="10" stroke-linecap="round" stroke-linejoin="round"/>
<path opacity="0.7" d="M25.1357 15.9494L28.4492 15.9494M28.4492 15.9494L26.3107 13.8109M28.4492 15.9494L26.3108 18.0879" stroke="white" stroke-width="1.41772" stroke-miterlimit="10" stroke-linecap="round" stroke-linejoin="round"/>
<path opacity="0.7" d="M22.8649 21.8113L27.7788 26.7252M27.7788 26.7252L27.7788 23.7009M27.7788 26.7252L24.7545 26.7252" stroke="white" stroke-width="1.41772" stroke-miterlimit="10" stroke-linecap="round" stroke-linejoin="round"/>
<path opacity="0.7" d="M10.8812 21.8113L5.96733 26.7252M5.96733 26.7252L5.96733 23.7009M5.96733 26.7252L8.99156 26.7252" stroke="white" stroke-width="1.41772" stroke-miterlimit="10" stroke-linecap="round" stroke-linejoin="round"/>
<path opacity="0.7" d="M10.8812 10.0509L5.96733 5.13704M5.96733 5.13704L5.96733 8.16131M5.96733 5.13704L8.99156 5.13699" stroke="white" stroke-width="1.41772" stroke-miterlimit="10" stroke-linecap="round" stroke-linejoin="round"/>
<path opacity="0.7" d="M22.8645 9.86426L27.7784 4.9504M27.7784 4.9504L24.7541 4.9504M27.7784 4.9504L27.7784 7.97462" stroke="white" stroke-width="1.41772" stroke-miterlimit="10" stroke-linecap="round" stroke-linejoin="round"/>
</svg>
