<svg width="33" height="33" viewBox="0 0 33 33" fill="none" xmlns="http://www.w3.org/2000/svg">
<path d="M18.4886 14.5669C18.4886 12.8672 14.5273 12.6799 14.5273 14.894C14.5273 17.108 18.7128 15.7018 18.7128 18.1619C18.7128 20.6219 14.3491 20.074 14.3491 18.1619" stroke="white" stroke-width="1.42222" stroke-miterlimit="10" stroke-linecap="round"/>
<path d="M16.5308 20.5351L16.5308 21.2624" stroke="white" stroke-width="1.42222" stroke-miterlimit="10" stroke-linecap="round"/>
<path d="M16.5308 11.8078L16.5308 12.5351" stroke="white" stroke-width="1.42222" stroke-miterlimit="10" stroke-linecap="round"/>
<path opacity="0.7" d="M16.5686 24.1715L16.5686 28.5351M16.5686 28.5351L18.7139 26.3898M16.5686 28.5351L14.4233 26.3899" stroke="white" stroke-width="1.42222" stroke-miterlimit="10" stroke-linecap="round" stroke-linejoin="round"/>
<path opacity="0.7" d="M16.5681 9.62603L16.5681 5.26239M16.5681 5.26239L14.4228 7.40766M16.5681 5.26239L18.7134 7.4076" stroke="white" stroke-width="1.42222" stroke-miterlimit="10" stroke-linecap="round" stroke-linejoin="round"/>
<path opacity="0.7" d="M9.25914 16.8988L4.89551 16.8988M4.89551 16.8988L7.04078 19.0441M4.89551 16.8988L7.04071 14.7535" stroke="white" stroke-width="1.42222" stroke-miterlimit="10" stroke-linecap="round" stroke-linejoin="round"/>
<path opacity="0.7" d="M23.841 16.8622L28.2046 16.8622M28.2046 16.8622L26.0593 14.717M28.2046 16.8622L26.0594 19.0075" stroke="white" stroke-width="1.42222" stroke-miterlimit="10" stroke-linecap="round" stroke-linejoin="round"/>
<path opacity="0.7" d="M22.6368 22.7793L27.5663 27.7087M27.5663 27.7087L27.5663 24.6749M27.5663 27.7087L24.5324 27.7088" stroke="white" stroke-width="1.42222" stroke-miterlimit="10" stroke-linecap="round" stroke-linejoin="round"/>
<path opacity="0.7" d="M10.6142 22.7793L5.6847 27.7087M5.6847 27.7087L5.6847 24.6749M5.6847 27.7087L8.71853 27.7088" stroke="white" stroke-width="1.42222" stroke-miterlimit="10" stroke-linecap="round" stroke-linejoin="round"/>
<path opacity="0.7" d="M10.6142 10.9815L5.6847 6.05206M5.6847 6.05206L5.6847 9.08593M5.6847 6.05206L8.71853 6.05201" stroke="white" stroke-width="1.42222" stroke-miterlimit="10" stroke-linecap="round" stroke-linejoin="round"/>
<path opacity="0.7" d="M22.6361 10.7943L27.5656 5.86488M27.5656 5.86488L24.5317 5.86488M27.5656 5.86488L27.5656 8.8987" stroke="white" stroke-width="1.42222" stroke-miterlimit="10" stroke-linecap="round" stroke-linejoin="round"/>
</svg>
