<svg width="33" height="33" viewBox="0 0 33 33" fill="none" xmlns="http://www.w3.org/2000/svg">
<path d="M11.4707 13.5222L16.5616 16.4313V22.6131L11.4707 19.704V13.5222Z" stroke="white" stroke-width="1.45455" stroke-miterlimit="10" stroke-linecap="round" stroke-linejoin="round"/>
<path d="M21.6523 13.5222L16.5614 16.4313V22.6131L21.6523 19.704V13.5222Z" stroke="white" stroke-width="1.45455" stroke-miterlimit="10" stroke-linecap="round" stroke-linejoin="round"/>
<path d="M16.5616 16.4312L11.4707 13.5221L16.5616 10.9767L21.6525 13.5221L16.5616 16.4312Z" stroke="white" stroke-width="1.45455" stroke-miterlimit="10" stroke-linecap="round" stroke-linejoin="round"/>
<path opacity="0.7" fill-rule="evenodd" clip-rule="evenodd" d="M13.8461 7.08289C14.7098 6.84451 15.6202 6.71694 16.5617 6.71694C18.4364 6.71694 20.1918 7.22307 21.6999 8.10648H21.6518C21.2501 8.10648 20.9245 8.43209 20.9245 8.83375C20.9245 9.23542 21.2501 9.56103 21.6518 9.56103H23.7686C24.1702 9.56103 24.4959 9.23542 24.4959 8.83375V6.71694C24.4959 6.31528 24.1702 5.98967 23.7686 5.98967C23.3669 5.98967 23.0413 6.31528 23.0413 6.71694V7.23206C21.1893 5.98838 18.9596 5.26239 16.5617 5.26239C15.4882 5.26239 14.4476 5.40793 13.4591 5.68077C13.0719 5.78763 12.8446 6.18814 12.9515 6.57532C13.0584 6.96251 13.4589 7.18976 13.8461 7.08289ZM9.41094 7.71822L9.24532 7.7082C8.8444 7.68395 8.53904 7.33927 8.56329 6.93834C8.58754 6.53741 8.93222 6.23205 9.33315 6.25631L11.4461 6.38412C11.847 6.40837 12.1524 6.75305 12.1281 7.15398L12.0003 9.26693C11.9761 9.66786 11.6314 9.97321 11.2305 9.94896C10.8295 9.92471 10.5242 9.58003 10.5484 9.1791L10.5799 8.6583C8.03354 10.5099 6.37984 13.5116 6.37984 16.8988C6.37984 18.6161 6.80444 20.2322 7.55379 21.6498C7.74149 22.0049 7.60579 22.4449 7.25069 22.6326C6.89559 22.8203 6.45555 22.6846 6.26785 22.3295C5.41045 20.7075 4.92529 18.8587 4.92529 16.8988C4.92529 13.1674 6.68178 9.847 9.41094 7.71822ZM26.4063 10.6922C26.1917 10.3526 25.7426 10.2512 25.403 10.4657C25.0634 10.6802 24.962 11.1294 25.1765 11.469C26.169 13.0401 26.7435 14.9012 26.7435 16.8988C26.7435 19.8617 25.4784 22.5292 23.4568 24.3906L23.4614 24.1877C23.4703 23.7861 23.152 23.4533 22.7504 23.4444C22.3489 23.4354 22.0161 23.7537 22.0072 24.1553L21.9601 26.2716C21.9511 26.6731 22.2694 27.0059 22.671 27.0149L24.7873 27.062C25.1888 27.0709 25.5216 26.7526 25.5305 26.3511C25.5395 25.9495 25.2212 25.6167 24.8196 25.6078L24.2924 25.596C26.6876 23.4654 28.198 20.3585 28.198 16.8988C28.198 14.6182 27.5413 12.4889 26.4063 10.6922ZM9.61928 26.2381V26.6194C9.61928 27.0211 9.29367 27.3467 8.89201 27.3467C8.49035 27.3467 8.16474 27.0211 8.16474 26.6194V24.5026C8.16474 24.101 8.49035 23.7754 8.89201 23.7754H11.0088C11.4105 23.7754 11.7361 24.101 11.7361 24.5026C11.7361 24.9043 11.4105 25.2299 11.0088 25.2299H10.7067C12.363 26.3962 14.3819 27.0806 16.5617 27.0806C17.5031 27.0806 18.4136 26.953 19.2773 26.7146C19.6644 26.6078 20.0649 26.835 20.1718 27.2222C20.2787 27.6094 20.0514 28.0099 19.6642 28.1167C18.6757 28.3896 17.6351 28.5351 16.5617 28.5351C13.9601 28.5351 11.5571 27.6807 9.61928 26.2381Z" fill="white"/>
</svg>
