<svg width="33" height="32" viewBox="0 0 33 32" fill="none" xmlns="http://www.w3.org/2000/svg">
<path d="M5.86035 21.0909L13.1331 13.8182L15.6785 16.3636L26.224 5.81818" stroke="white" stroke-width="1.45455" stroke-linecap="round" stroke-linejoin="round"/>
<path opacity="0.7" d="M5.13281 24C5.13281 23.5983 5.45842 23.2727 5.86009 23.2727C6.26175 23.2727 6.58736 23.5983 6.58736 24V26.9091H5.13281V24Z" fill="white"/>
<path opacity="0.7" d="M9.13281 21.8182C9.13281 21.4165 9.45842 21.0909 9.86009 21.0909C10.2617 21.0909 10.5874 21.4165 10.5874 21.8182V26.9091H9.13281V21.8182Z" fill="white"/>
<path opacity="0.7" d="M13.1328 18.9091C13.1328 18.5074 13.4584 18.1818 13.8601 18.1818C14.2617 18.1818 14.5874 18.5074 14.5874 18.9091V26.9091H13.1328V18.9091Z" fill="white"/>
<path opacity="0.7" d="M17.1328 18.1818C17.1328 17.7801 17.4584 17.4545 17.8601 17.4545C18.2617 17.4545 18.5874 17.7801 18.5874 18.1818V26.9091H17.1328V18.1818Z" fill="white"/>
<path opacity="0.7" d="M21.4961 14.5454C21.4961 14.1438 21.8217 13.8182 22.2234 13.8182C22.625 13.8182 22.9506 14.1438 22.9506 14.5454V26.9091H21.4961V14.5454Z" fill="white"/>
<path opacity="0.7" d="M25.4961 16C25.4961 15.5983 25.8217 15.2727 26.2234 15.2727C26.625 15.2727 26.9506 15.5983 26.9506 16V26.9091H25.4961V16Z" fill="white"/>
<path d="M19.6787 5.81818H26.2242V11.6364" stroke="white" stroke-width="1.45455" stroke-linecap="round" stroke-linejoin="round"/>
<path opacity="0.7" d="M17.1328 5.81818H5.86009V17.4545" stroke="white" stroke-width="1.45455" stroke-linecap="round" stroke-linejoin="round"/>
</svg>
