<svg width="33" height="33" viewBox="0 0 33 33" fill="none" xmlns="http://www.w3.org/2000/svg">
<path d="M22.1081 15.4765V13.6987C22.1081 10.1641 19.2427 7.29871 15.7081 7.29871V7.29871C12.1735 7.29871 9.30811 10.1641 9.30811 13.6987V15.4765" stroke="white" stroke-width="1.42222"/>
<path opacity="0.7" d="M22.1084 20.0987V20.0987C22.1084 22.8478 19.8798 25.0765 17.1306 25.0765V25.0765" stroke="white" stroke-width="1.42222"/>
<path d="M21.397 15.832C21.397 15.4393 21.7153 15.1209 22.1081 15.1209H22.8192C23.9974 15.1209 24.9525 16.076 24.9525 17.2542V18.6765C24.9525 19.8547 23.9974 20.8098 22.8192 20.8098H22.1081C21.7153 20.8098 21.397 20.4914 21.397 20.0987V15.832Z" stroke="white" stroke-width="1.42222"/>
<path d="M10.0195 15.832C10.0195 15.4393 9.70116 15.1209 9.30842 15.1209H8.59731C7.4191 15.1209 6.46398 16.076 6.46398 17.2542V18.6765C6.46398 19.8547 7.4191 20.8098 8.59731 20.8098H9.30842C9.70116 20.8098 10.0195 20.4914 10.0195 20.0987V15.832Z" stroke="white" stroke-width="1.42222"/>
<circle cx="15.7084" cy="25.0765" r="1.42222" stroke="white" stroke-width="1.42222"/>
</svg>
