<svg width="32" height="32" viewBox="0 0 32 32" fill="none" xmlns="http://www.w3.org/2000/svg">
<path d="M26.415 23.2382V23.9882C26.8293 23.9882 27.165 23.6524 27.165 23.2382H26.415ZM17.7075 23.2382H16.9575C16.9575 23.6524 17.2933 23.9882 17.7075 23.9882V23.2382ZM26.415 13.6599H27.165C27.165 13.2457 26.8293 12.9099 26.415 12.9099V13.6599ZM21.7892 13.6599L21.1009 13.3621C21.0006 13.5939 21.0237 13.8606 21.1624 14.0717C21.301 14.2828 21.5366 14.4099 21.7892 14.4099V13.6599ZM24.2382 7.99999L24.9265 8.29782C25.0268 8.06602 25.0037 7.7993 24.8651 7.58821C24.7264 7.37711 24.4908 7.24999 24.2382 7.24999V7.99999ZM20.1565 7.99999V7.24999C19.8575 7.24999 19.587 7.42767 19.4682 7.70215L20.1565 7.99999ZM17.7075 13.6599V14.4099C18.0066 14.4099 18.2771 14.2322 18.3959 13.9577L17.7075 13.6599ZM17.7075 13.6599V12.9099C17.2933 12.9099 16.9575 13.2457 16.9575 13.6599H17.7075ZM26.415 22.4882H17.7075V23.9882H26.415V22.4882ZM25.665 13.6599V23.2382H27.165V13.6599H25.665ZM21.7892 14.4099H26.415V12.9099H21.7892V14.4099ZM23.5499 7.70215L21.1009 13.3621L22.4775 13.9577L24.9265 8.29782L23.5499 7.70215ZM20.1565 8.74999H24.2382V7.24999H20.1565V8.74999ZM18.3959 13.9577L20.8449 8.29782L19.4682 7.70215L17.0192 13.3621L18.3959 13.9577ZM17.7075 14.4099H17.7075V12.9099H17.7075V14.4099ZM18.4575 23.2382V13.6599H16.9575V23.2382H18.4575Z" fill="white"/>
<path d="M14.7075 23.2382V23.9882C15.1217 23.9882 15.4575 23.6524 15.4575 23.2382H14.7075ZM5.99995 23.2382H5.24995C5.24995 23.6524 5.58574 23.9882 5.99995 23.9882V23.2382ZM14.7075 13.6599H15.4575C15.4575 13.2457 15.1217 12.9099 14.7075 12.9099V13.6599ZM10.0817 13.6599L9.39337 13.3621C9.29307 13.5939 9.31618 13.8606 9.45485 14.0717C9.59352 14.2828 9.82913 14.4099 10.0817 14.4099V13.6599ZM12.5307 7.99999L13.219 8.29782C13.3193 8.06602 13.2962 7.7993 13.1575 7.58821C13.0189 7.37711 12.7833 7.24999 12.5307 7.24999V7.99999ZM8.44902 7.99999V7.24999C8.14995 7.24999 7.87946 7.42767 7.76069 7.70215L8.44902 7.99999ZM6.00002 13.6599V14.4099C6.2991 14.4099 6.56958 14.2322 6.68835 13.9577L6.00002 13.6599ZM5.99995 13.6599V12.9099C5.58574 12.9099 5.24995 13.2457 5.24995 13.6599H5.99995ZM14.7075 22.4882H5.99995V23.9882H14.7075V22.4882ZM13.9575 13.6599V23.2382H15.4575V13.6599H13.9575ZM10.0817 14.4099H14.7075V12.9099H10.0817V14.4099ZM11.8424 7.70215L9.39337 13.3621L10.77 13.9577L13.219 8.29782L11.8424 7.70215ZM8.44902 8.74999H12.5307V7.24999H8.44902V8.74999ZM6.68835 13.9577L9.13735 8.29782L7.76069 7.70215L5.31169 13.3621L6.68835 13.9577ZM5.99995 14.4099H6.00002V12.9099H5.99995V14.4099ZM6.74995 23.2382V13.6599H5.24995V23.2382H6.74995Z" fill="white"/>
</svg>
