<svg width="32" height="33" viewBox="0 0 32 33" fill="none" xmlns="http://www.w3.org/2000/svg">
<rect opacity="0.7" x="5.81836" y="6.71692" width="20.3636" height="20.3636" rx="0.727273" stroke="white" stroke-width="1.45455" stroke-miterlimit="10" stroke-linecap="round" stroke-dasharray="3.64 3.64"/>
<rect x="5.81836" y="17.626" width="9.45455" height="9.45455" rx="0.727273" stroke="white" stroke-width="1.45455" stroke-miterlimit="10" stroke-linecap="round"/>
<path fill-rule="evenodd" clip-rule="evenodd" d="M17.4543 9.62604C17.0527 9.62604 16.7271 9.95165 16.7271 10.3533C16.7271 10.755 17.0527 11.0806 17.4543 11.0806H20.7207L16.9401 14.8612C16.656 15.1452 16.656 15.6057 16.9401 15.8897C17.2241 16.1738 17.6846 16.1738 17.9686 15.8897L21.7492 12.1091V15.3755C21.7492 15.7771 22.0748 16.1028 22.4765 16.1028C22.8782 16.1028 23.2038 15.7771 23.2038 15.3755V10.3851C23.2038 10.3797 23.2037 10.3744 23.2036 10.369C23.2077 10.1777 23.1368 9.98506 22.9908 9.83905C22.8891 9.73738 22.7648 9.6721 22.6341 9.64322L22.594 9.62604H22.4447H17.4543Z" fill="white"/>
</svg>
