<svg width="33" height="32" viewBox="0 0 33 32" fill="none" xmlns="http://www.w3.org/2000/svg">
<path opacity="0.7" d="M18.4757 6H8.14449C7.34116 6 6.68994 6.65122 6.68994 7.45454V20.5V24.5455C6.68994 25.3488 7.34116 26 8.14449 26H8.8328H25.2354C26.0387 26 26.6899 25.3488 26.6899 24.5455V19.9286" stroke="white" stroke-width="1.45455" stroke-linecap="round" stroke-linejoin="round"/>
<path opacity="0.7" d="M24.1899 5L25.1576 7.53232L27.6899 8.5L25.1576 9.46768L24.1899 12L23.2223 9.46768L20.6899 8.5L23.2223 7.53232L24.1899 5Z" stroke="white" stroke-width="1.45455" stroke-linecap="round" stroke-linejoin="round"/>
<g opacity="0.7">
<line x1="26.1448" y1="13.0909" x2="26.1448" y2="17.4545" stroke="white" stroke-width="1.45455" stroke-linecap="round" stroke-linejoin="round"/>
<line x1="28.3269" y1="15.2727" x2="23.9633" y2="15.2727" stroke="white" stroke-width="1.45455" stroke-linecap="round" stroke-linejoin="round"/>
</g>
<path d="M13.4829 11.7535C13.4829 11.3668 13.4829 11.1734 13.5744 11.0668C13.6541 10.9739 13.7759 10.9164 13.9078 10.9095C14.0591 10.9015 14.2416 11.0088 14.6067 11.2233L19.3573 14.0152C19.6589 14.1925 19.8097 14.2812 19.8623 14.3929C19.9082 14.4905 19.9082 14.6003 19.8623 14.698C19.8097 14.8097 19.6589 14.8983 19.3573 15.0756L14.6067 17.8675C14.2416 18.0821 14.0591 18.1893 13.9078 18.1814C13.7759 18.1744 13.6541 18.117 13.5744 18.0241C13.4829 17.9175 13.4829 17.7241 13.4829 17.3373V11.7535Z" stroke="white" stroke-width="1.45455" stroke-linecap="round" stroke-linejoin="round"/>
<path opacity="0.7" fill-rule="evenodd" clip-rule="evenodd" d="M9.68994 23H18.5967C18.8776 23.5912 19.4802 24 20.1783 24C20.8764 24 21.479 23.5912 21.7599 23H23.6899C24.1042 23 24.4399 22.6642 24.4399 22.25C24.4399 21.8358 24.1042 21.5 23.6899 21.5H21.7599C21.479 20.9088 20.8764 20.5 20.1783 20.5C19.4802 20.5 18.8776 20.9088 18.5967 21.5H9.68994C9.27573 21.5 8.93994 21.8358 8.93994 22.25C8.93994 22.6642 9.27573 23 9.68994 23ZM20.1783 23.25C20.7306 23.25 21.1783 22.8023 21.1783 22.25C21.1783 21.6977 20.7306 21.25 20.1783 21.25C19.626 21.25 19.1783 21.6977 19.1783 22.25C19.1783 22.8023 19.626 23.25 20.1783 23.25Z" fill="white"/>
</svg>
