<svg width="30" height="13" viewBox="0 0 30 13" fill="none" xmlns="http://www.w3.org/2000/svg">
<path d="M1.31896 1.01435L2.61441 4.68765H2.66555L3.961 1.01435H4.51498L2.91271 5.37799H2.36725L0.764981 1.01435H1.31896ZM5.12649 5.37799V2.10526H5.62933V5.37799H5.12649ZM5.38217 1.55981C5.28416 1.55981 5.19964 1.52643 5.12862 1.45967C5.05902 1.39291 5.02421 1.31265 5.02421 1.2189C5.02421 1.12515 5.05902 1.04489 5.12862 0.978133C5.19964 0.911371 5.28416 0.877991 5.38217 0.877991C5.48018 0.877991 5.56399 0.911371 5.63359 0.978133C5.70461 1.04489 5.74012 1.12515 5.74012 1.2189C5.74012 1.31265 5.70461 1.39291 5.63359 1.45967C5.56399 1.52643 5.48018 1.55981 5.38217 1.55981ZM7.78611 5.44617C7.51338 5.44617 7.27262 5.37728 7.06381 5.2395C6.855 5.10029 6.69165 4.90427 6.57375 4.65143C6.45585 4.39717 6.39691 4.09674 6.39691 3.75015C6.39691 3.4064 6.45585 3.1081 6.57375 2.85526C6.69165 2.60242 6.85571 2.40711 7.06594 2.26933C7.27617 2.13154 7.51907 2.06265 7.79463 2.06265C8.0077 2.06265 8.17603 2.09816 8.2996 2.16918C8.4246 2.23879 8.51978 2.31833 8.58512 2.40782C8.65188 2.49589 8.70372 2.56833 8.74066 2.62515H8.78327V1.01435H9.28611V5.37799H8.80032V4.87515H8.74066C8.70372 4.93481 8.65117 5.01009 8.58299 5.101C8.5148 5.19049 8.4175 5.27075 8.29108 5.34177C8.16466 5.41137 7.99634 5.44617 7.78611 5.44617ZM7.85429 4.99447C8.056 4.99447 8.22645 4.94191 8.36566 4.8368C8.50486 4.73026 8.61068 4.58325 8.68313 4.39575C8.75557 4.20683 8.79179 3.98879 8.79179 3.74163C8.79179 3.49731 8.75628 3.28353 8.68526 3.10029C8.61424 2.91563 8.50912 2.77217 8.36992 2.66989C8.23071 2.5662 8.05884 2.51435 7.85429 2.51435C7.64122 2.51435 7.46367 2.56904 7.32162 2.67842C7.181 2.78637 7.07517 2.93339 7.00415 3.11947C6.93455 3.30413 6.89975 3.51151 6.89975 3.74163C6.89975 3.97458 6.93526 4.18623 7.00628 4.37657C7.07872 4.56549 7.18526 4.71606 7.32588 4.82827C7.46793 4.93907 7.64407 4.99447 7.85429 4.99447ZM11.649 5.44617C11.3337 5.44617 11.0617 5.37657 10.833 5.23737C10.6057 5.09674 10.4303 4.90072 10.3067 4.6493C10.1845 4.39646 10.1235 4.10242 10.1235 3.7672C10.1235 3.43197 10.1845 3.13651 10.3067 2.88083C10.4303 2.62373 10.6022 2.42345 10.8223 2.27998C11.0439 2.13509 11.3024 2.06265 11.5979 2.06265C11.7684 2.06265 11.9367 2.09106 12.1029 2.14788C12.2691 2.2047 12.4203 2.29702 12.5567 2.42487C12.6931 2.55129 12.8017 2.7189 12.8827 2.92771C12.9637 3.13651 13.0042 3.39362 13.0042 3.69901V3.91208H10.4814V3.47742H12.4928C12.4928 3.29276 12.4559 3.12799 12.382 2.9831C12.3095 2.83822 12.2059 2.72387 12.0709 2.64006C11.9374 2.55626 11.7797 2.51435 11.5979 2.51435C11.3976 2.51435 11.2243 2.56407 11.078 2.6635C10.9331 2.76151 10.8216 2.88935 10.7435 3.04702C10.6654 3.2047 10.6263 3.37373 10.6263 3.55413V3.8439C10.6263 4.09106 10.6689 4.30058 10.7542 4.47245C10.8408 4.64291 10.9608 4.77288 11.1142 4.86237C11.2676 4.95043 11.4459 4.99447 11.649 4.99447C11.7811 4.99447 11.9005 4.976 12.007 4.93907C12.1149 4.90072 12.208 4.8439 12.2861 4.76862C12.3642 4.69191 12.4246 4.59674 12.4672 4.4831L12.953 4.61947C12.9019 4.78424 12.8159 4.92913 12.6952 5.05413C12.5745 5.17771 12.4253 5.2743 12.2478 5.3439C12.0702 5.41208 11.8706 5.44617 11.649 5.44617ZM15.0986 5.44617C14.8032 5.44617 14.5439 5.37586 14.3209 5.23524C14.0993 5.09461 13.926 4.89788 13.801 4.64504C13.6774 4.3922 13.6157 4.09674 13.6157 3.75867C13.6157 3.41776 13.6774 3.12018 13.801 2.86592C13.926 2.61166 14.0993 2.41421 14.3209 2.27359C14.5439 2.13296 14.8032 2.06265 15.0986 2.06265C15.3941 2.06265 15.6526 2.13296 15.8742 2.27359C16.0972 2.41421 16.2705 2.61166 16.3941 2.86592C16.5191 3.12018 16.5816 3.41776 16.5816 3.75867C16.5816 4.09674 16.5191 4.3922 16.3941 4.64504C16.2705 4.89788 16.0972 5.09461 15.8742 5.23524C15.6526 5.37586 15.3941 5.44617 15.0986 5.44617ZM15.0986 4.99447C15.323 4.99447 15.5077 4.93694 15.6526 4.82188C15.7975 4.70683 15.9047 4.55555 15.9743 4.36805C16.0439 4.18055 16.0787 3.97742 16.0787 3.75867C16.0787 3.53992 16.0439 3.33609 15.9743 3.14717C15.9047 2.95825 15.7975 2.80555 15.6526 2.68907C15.5077 2.57259 15.323 2.51435 15.0986 2.51435C14.8742 2.51435 14.6895 2.57259 14.5446 2.68907C14.3997 2.80555 14.2925 2.95825 14.2229 3.14717C14.1533 3.33609 14.1185 3.53992 14.1185 3.75867C14.1185 3.97742 14.1533 4.18055 14.2229 4.36805C14.2925 4.55555 14.3997 4.70683 14.5446 4.82188C14.6895 4.93694 14.8742 4.99447 15.0986 4.99447ZM22.0878 2.37799C22.0409 2.23452 21.9791 2.10597 21.9024 1.99234C21.8271 1.87728 21.7369 1.77927 21.6318 1.6983C21.5281 1.61734 21.4102 1.55555 21.2781 1.51293C21.146 1.47032 21.0011 1.44901 20.8435 1.44901C20.5849 1.44901 20.3499 1.51577 20.1382 1.6493C19.9266 1.78282 19.7582 1.97955 19.6332 2.2395C19.5082 2.49944 19.4457 2.81833 19.4457 3.19617C19.4457 3.57401 19.5089 3.89291 19.6354 4.15285C19.7618 4.41279 19.933 4.60952 20.1489 4.74305C20.3648 4.87657 20.6077 4.94333 20.8776 4.94333C21.1276 4.94333 21.3477 4.89006 21.5381 4.78353C21.7298 4.67558 21.879 4.52359 21.9855 4.32756C22.0935 4.13012 22.1474 3.89788 22.1474 3.63083L22.3094 3.66492H20.9969V3.19617H22.6588V3.66492C22.6588 4.0243 22.5821 4.3368 22.4287 4.60242C22.2767 4.86805 22.0665 5.07401 21.798 5.22032C21.531 5.36521 21.2241 5.43765 20.8776 5.43765C20.4912 5.43765 20.1517 5.34674 19.8591 5.16492C19.5679 4.9831 19.3406 4.72458 19.1773 4.38935C19.0153 4.05413 18.9344 3.6564 18.9344 3.19617C18.9344 2.851 18.9805 2.54063 19.0729 2.26506C19.1666 1.98808 19.2987 1.75228 19.4692 1.55768C19.6396 1.36308 19.8413 1.21393 20.0743 1.11023C20.3072 1.00654 20.5636 0.954695 20.8435 0.954695C21.0736 0.954695 21.2881 0.989496 21.4869 1.0591C21.6872 1.12728 21.8655 1.22458 22.0217 1.351C22.1794 1.476 22.3108 1.62586 22.4159 1.80058C22.521 1.97387 22.5935 2.16634 22.6332 2.37799H22.0878ZM24.8678 5.44617C24.5524 5.44617 24.2804 5.37657 24.0517 5.23737C23.8245 5.09674 23.649 4.90072 23.5255 4.6493C23.4033 4.39646 23.3422 4.10242 23.3422 3.7672C23.3422 3.43197 23.4033 3.13651 23.5255 2.88083C23.649 2.62373 23.8209 2.42345 24.0411 2.27998C24.2627 2.13509 24.5212 2.06265 24.8167 2.06265C24.9871 2.06265 25.1554 2.09106 25.3216 2.14788C25.4878 2.2047 25.6391 2.29702 25.7755 2.42487C25.9118 2.55129 26.0205 2.7189 26.1015 2.92771C26.1824 3.13651 26.2229 3.39362 26.2229 3.69901V3.91208H23.7002V3.47742H25.7115C25.7115 3.29276 25.6746 3.12799 25.6007 2.9831C25.5283 2.83822 25.4246 2.72387 25.2897 2.64006C25.1561 2.55626 24.9985 2.51435 24.8167 2.51435C24.6164 2.51435 24.4431 2.56407 24.2968 2.6635C24.1519 2.76151 24.0404 2.88935 23.9622 3.04702C23.8841 3.2047 23.8451 3.37373 23.8451 3.55413V3.8439C23.8451 4.09106 23.8877 4.30058 23.9729 4.47245C24.0595 4.64291 24.1796 4.77288 24.333 4.86237C24.4864 4.95043 24.6647 4.99447 24.8678 4.99447C24.9999 4.99447 25.1192 4.976 25.2257 4.93907C25.3337 4.90072 25.4267 4.8439 25.5049 4.76862C25.583 4.69191 25.6434 4.59674 25.686 4.4831L26.1718 4.61947C26.1206 4.78424 26.0347 4.92913 25.914 5.05413C25.7932 5.17771 25.6441 5.2743 25.4665 5.3439C25.289 5.41208 25.0894 5.44617 24.8678 5.44617ZM27.4907 3.40924V5.37799H26.9878V2.10526H27.4736V2.61663H27.5162C27.5929 2.45043 27.7094 2.31691 27.8657 2.21606C28.0219 2.11379 28.2236 2.06265 28.4708 2.06265C28.6924 2.06265 28.8863 2.1081 29.0524 2.19901C29.2186 2.2885 29.3479 2.42487 29.4402 2.6081C29.5326 2.78992 29.5787 3.02004 29.5787 3.29845V5.37799H29.0759V3.33254C29.0759 3.07543 29.0091 2.87515 28.8756 2.73168C28.7421 2.5868 28.5588 2.51435 28.3259 2.51435C28.1654 2.51435 28.0219 2.54916 27.8955 2.61876C27.7705 2.68836 27.6718 2.78992 27.5993 2.92345C27.5269 3.05697 27.4907 3.2189 27.4907 3.40924ZM6.73435 9.10526C6.70878 8.88935 6.60509 8.72174 6.42327 8.60242C6.24146 8.4831 6.01844 8.42345 5.75424 8.42345C5.56106 8.42345 5.39202 8.4547 5.24714 8.5172C5.10367 8.5797 4.99146 8.66563 4.91049 8.77501C4.83094 8.88438 4.79117 9.00867 4.79117 9.14788C4.79117 9.26435 4.81887 9.3645 4.87427 9.4483C4.93109 9.53069 5.00353 9.59958 5.0916 9.65498C5.17967 9.70896 5.27199 9.7537 5.36859 9.78921C5.46518 9.8233 5.55396 9.851 5.63492 9.87231L6.0781 9.99163C6.19174 10.0215 6.31816 10.0626 6.45736 10.1152C6.59799 10.1678 6.73222 10.2395 6.86006 10.3304C6.98932 10.4199 7.09586 10.535 7.17967 10.6756C7.26347 10.8162 7.30538 10.9888 7.30538 11.1933C7.30538 11.4291 7.24359 11.6422 7.12001 11.8325C6.99785 12.0229 6.81887 12.1742 6.58307 12.2864C6.3487 12.3986 6.0639 12.4547 5.72867 12.4547C5.41617 12.4547 5.14557 12.4043 4.91688 12.3034C4.68961 12.2026 4.51063 12.0619 4.37995 11.8815C4.25069 11.7011 4.17753 11.4916 4.16049 11.253H4.70594C4.72015 11.4178 4.77555 11.5541 4.87214 11.6621C4.97015 11.7686 5.09373 11.8482 5.24288 11.9007C5.39344 11.9519 5.55538 11.9774 5.72867 11.9774C5.93038 11.9774 6.11148 11.9448 6.27199 11.8794C6.43251 11.8126 6.55964 11.7203 6.65339 11.6024C6.74714 11.4831 6.79401 11.3439 6.79401 11.1848C6.79401 11.0399 6.75353 10.922 6.67256 10.8311C6.5916 10.7402 6.48506 10.6663 6.35296 10.6095C6.22086 10.5527 6.0781 10.503 5.92469 10.4604L5.38776 10.307C5.04685 10.209 4.77697 10.069 4.5781 9.88722C4.37924 9.70541 4.27981 9.46748 4.27981 9.17345C4.27981 8.92913 4.34586 8.71606 4.47796 8.53424C4.61148 8.351 4.79046 8.20896 5.01489 8.1081C5.24074 8.00583 5.49288 7.9547 5.77128 7.9547C6.05253 7.9547 6.30253 8.00512 6.52128 8.10597C6.74003 8.20541 6.91333 8.34177 7.04117 8.51506C7.17043 8.68836 7.23861 8.88509 7.24572 9.10526H6.73435ZM9.43552 12.4462C9.14007 12.4462 8.88084 12.3759 8.65783 12.2352C8.43623 12.0946 8.26294 11.8979 8.13794 11.645C8.01436 11.3922 7.95257 11.0967 7.95257 10.7587C7.95257 10.4178 8.01436 10.1202 8.13794 9.86592C8.26294 9.61166 8.43623 9.41421 8.65783 9.27359C8.88084 9.13296 9.14007 9.06265 9.43552 9.06265C9.73098 9.06265 9.9895 9.13296 10.2111 9.27359C10.4341 9.41421 10.6074 9.61166 10.731 9.86592C10.856 10.1202 10.9185 10.4178 10.9185 10.7587C10.9185 11.0967 10.856 11.3922 10.731 11.645C10.6074 11.8979 10.4341 12.0946 10.2111 12.2352C9.9895 12.3759 9.73098 12.4462 9.43552 12.4462ZM9.43552 11.9945C9.65996 11.9945 9.84462 11.9369 9.9895 11.8219C10.1344 11.7068 10.2416 11.5555 10.3112 11.368C10.3808 11.1805 10.4156 10.9774 10.4156 10.7587C10.4156 10.5399 10.3808 10.3361 10.3112 10.1472C10.2416 9.95825 10.1344 9.80555 9.9895 9.68907C9.84462 9.57259 9.65996 9.51435 9.43552 9.51435C9.21109 9.51435 9.02643 9.57259 8.88155 9.68907C8.73666 9.80555 8.62942 9.95825 8.55981 10.1472C8.49021 10.3361 8.45541 10.5399 8.45541 10.7587C8.45541 10.9774 8.49021 11.1805 8.55981 11.368C8.62942 11.5555 8.73666 11.7068 8.88155 11.8219C9.02643 11.9369 9.21109 11.9945 9.43552 11.9945ZM12.1889 8.01435V12.378H11.6861V8.01435H12.1889ZM15.1724 11.0399V9.10526H15.6752V12.378H15.1724V11.824H15.1383C15.0616 11.9902 14.9423 12.1315 14.7803 12.248C14.6184 12.3631 14.4139 12.4206 14.1667 12.4206C13.9622 12.4206 13.7803 12.3759 13.6212 12.2864C13.4622 12.1955 13.3372 12.0591 13.2462 11.8773C13.1553 11.694 13.1099 11.4632 13.1099 11.1848V9.10526H13.6127V11.1507C13.6127 11.3894 13.6795 11.5797 13.813 11.7217C13.948 11.8638 14.1198 11.9348 14.3286 11.9348C14.4536 11.9348 14.5808 11.9028 14.71 11.8389C14.8407 11.775 14.9501 11.677 15.0382 11.5449C15.1276 11.4128 15.1724 11.2445 15.1724 11.0399ZM18.0195 9.10526V9.5314H16.3235V9.10526H18.0195ZM16.8178 8.32117H17.3206V11.4405C17.3206 11.5825 17.3412 11.6891 17.3824 11.7601C17.425 11.8297 17.479 11.8766 17.5444 11.9007C17.6111 11.9234 17.6814 11.9348 17.7553 11.9348C17.8107 11.9348 17.8562 11.932 17.8917 11.9263C17.9272 11.9192 17.9556 11.9135 17.9769 11.9092L18.0792 12.3609C18.0451 12.3737 17.9975 12.3865 17.9364 12.3993C17.8753 12.4135 17.7979 12.4206 17.7042 12.4206C17.5621 12.4206 17.4229 12.3901 17.2866 12.329C17.1516 12.2679 17.0394 12.1749 16.9499 12.0499C16.8618 11.9249 16.8178 11.7672 16.8178 11.5769V8.32117ZM18.7759 12.378V9.10526H19.2787V12.378H18.7759ZM19.0316 8.55981C18.9336 8.55981 18.8491 8.52643 18.778 8.45967C18.7084 8.39291 18.6736 8.31265 18.6736 8.2189C18.6736 8.12515 18.7084 8.04489 18.778 7.97813C18.8491 7.91137 18.9336 7.87799 19.0316 7.87799C19.1296 7.87799 19.2134 7.91137 19.283 7.97813C19.354 8.04489 19.3895 8.12515 19.3895 8.2189C19.3895 8.31265 19.354 8.39291 19.283 8.45967C19.2134 8.52643 19.1296 8.55981 19.0316 8.55981ZM21.5293 12.4462C21.2338 12.4462 20.9746 12.3759 20.7516 12.2352C20.53 12.0946 20.3567 11.8979 20.2317 11.645C20.1081 11.3922 20.0463 11.0967 20.0463 10.7587C20.0463 10.4178 20.1081 10.1202 20.2317 9.86592C20.3567 9.61166 20.53 9.41421 20.7516 9.27359C20.9746 9.13296 21.2338 9.06265 21.5293 9.06265C21.8247 9.06265 22.0833 9.13296 22.3048 9.27359C22.5279 9.41421 22.7011 9.61166 22.8247 9.86592C22.9497 10.1202 23.0122 10.4178 23.0122 10.7587C23.0122 11.0967 22.9497 11.3922 22.8247 11.645C22.7011 11.8979 22.5279 12.0946 22.3048 12.2352C22.0833 12.3759 21.8247 12.4462 21.5293 12.4462ZM21.5293 11.9945C21.7537 11.9945 21.9384 11.9369 22.0833 11.8219C22.2281 11.7068 22.3354 11.5555 22.405 11.368C22.4746 11.1805 22.5094 10.9774 22.5094 10.7587C22.5094 10.5399 22.4746 10.3361 22.405 10.1472C22.3354 9.95825 22.2281 9.80555 22.0833 9.68907C21.9384 9.57259 21.7537 9.51435 21.5293 9.51435C21.3048 9.51435 21.1202 9.57259 20.9753 9.68907C20.8304 9.80555 20.7232 9.95825 20.6536 10.1472C20.584 10.3361 20.5492 10.5399 20.5492 10.7587C20.5492 10.9774 20.584 11.1805 20.6536 11.368C20.7232 11.5555 20.8304 11.7068 20.9753 11.8219C21.1202 11.9369 21.3048 11.9945 21.5293 11.9945ZM24.2826 10.4092V12.378H23.7798V9.10526H24.2656V9.61663H24.3082C24.3849 9.45043 24.5014 9.31691 24.6576 9.21606C24.8139 9.11379 25.0156 9.06265 25.2628 9.06265C25.4844 9.06265 25.6782 9.1081 25.8444 9.19901C26.0106 9.2885 26.1399 9.42487 26.2322 9.6081C26.3246 9.78992 26.3707 10.02 26.3707 10.2984V12.378H25.8679V10.3325C25.8679 10.0754 25.8011 9.87515 25.6676 9.73168C25.5341 9.5868 25.3508 9.51435 25.1179 9.51435C24.9574 9.51435 24.8139 9.54916 24.6875 9.61876C24.5625 9.68836 24.4638 9.78992 24.3913 9.92345C24.3189 10.057 24.2826 10.2189 24.2826 10.4092Z" fill="white"/>
</svg>
