<svg width="64" height="64" fill="none" xmlns="http://www.w3.org/2000/svg"><g clip-path="url(#a)"><g opacity=".2" filter="url(#b)"><path d="M17 40c0-8.284 6.716-15 15-15 8.284 0 15 6.716 15 15v2c0 8.284-6.716 15-15 15-8.284 0-15-6.716-15-15v-2Z" fill="#133440"/></g><path fill-rule="evenodd" clip-rule="evenodd" d="M30.5 3.5a1.5 1.5 0 0 1 3 0V10h-3V3.5ZM16 5.5a1.5 1.5 0 0 1 3 0V10h-3V5.5ZM46.5 3A1.5 1.5 0 0 0 45 4.5V10h3V4.5A1.5 1.5 0 0 0 46.5 3Zm-16 57.5a1.5 1.5 0 0 0 3 0V54h-3v6.5Zm-14.5-2a1.5 1.5 0 0 0 3 0V54h-3v4.5ZM46.5 61a1.5 1.5 0 0 1-1.5-1.5V54h3v5.5a1.5 1.5 0 0 1-1.5 1.5Z" fill="#111010"/><path fill-rule="evenodd" clip-rule="evenodd" d="M61.5 22a1.5 1.5 0 0 1 0 3H54v-3h7.5Zm0 16a1.5 1.5 0 0 1 0 3H54v-3h7.5Zm-59-15a1.5 1.5 0 0 0 0 3H10v-3H2.5Zm0 16a1.5 1.5 0 0 0 0 3H10v-3H2.5Z" fill="#5159F6"/><path d="M11 12a1 1 0 0 1 1-1h40a1 1 0 0 1 1 1v40a1 1 0 0 1-1 1H12a1 1 0 0 1-1-1V12Z" fill="url(#c)"/><path d="M32 11h20a1 1 0 0 1 1 1v40a1 1 0 0 1-1 1H32V11Z" fill="url(#d)"/><path fill-rule="evenodd" clip-rule="evenodd" d="M24.485 23.586a2 2 0 0 1 0 2.828l-5.657 5.657 5.657 5.657a2 2 0 0 1-2.828 2.828l-8.485-8.485 8.485-8.485a2 2 0 0 1 2.828 0Z" fill="#22DBC8"/><path fill-rule="evenodd" clip-rule="evenodd" d="M39.657 23.586a2 2 0 0 0 0 2.828l5.657 5.657-5.657 5.657a2 2 0 0 0 2.828 2.828l8.486-8.485-8.486-8.485a2 2 0 0 0-2.828 0Z" fill="#B3FEF7"/><path d="M32 22h4l-4 21h-4l4-21Z" fill="#3EA2A8"/></g><defs><linearGradient id="c" x1="32" y1="-6.5" x2="32" y2="69.5" gradientUnits="userSpaceOnUse"><stop stop-color="#B3FEF7"/><stop offset="1" stop-color="#22DBC8"/></linearGradient><linearGradient id="d" x1="42.5" y1="4.636" x2="42.5" y2="75.909" gradientUnits="userSpaceOnUse"><stop stop-color="#67EADD"/><stop offset="1" stop-color="#3EA2A8"/></linearGradient><clipPath id="a"><path fill="#fff" d="M0 0h64v64H0z"/></clipPath><filter id="b" x="7.9" y="15.9" width="48.2" height="50.2" filterUnits="userSpaceOnUse" color-interpolation-filters="sRGB"><feFlood flood-opacity="0" result="BackgroundImageFix"/><feBlend in="SourceGraphic" in2="BackgroundImageFix" result="shape"/><feGaussianBlur stdDeviation="4.55" result="effect1_foregroundBlur_3934_25726"/></filter></defs></svg>
