<svg width="131" height="130" viewBox="0 0 131 130" fill="none" xmlns="http://www.w3.org/2000/svg">
<g clip-path="url(#clip0_3035_1135)">
<path fill-rule="evenodd" clip-rule="evenodd" d="M98.3047 2.5H113.93H113.992V6.125C113.992 22.0625 102.055 35.125 86.6797 37C86.5472 37.0161 86.4477 37.0241 86.3177 37.0346C86.2297 37.0417 86.1277 37.0499 85.9922 37.0625C83.3047 37.3125 74.8047 39.125 72.1172 51.6875C71.1172 56.1875 70.8672 61.0625 70.9922 65.6875C78.4297 51.6875 93.1797 42.125 110.117 42.125H130.117V46.6875C130.117 68.625 112.242 86.4375 90.3047 86.4375H41.1797C19.1797 86.4375 1.36719 68.5625 1.36719 46.625V42.0625H21.4297C40.1172 42.0625 56.1172 53.6875 62.6172 70.0625V37C62.6172 16.1875 79.2422 2.5 98.3047 2.5ZM38.4297 10.6875L24.0547 7.125H23.9922C22.2422 14.25 23.5547 21.4375 27.0547 27.3125C30.6172 33.1875 36.3672 37.6875 43.4922 39.5L55.2422 42.4375L55.9297 39.75C59.1172 26.875 51.3047 13.875 38.4297 10.6875ZM101.055 98.5H30.3672V98.5625L37.7422 116.875C40.3047 123.312 46.5547 127.5 53.4922 127.5H77.9297C84.8672 127.5 91.1172 123.312 93.6797 116.875L101.055 98.5Z" fill="#081008"/>
</g>
<defs>
<clipPath id="clip0_3035_1135">
<rect width="130" height="130" fill="white" transform="translate(0.742188)"/>
</clipPath>
</defs>
</svg>
