<svg width="30" height="12" viewBox="0 0 30 12" fill="none" xmlns="http://www.w3.org/2000/svg">
<path d="M0.942494 4.87811H0.388517L1.99079 0.514476H2.53624L4.13852 4.87811H3.58454L2.28056 1.20482H2.24647L0.942494 4.87811ZM1.14704 3.17357H3.37999V3.64232H1.14704V3.17357ZM6.81252 3.54004V1.60539H7.31536V4.87811H6.81252V4.32414H6.77843C6.70173 4.49033 6.58241 4.63166 6.42048 4.74814C6.25854 4.8632 6.054 4.92073 5.80684 4.92073C5.60229 4.92073 5.42048 4.87598 5.26139 4.78649C5.10229 4.69558 4.97729 4.55922 4.88639 4.3774C4.79548 4.19416 4.75002 3.96334 4.75002 3.68493V1.60539H5.25286V3.65084C5.25286 3.88948 5.31962 4.07982 5.45315 4.22186C5.58809 4.36391 5.75997 4.43493 5.96877 4.43493C6.09377 4.43493 6.2209 4.40297 6.35016 4.33905C6.48085 4.27513 6.59022 4.17712 6.67829 4.04502C6.76778 3.91291 6.81252 3.74459 6.81252 3.54004ZM9.47215 4.94629C9.19942 4.94629 8.95865 4.8774 8.74984 4.73962C8.54104 4.60041 8.37769 4.40439 8.25979 4.15155C8.14189 3.89729 8.08294 3.59686 8.08294 3.25027C8.08294 2.90652 8.14189 2.60823 8.25979 2.35539C8.37769 2.10254 8.54175 1.90723 8.75198 1.76945C8.9622 1.63166 9.2051 1.56277 9.48067 1.56277C9.69374 1.56277 9.86206 1.59828 9.98564 1.66931C10.1106 1.73891 10.2058 1.81845 10.2712 1.90794C10.3379 1.99601 10.3898 2.06845 10.4267 2.12527H10.4693V0.514476H10.9721V4.87811H10.4864V4.37527H10.4267C10.3898 4.43493 10.3372 4.51022 10.269 4.60112C10.2008 4.69061 10.1035 4.77087 9.97712 4.84189C9.8507 4.91149 9.68237 4.94629 9.47215 4.94629ZM9.54033 4.49459C9.74203 4.49459 9.91249 4.44203 10.0517 4.33692C10.1909 4.23039 10.2967 4.08337 10.3692 3.89587C10.4416 3.70695 10.4778 3.48891 10.4778 3.24175C10.4778 2.99743 10.4423 2.78365 10.3713 2.60041C10.3003 2.41575 10.1952 2.27229 10.056 2.17002C9.91675 2.06632 9.74487 2.01448 9.54033 2.01448C9.32726 2.01448 9.1497 2.06916 9.00766 2.17854C8.86703 2.28649 8.76121 2.43351 8.69019 2.61959C8.62058 2.80425 8.58578 3.01164 8.58578 3.24175C8.58578 3.4747 8.62129 3.68635 8.69232 3.87669C8.76476 4.06561 8.87129 4.21618 9.01192 4.3284C9.15396 4.43919 9.3301 4.49459 9.54033 4.49459ZM11.9629 4.87811V1.60539H12.4658V4.87811H11.9629ZM12.2186 1.05993C12.1206 1.05993 12.0361 1.02655 11.965 0.959789C11.8954 0.893028 11.8606 0.812772 11.8606 0.719022C11.8606 0.625272 11.8954 0.545016 11.965 0.478255C12.0361 0.411493 12.1206 0.378113 12.2186 0.378113C12.3166 0.378113 12.4004 0.411493 12.47 0.478255C12.541 0.545016 12.5765 0.625272 12.5765 0.719022C12.5765 0.812772 12.541 0.893028 12.47 0.959789C12.4004 1.02655 12.3166 1.05993 12.2186 1.05993ZM14.7163 4.94629C14.4208 4.94629 14.1616 4.87598 13.9386 4.73536C13.717 4.59473 13.5437 4.398 13.4187 4.14516C13.2951 3.89232 13.2333 3.59686 13.2333 3.25879C13.2333 2.91789 13.2951 2.6203 13.4187 2.36604C13.5437 2.11178 13.717 1.91433 13.9386 1.77371C14.1616 1.63308 14.4208 1.56277 14.7163 1.56277C15.0117 1.56277 15.2703 1.63308 15.4919 1.77371C15.7149 1.91433 15.8882 2.11178 16.0117 2.36604C16.1367 2.6203 16.1992 2.91789 16.1992 3.25879C16.1992 3.59686 16.1367 3.89232 16.0117 4.14516C15.8882 4.398 15.7149 4.59473 15.4919 4.73536C15.2703 4.87598 15.0117 4.94629 14.7163 4.94629ZM14.7163 4.49459C14.9407 4.49459 15.1254 4.43706 15.2703 4.322C15.4152 4.20695 15.5224 4.05567 15.592 3.86817C15.6616 3.68067 15.6964 3.47754 15.6964 3.25879C15.6964 3.04004 15.6616 2.83621 15.592 2.64729C15.5224 2.45837 15.4152 2.30567 15.2703 2.18919C15.1254 2.07271 14.9407 2.01448 14.7163 2.01448C14.4919 2.01448 14.3072 2.07271 14.1623 2.18919C14.0174 2.30567 13.9102 2.45837 13.8406 2.64729C13.771 2.83621 13.7362 3.04004 13.7362 3.25879C13.7362 3.47754 13.771 3.68067 13.8406 3.86817C13.9102 4.05567 14.0174 4.20695 14.1623 4.322C14.3072 4.43706 14.4919 4.49459 14.7163 4.49459ZM21.7055 1.87811C21.6586 1.73465 21.5968 1.6061 21.5201 1.49246C21.4448 1.3774 21.3546 1.27939 21.2495 1.19843C21.1458 1.11746 21.0279 1.05567 20.8958 1.01306C20.7637 0.970442 20.6188 0.949135 20.4611 0.949135C20.2026 0.949135 19.9675 1.0159 19.7559 1.14942C19.5442 1.28294 19.3759 1.47968 19.2509 1.73962C19.1259 1.99956 19.0634 2.31845 19.0634 2.69629C19.0634 3.07414 19.1266 3.39303 19.253 3.65297C19.3795 3.91291 19.5506 4.10965 19.7665 4.24317C19.9824 4.37669 20.2253 4.44345 20.4952 4.44345C20.7452 4.44345 20.9654 4.39019 21.1557 4.28365C21.3475 4.1757 21.4966 4.02371 21.6032 3.82769C21.7111 3.63024 21.7651 3.398 21.7651 3.13095L21.927 3.16504H20.6145V2.69629H22.2765V3.16504C22.2765 3.52442 22.1998 3.83692 22.0464 4.10254C21.8944 4.36817 21.6841 4.57414 21.4157 4.72044C21.1486 4.86533 20.8418 4.93777 20.4952 4.93777C20.1089 4.93777 19.7694 4.84686 19.4768 4.66504C19.1856 4.48323 18.9583 4.2247 18.7949 3.88948C18.633 3.55425 18.552 3.15652 18.552 2.69629C18.552 2.35112 18.5982 2.04075 18.6905 1.76519C18.7843 1.4882 18.9164 1.2524 19.0868 1.0578C19.2573 0.863198 19.459 0.71405 19.692 0.610357C19.9249 0.506664 20.1813 0.454817 20.4611 0.454817C20.6913 0.454817 20.9057 0.489618 21.1046 0.559221C21.3049 0.627402 21.4832 0.724703 21.6394 0.851124C21.7971 0.976124 21.9285 1.12598 22.0336 1.3007C22.1387 1.47399 22.2111 1.66647 22.2509 1.87811H21.7055ZM24.4855 4.94629C24.1701 4.94629 23.8981 4.87669 23.6694 4.73749C23.4421 4.59686 23.2667 4.40084 23.1431 4.14942C23.021 3.89658 22.9599 3.60254 22.9599 3.26732C22.9599 2.93209 23.021 2.63664 23.1431 2.38095C23.2667 2.12385 23.4386 1.92357 23.6588 1.7801C23.8803 1.63522 24.1389 1.56277 24.4343 1.56277C24.6048 1.56277 24.7731 1.59118 24.9393 1.648C25.1055 1.70482 25.2568 1.79715 25.3931 1.92499C25.5295 2.05141 25.6382 2.21902 25.7191 2.42783C25.8001 2.63664 25.8406 2.89374 25.8406 3.19914V3.4122H23.3178V2.97754H25.3292C25.3292 2.79289 25.2923 2.62811 25.2184 2.48323C25.146 2.33834 25.0423 2.22399 24.9073 2.14019C24.7738 2.05638 24.6161 2.01448 24.4343 2.01448C24.234 2.01448 24.0607 2.06419 23.9144 2.16362C23.7696 2.26164 23.658 2.38948 23.5799 2.54715C23.5018 2.70482 23.4627 2.87385 23.4627 3.05425V3.34402C23.4627 3.59118 23.5053 3.8007 23.5906 3.97257C23.6772 4.14303 23.7973 4.273 23.9507 4.36249C24.1041 4.45056 24.2823 4.49459 24.4855 4.49459C24.6176 4.49459 24.7369 4.47612 24.8434 4.43919C24.9514 4.40084 25.0444 4.34402 25.1225 4.26874C25.2007 4.19203 25.261 4.09686 25.3036 3.98323L25.7894 4.11959C25.7383 4.28436 25.6524 4.42925 25.5316 4.55425C25.4109 4.67783 25.2617 4.77442 25.0842 4.84402C24.9066 4.9122 24.7071 4.94629 24.4855 4.94629ZM27.1083 2.90936V4.87811H26.6055V1.60539H27.0913V2.11675H27.1339C27.2106 1.95056 27.3271 1.81703 27.4833 1.71618C27.6396 1.61391 27.8413 1.56277 28.0884 1.56277C28.31 1.56277 28.5039 1.60823 28.6701 1.69914C28.8363 1.78862 28.9656 1.92499 29.0579 2.10823C29.1502 2.29004 29.1964 2.52016 29.1964 2.79857V4.87811H28.6936V2.83266C28.6936 2.57556 28.6268 2.37527 28.4933 2.23181C28.3598 2.08692 28.1765 2.01448 27.9436 2.01448C27.783 2.01448 27.6396 2.04928 27.5132 2.11888C27.3882 2.18848 27.2894 2.29004 27.217 2.42357C27.1446 2.55709 27.1083 2.71902 27.1083 2.90936ZM3.6948 8.60539C3.66923 8.38948 3.56554 8.22186 3.38372 8.10254C3.2019 7.98323 2.97889 7.92357 2.71469 7.92357C2.52151 7.92357 2.35247 7.95482 2.20759 8.01732C2.06412 8.07982 1.9519 8.16575 1.87094 8.27513C1.79139 8.3845 1.75162 8.50879 1.75162 8.648C1.75162 8.76448 1.77932 8.86462 1.83472 8.94843C1.89153 9.03081 1.96398 9.0997 2.05205 9.1551C2.14011 9.20908 2.23244 9.25382 2.32904 9.28933C2.42563 9.32343 2.5144 9.35112 2.59537 9.37243L3.03855 9.49175C3.15219 9.52158 3.27861 9.56277 3.41781 9.61533C3.55844 9.66789 3.69267 9.73962 3.82051 9.83053C3.94977 9.92002 4.05631 10.0351 4.14011 10.1757C4.22392 10.3163 4.26582 10.4889 4.26582 10.6935C4.26582 10.9292 4.20404 11.1423 4.08046 11.3327C3.9583 11.523 3.77932 11.6743 3.54352 11.7865C3.30915 11.8987 3.02435 11.9548 2.68912 11.9548C2.37662 11.9548 2.10602 11.9044 1.87733 11.8035C1.65006 11.7027 1.47108 11.5621 1.3404 11.3817C1.21114 11.2013 1.13798 10.9917 1.12094 10.7531H1.66639C1.6806 10.9179 1.736 11.0542 1.83259 11.1622C1.9306 11.2687 2.05418 11.3483 2.20332 11.4008C2.35389 11.452 2.51582 11.4775 2.68912 11.4775C2.89082 11.4775 3.07193 11.4449 3.23244 11.3795C3.39296 11.3128 3.52009 11.2204 3.61384 11.1025C3.70759 10.9832 3.75446 10.844 3.75446 10.6849C3.75446 10.54 3.71398 10.4221 3.63301 10.3312C3.55205 10.2403 3.44551 10.1665 3.31341 10.1096C3.18131 10.0528 3.03855 10.0031 2.88514 9.9605L2.34821 9.80709C2.0073 9.70908 1.73742 9.56916 1.53855 9.38735C1.33969 9.20553 1.24026 8.9676 1.24026 8.67357C1.24026 8.42925 1.30631 8.21618 1.43841 8.03436C1.57193 7.85112 1.75091 7.70908 1.97534 7.60823C2.20119 7.50595 2.45332 7.45482 2.73173 7.45482C3.01298 7.45482 3.26298 7.50524 3.48173 7.6061C3.70048 7.70553 3.87378 7.84189 4.00162 8.01519C4.13088 8.18848 4.19906 8.38521 4.20617 8.60539H3.6948ZM6.39597 11.9463C6.10052 11.9463 5.84129 11.876 5.61828 11.7354C5.39668 11.5947 5.22339 11.398 5.09839 11.1452C4.97481 10.8923 4.91302 10.5969 4.91302 10.2588C4.91302 9.91789 4.97481 9.6203 5.09839 9.36604C5.22339 9.11178 5.39668 8.91433 5.61828 8.77371C5.84129 8.63308 6.10052 8.56277 6.39597 8.56277C6.69143 8.56277 6.94995 8.63308 7.17154 8.77371C7.39455 8.91433 7.56785 9.11178 7.69143 9.36604C7.81643 9.6203 7.87893 9.91789 7.87893 10.2588C7.87893 10.5969 7.81643 10.8923 7.69143 11.1452C7.56785 11.398 7.39455 11.5947 7.17154 11.7354C6.94995 11.876 6.69143 11.9463 6.39597 11.9463ZM6.39597 11.4946C6.62041 11.4946 6.80506 11.4371 6.94995 11.322C7.09484 11.2069 7.20208 11.0557 7.27168 10.8682C7.34129 10.6807 7.37609 10.4775 7.37609 10.2588C7.37609 10.04 7.34129 9.83621 7.27168 9.64729C7.20208 9.45837 7.09484 9.30567 6.94995 9.18919C6.80506 9.07271 6.62041 9.01448 6.39597 9.01448C6.17154 9.01448 5.98688 9.07271 5.842 9.18919C5.69711 9.30567 5.58987 9.45837 5.52026 9.64729C5.45066 9.83621 5.41586 10.04 5.41586 10.2588C5.41586 10.4775 5.45066 10.6807 5.52026 10.8682C5.58987 11.0557 5.69711 11.2069 5.842 11.322C5.98688 11.4371 6.17154 11.4946 6.39597 11.4946ZM9.14935 7.51448V11.8781H8.64651V7.51448H9.14935ZM12.1328 10.54V8.60539H12.6357V11.8781H12.1328V11.3241H12.0987C12.022 11.4903 11.9027 11.6317 11.7408 11.7481C11.5789 11.8632 11.3743 11.9207 11.1272 11.9207C10.9226 11.9207 10.7408 11.876 10.5817 11.7865C10.4226 11.6956 10.2976 11.5592 10.2067 11.3774C10.1158 11.1942 10.0703 10.9633 10.0703 10.6849V8.60539H10.5732V10.6508C10.5732 10.8895 10.6399 11.0798 10.7735 11.2219C10.9084 11.3639 11.0803 11.4349 11.2891 11.4349C11.4141 11.4349 11.5412 11.403 11.6705 11.3391C11.8012 11.2751 11.9105 11.1771 11.9986 11.045C12.0881 10.9129 12.1328 10.7446 12.1328 10.54ZM14.98 8.60539V9.03152H13.2839V8.60539H14.98ZM13.7783 7.82129H14.2811V10.9406C14.2811 11.0827 14.3017 11.1892 14.3429 11.2602C14.3855 11.3298 14.4395 11.3767 14.5048 11.4008C14.5716 11.4236 14.6419 11.4349 14.7158 11.4349C14.7712 11.4349 14.8166 11.4321 14.8521 11.4264C14.8876 11.4193 14.916 11.4136 14.9373 11.4094L15.0396 11.8611C15.0055 11.8739 14.9579 11.8866 14.8969 11.8994C14.8358 11.9136 14.7584 11.9207 14.6646 11.9207C14.5226 11.9207 14.3834 11.8902 14.247 11.8291C14.1121 11.768 13.9998 11.675 13.9104 11.55C13.8223 11.425 13.7783 11.2673 13.7783 11.077V7.82129ZM15.7364 11.8781V8.60539H16.2392V11.8781H15.7364ZM15.992 8.05993C15.894 8.05993 15.8095 8.02655 15.7385 7.95979C15.6689 7.89303 15.6341 7.81277 15.6341 7.71902C15.6341 7.62527 15.6689 7.54502 15.7385 7.47825C15.8095 7.41149 15.894 7.37811 15.992 7.37811C16.09 7.37811 16.1739 7.41149 16.2435 7.47825C16.3145 7.54502 16.35 7.62527 16.35 7.71902C16.35 7.81277 16.3145 7.89303 16.2435 7.95979C16.1739 8.02655 16.09 8.05993 15.992 8.05993ZM18.4897 11.9463C18.1943 11.9463 17.935 11.876 17.712 11.7354C17.4904 11.5947 17.3171 11.398 17.1921 11.1452C17.0686 10.8923 17.0068 10.5969 17.0068 10.2588C17.0068 9.91789 17.0686 9.6203 17.1921 9.36604C17.3171 9.11178 17.4904 8.91433 17.712 8.77371C17.935 8.63308 18.1943 8.56277 18.4897 8.56277C18.7852 8.56277 19.0437 8.63308 19.2653 8.77371C19.4883 8.91433 19.6616 9.11178 19.7852 9.36604C19.9102 9.6203 19.9727 9.91789 19.9727 10.2588C19.9727 10.5969 19.9102 10.8923 19.7852 11.1452C19.6616 11.398 19.4883 11.5947 19.2653 11.7354C19.0437 11.876 18.7852 11.9463 18.4897 11.9463ZM18.4897 11.4946C18.7142 11.4946 18.8988 11.4371 19.0437 11.322C19.1886 11.2069 19.2958 11.0557 19.3654 10.8682C19.435 10.6807 19.4698 10.4775 19.4698 10.2588C19.4698 10.04 19.435 9.83621 19.3654 9.64729C19.2958 9.45837 19.1886 9.30567 19.0437 9.18919C18.8988 9.07271 18.7142 9.01448 18.4897 9.01448C18.2653 9.01448 18.0806 9.07271 17.9357 9.18919C17.7909 9.30567 17.6836 9.45837 17.614 9.64729C17.5444 9.83621 17.5096 10.04 17.5096 10.2588C17.5096 10.4775 17.5444 10.6807 17.614 10.8682C17.6836 11.0557 17.7909 11.2069 17.9357 11.322C18.0806 11.4371 18.2653 11.4946 18.4897 11.4946ZM21.2431 9.90936V11.8781H20.7403V8.60539H21.2261V9.11675H21.2687C21.3454 8.95056 21.4618 8.81703 21.6181 8.71618C21.7743 8.61391 21.9761 8.56277 22.2232 8.56277C22.4448 8.56277 22.6387 8.60823 22.8049 8.69914C22.9711 8.78862 23.1003 8.92499 23.1927 9.10823C23.285 9.29004 23.3312 9.52016 23.3312 9.79857V11.8781H22.8283V9.83266C22.8283 9.57556 22.7616 9.37527 22.628 9.23181C22.4945 9.08692 22.3113 9.01448 22.0783 9.01448C21.9178 9.01448 21.7743 9.04928 21.6479 9.11888C21.5229 9.18848 21.4242 9.29004 21.3518 9.42357C21.2793 9.55709 21.2431 9.71902 21.2431 9.90936ZM25.929 11.8781V11.4946L27.3693 9.91789C27.5384 9.73323 27.6776 9.57271 27.787 9.43635C27.8963 9.29857 27.9773 9.16931 28.0299 9.04857C28.0838 8.92641 28.1108 8.79857 28.1108 8.66504C28.1108 8.51164 28.0739 8.37882 28 8.26661C27.9276 8.15439 27.8281 8.06774 27.7017 8.00666C27.5753 7.94558 27.4333 7.91504 27.2756 7.91504C27.108 7.91504 26.9617 7.94985 26.8367 8.01945C26.7131 8.08763 26.6172 8.18351 26.549 8.30709C26.4823 8.43067 26.4489 8.57556 26.4489 8.74175H25.946C25.946 8.48607 26.005 8.26164 26.1229 8.06845C26.2408 7.87527 26.4013 7.7247 26.6044 7.61675C26.809 7.50879 27.0384 7.45482 27.2926 7.45482C27.5483 7.45482 27.7749 7.50879 27.9723 7.61675C28.1698 7.7247 28.3246 7.8703 28.4368 8.05354C28.549 8.23678 28.6051 8.44061 28.6051 8.66504C28.6051 8.82556 28.576 8.98252 28.5178 9.13593C28.461 9.28791 28.3615 9.45766 28.2195 9.64516C28.0789 9.83124 27.8835 10.0585 27.6335 10.327L26.6534 11.3753V11.4094H28.6818V11.8781H25.929Z" fill="white"/>
</svg>
