<svg width="33" height="32" viewBox="0 0 33 32" fill="none" xmlns="http://www.w3.org/2000/svg">
<mask id="mask0_62_25179" style="mask-type:luminance" maskUnits="userSpaceOnUse" x="6" y="4" width="22" height="24">
<path d="M6.35547 4.97772H27.5769V27.7333H6.35547V4.97772Z" fill="white"/>
</mask>
<g mask="url(#mask0_62_25179)">
<path d="M10.7486 23.8162C10.7486 24.503 10.1919 25.0597 9.50516 25.0597C8.81845 25.0597 8.26172 24.503 8.26172 23.8162C8.26172 23.1295 8.81845 22.5728 9.50516 22.5728C10.1919 22.5728 10.7486 23.1295 10.7486 23.8162Z" stroke="white" stroke-width="1.5" stroke-miterlimit="10"/>
<path d="M25.712 23.8161C25.712 24.5028 25.1553 25.0596 24.4685 25.0596C23.7818 25.0596 23.2251 24.5028 23.2251 23.8161C23.2251 23.1294 23.7818 22.5727 24.4685 22.5727C25.1553 22.5727 25.712 23.1294 25.712 23.8161Z" stroke="white" stroke-width="1.5" stroke-miterlimit="10"/>
<path d="M10.749 23.8162H13.2359V19.1389" stroke="white" stroke-width="1.5" stroke-miterlimit="10"/>
<path d="M20.7383 19.1389V23.8162H23.2252" stroke="white" stroke-width="1.5" stroke-miterlimit="10"/>
<path d="M16.9661 23.8576C16.2794 23.8576 15.7227 24.4143 15.7227 25.101C15.7227 25.7877 16.2794 26.3444 16.9661 26.3444C17.6529 26.3444 18.2095 25.7877 18.2095 25.101C18.2095 24.4143 17.6529 23.8576 16.9661 23.8576ZM16.9661 23.8576L16.9661 17.5989" stroke="white" stroke-opacity="0.7" stroke-width="1.5" stroke-miterlimit="10" stroke-linecap="round"/>
<path d="M10.7486 8.89486C10.7486 8.20815 10.1919 7.65141 9.50516 7.65141C8.81845 7.65141 8.26172 8.20815 8.26172 8.89486C8.26172 9.58157 8.81845 10.1383 9.50516 10.1383C10.1919 10.1383 10.7486 9.58157 10.7486 8.89486Z" stroke="white" stroke-width="1.5" stroke-miterlimit="10"/>
<path d="M25.712 8.89486C25.712 8.20815 25.1553 7.65141 24.4685 7.65141C23.7818 7.65141 23.2251 8.20815 23.2251 8.89486C23.2251 9.58157 23.7818 10.1383 24.4685 10.1383C25.1553 10.1383 25.712 9.58157 25.712 8.89486Z" stroke="white" stroke-width="1.5" stroke-miterlimit="10"/>
<path d="M10.749 8.89484H13.2359V13.5721" stroke="white" stroke-width="1.5" stroke-miterlimit="10"/>
<path d="M20.7383 13.5721V8.89484H23.2252" stroke="white" stroke-width="1.5" stroke-miterlimit="10"/>
<path d="M16.9661 8.85335C16.2794 8.85335 15.7227 8.29661 15.7227 7.6099C15.7227 6.92319 16.2794 6.36646 16.9661 6.36646C17.6529 6.36646 18.2095 6.92319 18.2095 7.6099C18.2095 8.29661 17.6529 8.85335 16.9661 8.85335ZM16.9661 8.85335L16.9661 15.112" stroke="white" stroke-opacity="0.7" stroke-width="1.5" stroke-miterlimit="10" stroke-linecap="round"/>
<path d="M14.2564 15.112C13.7589 13.6572 12.3788 12.6251 10.7498 12.6251C9.12432 12.6251 7.76064 13.6648 7.24805 15.112H10.7498V17.5989H7.24805C7.76064 19.0462 9.12432 20.0858 10.7498 20.0858C12.3788 20.0858 13.7589 19.0538 14.2564 17.5989H19.7192C20.2166 19.0538 21.5968 20.0858 23.2257 20.0858C24.8512 20.0858 26.1747 19.0462 26.6872 17.5989H23.2257V15.112H26.6872C26.1747 13.6648 24.8512 12.6251 23.2257 12.6251C21.5968 12.6251 20.2166 13.6571 19.7192 15.112H14.2564Z" stroke="white" stroke-width="1.5" stroke-miterlimit="10"/>
</g>
</svg>
