<svg width="33" height="32" viewBox="0 0 33 32" fill="none" xmlns="http://www.w3.org/2000/svg">
<path d="M11.5112 12.7595L15.7644 15.1899V20.3545L11.5112 17.9241V12.7595Z" stroke="white" stroke-width="1.41772" stroke-miterlimit="10" stroke-linecap="round" stroke-linejoin="round"/>
<path d="M20.0176 12.7595L15.7644 15.1899V20.3545L20.0176 17.9241V12.7595Z" stroke="white" stroke-width="1.41772" stroke-miterlimit="10" stroke-linecap="round" stroke-linejoin="round"/>
<path d="M15.7644 15.1899L11.5112 12.7595L15.7644 10.6329L20.0176 12.7595L15.7644 15.1899Z" stroke="white" stroke-width="1.41772" stroke-miterlimit="10" stroke-linecap="round" stroke-linejoin="round"/>
<path opacity="0.7" d="M16.1556 23.1991L16.1556 27.549M16.1556 27.549L18.2941 25.4105M16.1556 27.549L14.0171 25.4105" stroke="white" stroke-width="1.41772" stroke-miterlimit="10" stroke-linecap="round" stroke-linejoin="round"/>
<path opacity="0.7" d="M16.1554 8.69968L16.1555 4.34985M16.1555 4.34985L14.017 6.48834M16.1555 4.34985L18.2939 6.48827" stroke="white" stroke-width="1.41772" stroke-miterlimit="10" stroke-linecap="round" stroke-linejoin="round"/>
<path opacity="0.7" d="M8.86887 15.9494L4.51904 15.9494M4.51904 15.9494L6.65752 18.0879M4.51904 15.9494L6.65746 13.8109" stroke="white" stroke-width="1.41772" stroke-miterlimit="10" stroke-linecap="round" stroke-linejoin="round"/>
<path opacity="0.7" d="M23.4051 15.9129L27.7549 15.913M27.7549 15.913L25.6164 13.7745M27.7549 15.913L25.6165 18.0515" stroke="white" stroke-width="1.41772" stroke-miterlimit="10" stroke-linecap="round" stroke-linejoin="round"/>
<path opacity="0.7" d="M22.2042 21.8113L27.1181 26.7252M27.1181 26.7252L27.1181 23.7009M27.1181 26.7252L24.0939 26.7253" stroke="white" stroke-width="1.41772" stroke-miterlimit="10" stroke-linecap="round" stroke-linejoin="round"/>
<path opacity="0.7" d="M10.2206 21.8113L5.30669 26.7252M5.30669 26.7252L5.30669 23.7009M5.30669 26.7252L8.33092 26.7253" stroke="white" stroke-width="1.41772" stroke-miterlimit="10" stroke-linecap="round" stroke-linejoin="round"/>
<path opacity="0.7" d="M10.2206 10.0509L5.30669 5.13704M5.30669 5.13704L5.30669 8.16131M5.30669 5.13704L8.33092 5.13699" stroke="white" stroke-width="1.41772" stroke-miterlimit="10" stroke-linecap="round" stroke-linejoin="round"/>
<path opacity="0.7" d="M22.2039 9.86429L27.1177 4.95043M27.1177 4.95043L24.0935 4.95043M27.1177 4.95043L27.1178 7.97465" stroke="white" stroke-width="1.41772" stroke-miterlimit="10" stroke-linecap="round" stroke-linejoin="round"/>
</svg>
