<svg width="33" height="33" viewBox="0 0 33 33" fill="none" xmlns="http://www.w3.org/2000/svg">
<path d="M28.631 12.2581L16.5879 5.77345C16.0806 5.50029 15.47 5.50029 14.9626 5.77346L2.91965 12.2581M28.631 12.2581L16.5879 18.7428C16.0806 19.016 15.47 19.016 14.9626 18.7428L2.91965 12.2581M28.631 12.2581L16.5879 18.7428C16.0806 19.016 15.47 19.016 14.9626 18.7428L2.91965 12.2581" stroke="#0096FF" stroke-width="2" stroke-linejoin="round"/>
<path opacity="0.7" d="M28.631 16.5432L16.5879 23.028C16.0806 23.3012 15.47 23.3012 14.9626 23.028L2.91965 16.5433" stroke="#0096FF" stroke-width="2" stroke-linecap="round" stroke-linejoin="round"/>
<path opacity="0.7" d="M28.6306 20.7544L16.5874 27.2392C16.0801 27.5123 15.4695 27.5123 14.9621 27.2392L2.91916 20.7545" stroke="#0096FF" stroke-width="2" stroke-linecap="round" stroke-linejoin="round"/>
<path opacity="0.7" d="M28.6301 24.7544L16.5869 31.2392C16.0796 31.5123 15.469 31.5123 14.9616 31.2392L2.91867 24.7545" stroke="#0096FF" stroke-width="2" stroke-linecap="round" stroke-linejoin="round"/>
</svg>
