<svg width="26" height="13" viewBox="0 0 26 13" fill="none" xmlns="http://www.w3.org/2000/svg">
<path d="M3.74558 2.37799H3.21717C3.18592 2.226 3.13124 2.09248 3.05311 1.97742C2.97641 1.86237 2.88266 1.76577 2.77186 1.68765C2.66249 1.6081 2.54104 1.54845 2.40752 1.50867C2.27399 1.4689 2.13479 1.44901 1.9899 1.44901C1.7257 1.44901 1.48635 1.51577 1.27186 1.6493C1.05879 1.78282 0.889049 1.97955 0.762629 2.2395C0.637629 2.49944 0.575129 2.81833 0.575129 3.19617C0.575129 3.57401 0.637629 3.89291 0.762629 4.15285C0.889049 4.41279 1.05879 4.60952 1.27186 4.74305C1.48635 4.87657 1.7257 4.94333 1.9899 4.94333C2.13479 4.94333 2.27399 4.92345 2.40752 4.88367C2.54104 4.8439 2.66249 4.78495 2.77186 4.70683C2.88266 4.62728 2.97641 4.52998 3.05311 4.41492C3.13124 4.29845 3.18592 4.16492 3.21717 4.01435H3.74558C3.70581 4.23737 3.63337 4.43694 3.52825 4.61308C3.42314 4.78921 3.29246 4.93907 3.13621 5.06265C2.97996 5.18481 2.80453 5.27785 2.60993 5.34177C2.41675 5.40569 2.21007 5.43765 1.9899 5.43765C1.61774 5.43765 1.28678 5.34674 0.997004 5.16492C0.707231 4.9831 0.479248 4.72458 0.313055 4.38935C0.146862 4.05413 0.0637651 3.6564 0.0637651 3.19617C0.0637651 2.73595 0.146862 2.33822 0.313055 2.00299C0.479248 1.66776 0.707231 1.40924 0.997004 1.22742C1.28678 1.0456 1.61774 0.954695 1.9899 0.954695C2.21007 0.954695 2.41675 0.986655 2.60993 1.05058C2.80453 1.1145 2.97996 1.20825 3.13621 1.33183C3.29246 1.45398 3.42314 1.60313 3.52825 1.77927C3.63337 1.95398 3.70581 2.15356 3.74558 2.37799ZM5.86082 5.44617C5.56536 5.44617 5.30613 5.37586 5.08312 5.23524C4.86153 5.09461 4.68823 4.89788 4.56323 4.64504C4.43965 4.3922 4.37786 4.09674 4.37786 3.75867C4.37786 3.41776 4.43965 3.12018 4.56323 2.86592C4.68823 2.61166 4.86153 2.41421 5.08312 2.27359C5.30613 2.13296 5.56536 2.06265 5.86082 2.06265C6.15627 2.06265 6.41479 2.13296 6.63639 2.27359C6.8594 2.41421 7.03269 2.61166 7.15627 2.86592C7.28127 3.12018 7.34377 3.41776 7.34377 3.75867C7.34377 4.09674 7.28127 4.3922 7.15627 4.64504C7.03269 4.89788 6.8594 5.09461 6.63639 5.23524C6.41479 5.37586 6.15627 5.44617 5.86082 5.44617ZM5.86082 4.99447C6.08525 4.99447 6.26991 4.93694 6.41479 4.82188C6.55968 4.70683 6.66693 4.55555 6.73653 4.36805C6.80613 4.18055 6.84093 3.97742 6.84093 3.75867C6.84093 3.53992 6.80613 3.33609 6.73653 3.14717C6.66693 2.95825 6.55968 2.80555 6.41479 2.68907C6.26991 2.57259 6.08525 2.51435 5.86082 2.51435C5.63639 2.51435 5.45173 2.57259 5.30684 2.68907C5.16195 2.80555 5.05471 2.95825 4.98511 3.14717C4.91551 3.33609 4.8807 3.53992 4.8807 3.75867C4.8807 3.97742 4.91551 4.18055 4.98511 4.36805C5.05471 4.55555 5.16195 4.70683 5.30684 4.82188C5.45173 4.93694 5.63639 4.99447 5.86082 4.99447ZM8.11135 5.37799V2.10526H8.59715V2.61663H8.63976C8.70794 2.44191 8.81803 2.30626 8.97002 2.20967C9.122 2.11166 9.30453 2.06265 9.5176 2.06265C9.73351 2.06265 9.9132 2.11166 10.0567 2.20967C10.2015 2.30626 10.3145 2.44191 10.3954 2.61663H10.4295C10.5133 2.44759 10.639 2.31336 10.8067 2.21393C10.9743 2.11308 11.1753 2.06265 11.4096 2.06265C11.7023 2.06265 11.9416 2.15427 12.1277 2.33751C12.3138 2.51933 12.4068 2.80271 12.4068 3.18765V5.37799H11.904V3.18765C11.904 2.94617 11.8379 2.77359 11.7058 2.66989C11.5737 2.5662 11.4182 2.51435 11.2392 2.51435C11.0091 2.51435 10.8308 2.58396 10.7044 2.72316C10.578 2.86095 10.5148 3.03566 10.5148 3.24731V5.37799H10.0034V3.13651C10.0034 2.95043 9.94303 2.80058 9.82229 2.68694C9.70155 2.57188 9.54601 2.51435 9.35567 2.51435C9.22499 2.51435 9.10283 2.54916 8.98919 2.61876C8.87698 2.68836 8.78607 2.78495 8.71646 2.90853C8.64828 3.03069 8.61419 3.17202 8.61419 3.33254V5.37799H8.11135ZM13.3262 6.60526V2.10526H13.812V2.62515H13.8716C13.9086 2.56833 13.9597 2.49589 14.0251 2.40782C14.0918 2.31833 14.187 2.23879 14.3106 2.16918C14.4356 2.09816 14.6046 2.06265 14.8177 2.06265C15.0932 2.06265 15.3361 2.13154 15.5464 2.26933C15.7566 2.40711 15.9207 2.60242 16.0386 2.85526C16.1564 3.1081 16.2154 3.4064 16.2154 3.75015C16.2154 4.09674 16.1564 4.39717 16.0386 4.65143C15.9207 4.90427 15.7573 5.10029 15.5485 5.2395C15.3397 5.37728 15.0989 5.44617 14.8262 5.44617C14.616 5.44617 14.4476 5.41137 14.3212 5.34177C14.1948 5.27075 14.0975 5.19049 14.0293 5.101C13.9611 5.01009 13.9086 4.93481 13.8716 4.87515H13.829V6.60526H13.3262ZM13.8205 3.74163C13.8205 3.98879 13.8567 4.20683 13.9292 4.39575C14.0016 4.58325 14.1074 4.73026 14.2466 4.8368C14.3859 4.94191 14.5563 4.99447 14.758 4.99447C14.9682 4.99447 15.1437 4.93907 15.2843 4.82827C15.4263 4.71606 15.5329 4.56549 15.6039 4.37657C15.6763 4.18623 15.7126 3.97458 15.7126 3.74163C15.7126 3.51151 15.677 3.30413 15.606 3.11947C15.5364 2.93339 15.4306 2.78637 15.2886 2.67842C15.1479 2.56904 14.9711 2.51435 14.758 2.51435C14.5535 2.51435 14.3816 2.5662 14.2424 2.66989C14.1032 2.77217 13.9981 2.91563 13.927 3.10029C13.856 3.28353 13.8205 3.49731 13.8205 3.74163ZM19.0449 4.03992V2.10526H19.5478V5.37799H19.0449V4.82401H19.0109C18.9341 4.99021 18.8148 5.13154 18.6529 5.24802C18.491 5.36308 18.2864 5.4206 18.0393 5.4206C17.8347 5.4206 17.6529 5.37586 17.4938 5.28637C17.3347 5.19546 17.2097 5.0591 17.1188 4.87728C17.0279 4.69404 16.9824 4.46322 16.9824 4.18481V2.10526H17.4853V4.15072C17.4853 4.38935 17.552 4.5797 17.6856 4.72174C17.8205 4.86379 17.9924 4.93481 18.2012 4.93481C18.3262 4.93481 18.4533 4.90285 18.5826 4.83893C18.7133 4.77501 18.8226 4.677 18.9107 4.54489C19.0002 4.41279 19.0449 4.24447 19.0449 4.03992ZM21.8921 2.10526V2.5314H20.196V2.10526H21.8921ZM20.6904 1.32117H21.1932V4.44049C21.1932 4.58254 21.2138 4.68907 21.255 4.76009C21.2976 4.8297 21.3516 4.87657 21.4169 4.90072C21.4837 4.92345 21.554 4.93481 21.6279 4.93481C21.6833 4.93481 21.7287 4.93197 21.7642 4.92629C21.7997 4.91918 21.8281 4.9135 21.8495 4.90924L21.9517 5.36095C21.9176 5.37373 21.8701 5.38651 21.809 5.3993C21.7479 5.4135 21.6705 5.4206 21.5767 5.4206C21.4347 5.4206 21.2955 5.39006 21.1591 5.32899C21.0242 5.26791 20.912 5.17487 20.8225 5.04987C20.7344 4.92487 20.6904 4.7672 20.6904 4.57685V1.32117ZM23.9855 5.44617C23.6701 5.44617 23.3981 5.37657 23.1694 5.23737C22.9421 5.09674 22.7667 4.90072 22.6431 4.6493C22.521 4.39646 22.4599 4.10242 22.4599 3.7672C22.4599 3.43197 22.521 3.13651 22.6431 2.88083C22.7667 2.62373 22.9386 2.42345 23.1588 2.27998C23.3803 2.13509 23.6389 2.06265 23.9343 2.06265C24.1048 2.06265 24.2731 2.09106 24.4393 2.14788C24.6055 2.2047 24.7568 2.29702 24.8931 2.42487C25.0295 2.55129 25.1382 2.7189 25.2191 2.92771C25.3001 3.13651 25.3406 3.39362 25.3406 3.69901V3.91208H22.8178V3.47742H24.8292C24.8292 3.29276 24.7923 3.12799 24.7184 2.9831C24.646 2.83822 24.5423 2.72387 24.4073 2.64006C24.2738 2.55626 24.1161 2.51435 23.9343 2.51435C23.734 2.51435 23.5607 2.56407 23.4144 2.6635C23.2696 2.76151 23.158 2.88935 23.0799 3.04702C23.0018 3.2047 22.9627 3.37373 22.9627 3.55413V3.8439C22.9627 4.09106 23.0053 4.30058 23.0906 4.47245C23.1772 4.64291 23.2973 4.77288 23.4507 4.86237C23.6041 4.95043 23.7823 4.99447 23.9855 4.99447C24.1176 4.99447 24.2369 4.976 24.3434 4.93907C24.4514 4.90072 24.5444 4.8439 24.6225 4.76862C24.7007 4.69191 24.761 4.59674 24.8036 4.4831L25.2894 4.61947C25.2383 4.78424 25.1524 4.92913 25.0316 5.05413C24.9109 5.17771 24.7617 5.2743 24.5842 5.3439C24.4066 5.41208 24.2071 5.44617 23.9855 5.44617ZM4.9614 9.10526C4.93584 8.88935 4.83214 8.72174 4.65032 8.60242C4.46851 8.4831 4.24549 8.42345 3.98129 8.42345C3.78811 8.42345 3.61907 8.4547 3.47419 8.5172C3.33072 8.5797 3.21851 8.66563 3.13754 8.77501C3.05799 8.88438 3.01822 9.00867 3.01822 9.14788C3.01822 9.26435 3.04592 9.3645 3.10132 9.4483C3.15814 9.53069 3.23058 9.59958 3.31865 9.65498C3.40672 9.70896 3.49905 9.7537 3.59564 9.78921C3.69223 9.8233 3.78101 9.851 3.86197 9.87231L4.30515 9.99163C4.41879 10.0215 4.54521 10.0626 4.68441 10.1152C4.82504 10.1678 4.95927 10.2395 5.08711 10.3304C5.21638 10.4199 5.32291 10.535 5.40672 10.6756C5.49052 10.8162 5.53243 10.9888 5.53243 11.1933C5.53243 11.4291 5.47064 11.6422 5.34706 11.8325C5.2249 12.0229 5.04592 12.1742 4.81013 12.2864C4.57575 12.3986 4.29095 12.4547 3.95572 12.4547C3.64322 12.4547 3.37263 12.4043 3.14393 12.3034C2.91666 12.2026 2.73768 12.0619 2.607 11.8815C2.47774 11.7011 2.40459 11.4916 2.38754 11.253H2.93299C2.9472 11.4178 3.0026 11.5541 3.09919 11.6621C3.1972 11.7686 3.32078 11.8482 3.46993 11.9007C3.62049 11.9519 3.78243 11.9774 3.95572 11.9774C4.15743 11.9774 4.33853 11.9448 4.49905 11.8794C4.65956 11.8126 4.78669 11.7203 4.88044 11.6024C4.97419 11.4831 5.02106 11.3439 5.02106 11.1848C5.02106 11.0399 4.98058 10.922 4.89961 10.8311C4.81865 10.7402 4.71211 10.6663 4.58001 10.6095C4.44791 10.5527 4.30515 10.503 4.15174 10.4604L3.61481 10.307C3.2739 10.209 3.00402 10.069 2.80515 9.88722C2.60629 9.70541 2.50686 9.46748 2.50686 9.17345C2.50686 8.92913 2.57291 8.71606 2.70501 8.53424C2.83853 8.351 3.01751 8.20896 3.24194 8.1081C3.4678 8.00583 3.71993 7.9547 3.99834 7.9547C4.27959 7.9547 4.52959 8.00512 4.74834 8.10597C4.96709 8.20541 5.14038 8.34177 5.26822 8.51506C5.39748 8.68836 5.46567 8.88509 5.47277 9.10526H4.9614ZM7.70519 12.4462C7.38985 12.4462 7.11783 12.3766 6.88914 12.2374C6.66187 12.0967 6.48644 11.9007 6.36286 11.6493C6.2407 11.3965 6.17962 11.1024 6.17962 10.7672C6.17962 10.432 6.2407 10.1365 6.36286 9.88083C6.48644 9.62373 6.65831 9.42345 6.87848 9.27998C7.10008 9.13509 7.3586 9.06265 7.65405 9.06265C7.82451 9.06265 7.99283 9.09106 8.15902 9.14788C8.32522 9.2047 8.4765 9.29702 8.61286 9.42487C8.74922 9.55129 8.85789 9.7189 8.93885 9.92771C9.01982 10.1365 9.0603 10.3936 9.0603 10.699V10.9121H6.53758V10.4774H8.54894C8.54894 10.2928 8.51201 10.128 8.43814 9.9831C8.3657 9.83822 8.26201 9.72387 8.12706 9.64006C7.99354 9.55626 7.83587 9.51435 7.65405 9.51435C7.45377 9.51435 7.28047 9.56407 7.13417 9.6635C6.98928 9.76151 6.87777 9.88935 6.79965 10.047C6.72152 10.2047 6.68246 10.3737 6.68246 10.5541V10.8439C6.68246 11.0911 6.72508 11.3006 6.8103 11.4725C6.89695 11.6429 7.01698 11.7729 7.17039 11.8624C7.3238 11.9504 7.50206 11.9945 7.70519 11.9945C7.83729 11.9945 7.95661 11.976 8.06314 11.9391C8.1711 11.9007 8.26414 11.8439 8.34226 11.7686C8.42039 11.6919 8.48076 11.5967 8.52337 11.4831L9.00917 11.6195C8.95803 11.7842 8.87209 11.9291 8.75135 12.0541C8.63062 12.1777 8.48147 12.2743 8.30391 12.3439C8.12635 12.4121 7.92678 12.4462 7.70519 12.4462ZM9.82522 12.378V9.10526H10.311V9.59958H10.3451C10.4048 9.43765 10.5127 9.30626 10.669 9.20541C10.8252 9.10455 11.0014 9.05413 11.1974 9.05413C11.2343 9.05413 11.2805 9.05484 11.3359 9.05626C11.3913 9.05768 11.4332 9.05981 11.4616 9.06265V9.57401C11.4445 9.56975 11.4055 9.56336 11.3444 9.55484C11.2847 9.54489 11.2215 9.53992 11.1548 9.53992C10.9957 9.53992 10.8536 9.5733 10.7286 9.64006C10.605 9.70541 10.507 9.79631 10.4346 9.91279C10.3636 10.0278 10.3281 10.1592 10.3281 10.307V12.378H9.82522ZM14.8334 9.10526L13.6232 12.378H13.1118L11.9016 9.10526H12.447L13.3504 11.7132H13.3845L14.2879 9.10526H14.8334ZM15.4971 12.378V9.10526H15.9999V12.378H15.4971ZM15.7528 8.55981C15.6548 8.55981 15.5702 8.52643 15.4992 8.45967C15.4296 8.39291 15.3948 8.31265 15.3948 8.2189C15.3948 8.12515 15.4296 8.04489 15.4992 7.97813C15.5702 7.91137 15.6548 7.87799 15.7528 7.87799C15.8508 7.87799 15.9346 7.91137 16.0042 7.97813C16.0752 8.04489 16.1107 8.12515 16.1107 8.2189C16.1107 8.31265 16.0752 8.39291 16.0042 8.45967C15.9346 8.52643 15.8508 8.55981 15.7528 8.55981ZM18.2505 12.4462C17.9436 12.4462 17.6794 12.3737 17.4579 12.2288C17.2363 12.084 17.0658 11.8844 16.9465 11.6301C16.8272 11.3759 16.7675 11.0854 16.7675 10.7587C16.7675 10.4263 16.8286 10.133 16.9508 9.8787C17.0743 9.62302 17.2462 9.42345 17.4664 9.27998C17.688 9.13509 17.9465 9.06265 18.2419 9.06265C18.4721 9.06265 18.6794 9.10526 18.8641 9.19049C19.0488 9.27572 19.2 9.39504 19.3179 9.54845C19.4358 9.70185 19.509 9.88083 19.5374 10.0854H19.0346C18.9962 9.93623 18.911 9.80413 18.7789 9.68907C18.6482 9.57259 18.4721 9.51435 18.2505 9.51435C18.0544 9.51435 17.8826 9.56549 17.7348 9.66776C17.5885 9.76862 17.4742 9.91137 17.3918 10.096C17.3108 10.2793 17.2704 10.4945 17.2704 10.7416C17.2704 10.9945 17.3101 11.2146 17.3897 11.4021C17.4706 11.5896 17.5843 11.7352 17.7306 11.8389C17.8783 11.9426 18.0516 11.9945 18.2505 11.9945C18.3811 11.9945 18.4998 11.9717 18.6063 11.9263C18.7128 11.8808 18.803 11.8155 18.8769 11.7303C18.9508 11.645 19.0033 11.5428 19.0346 11.4234H19.5374C19.509 11.6166 19.4387 11.7906 19.3265 11.9455C19.2157 12.0989 19.0686 12.221 18.8854 12.3119C18.7036 12.4014 18.4919 12.4462 18.2505 12.4462ZM21.6446 12.4462C21.3293 12.4462 21.0573 12.3766 20.8286 12.2374C20.6013 12.0967 20.4259 11.9007 20.3023 11.6493C20.1802 11.3965 20.1191 11.1024 20.1191 10.7672C20.1191 10.432 20.1802 10.1365 20.3023 9.88083C20.4259 9.62373 20.5978 9.42345 20.8179 9.27998C21.0395 9.13509 21.2981 9.06265 21.5935 9.06265C21.764 9.06265 21.9323 9.09106 22.0985 9.14788C22.2647 9.2047 22.4159 9.29702 22.5523 9.42487C22.6887 9.55129 22.7973 9.7189 22.8783 9.92771C22.9593 10.1365 22.9998 10.3936 22.9998 10.699V10.9121H20.477V10.4774H22.4884C22.4884 10.2928 22.4515 10.128 22.3776 9.9831C22.3052 9.83822 22.2015 9.72387 22.0665 9.64006C21.933 9.55626 21.7753 9.51435 21.5935 9.51435C21.3932 9.51435 21.2199 9.56407 21.0736 9.6635C20.9287 9.76151 20.8172 9.88935 20.7391 10.047C20.661 10.2047 20.6219 10.3737 20.6219 10.5541V10.8439C20.6219 11.0911 20.6645 11.3006 20.7498 11.4725C20.8364 11.6429 20.9564 11.7729 21.1098 11.8624C21.2633 11.9504 21.4415 11.9945 21.6446 11.9945C21.7767 11.9945 21.8961 11.976 22.0026 11.9391C22.1106 11.9007 22.2036 11.8439 22.2817 11.7686C22.3598 11.6919 22.4202 11.5967 22.4628 11.4831L22.9486 11.6195C22.8975 11.7842 22.8115 11.9291 22.6908 12.0541C22.5701 12.1777 22.4209 12.2743 22.2434 12.3439C22.0658 12.4121 21.8662 12.4462 21.6446 12.4462Z" fill="white"/>
</svg>
