<svg viewBox="0 0 24 24" fill="none" xmlns="http://www.w3.org/2000/svg">
<path d="M9.75 20.75L11.223 21.5683C11.5066 21.7259 11.6484 21.8046 11.7986 21.8355C11.9315 21.8629 12.0685 21.8629 12.2015 21.8355C12.3516 21.8046 12.4934 21.7259 12.777 21.5683L14.25 20.75M5.25 18.25L3.82297 17.4572C3.52346 17.2908 3.37368 17.2076 3.26463 17.0893C3.16816 16.9846 3.09515 16.8605 3.05048 16.7253C3 16.5725 3 16.4012 3 16.0585V14.5M3 9.49999V7.94144C3 7.5988 3 7.42748 3.05048 7.27468C3.09515 7.1395 3.16816 7.01542 3.26463 6.91073C3.37368 6.79239 3.52345 6.70919 3.82297 6.54279L5.25 5.74999M9.75 3.24999L11.223 2.43168C11.5066 2.27412 11.6484 2.19534 11.7986 2.16445C11.9315 2.13712 12.0685 2.13712 12.2015 2.16445C12.3516 2.19534 12.4934 2.27412 12.777 2.43168L14.25 3.24999M18.75 5.74999L20.177 6.54279C20.4766 6.70919 20.6263 6.79239 20.7354 6.91073C20.8318 7.01542 20.9049 7.1395 20.9495 7.27468C21 7.42747 21 7.59879 21 7.94144V9.49999M21 14.5V16.0585C21 16.4012 21 16.5725 20.9495 16.7253C20.9049 16.8605 20.8318 16.9846 20.7354 17.0893C20.6263 17.2076 20.4766 17.2908 20.177 17.4572L18.75 18.25M9.75 10.75L12 12M12 12L14.25 10.75M12 12V14.5M3 6.99999L5.25 8.24999M18.75 8.24999L21 6.99999M12 19.5V22" stroke="#000000" stroke-width="2" stroke-linecap="round" stroke-linejoin="round"/>
</svg>
