<svg viewBox="0 0 24 24" fill="none" xmlns="http://www.w3.org/2000/svg">
<path d="M19 21H20.0104C20.9815 21 21.4671 21 21.7348 20.7975C21.968 20.6211 22.1123 20.3515 22.1297 20.0596C22.1497 19.7246 21.8804 19.3205 21.3417 18.5125L18.3313 13.9969C17.8862 13.3292 17.6636 12.9954 17.3831 12.8791C17.1378 12.7773 16.8622 12.7773 16.6169 12.8791C16.3364 12.9954 16.1138 13.3292 15.6687 13.9969L14.9245 15.1132M19 21L11.3155 9.90018C10.8736 9.26182 10.6526 8.94264 10.3766 8.83044C10.1351 8.73228 9.86488 8.73228 9.62342 8.83044C9.3474 8.94264 9.12643 9.26182 8.68449 9.90018L2.7382 18.4893C2.17518 19.3025 1.89366 19.7092 1.90969 20.0473C1.92365 20.3419 2.06687 20.6152 2.30107 20.7943C2.57 21 3.06457 21 4.05371 21H19ZM21 6C21 7.65685 19.6569 9 18 9C16.3431 9 15 7.65685 15 6C15 4.34315 16.3431 3 18 3C19.6569 3 21 4.34315 21 6Z" stroke="#000000" stroke-width="2" stroke-linecap="round" stroke-linejoin="round"/>
</svg>
