<svg width="31" height="12" viewBox="0 0 31 12" fill="none" xmlns="http://www.w3.org/2000/svg">
<path d="M1.14105 0.514476V4.87811H0.612638V0.514476H1.14105ZM2.13235 4.87811V1.60539H2.61814V2.11675H2.66076C2.72894 1.94203 2.83902 1.80638 2.99101 1.70979C3.143 1.61178 3.32553 1.56277 3.5386 1.56277C3.75451 1.56277 3.93419 1.61178 4.07766 1.70979C4.22255 1.80638 4.33547 1.94203 4.41644 2.11675H4.45053C4.53434 1.94771 4.66005 1.81348 4.82766 1.71405C4.99527 1.6132 5.19627 1.56277 5.43064 1.56277C5.72326 1.56277 5.9626 1.65439 6.14868 1.83763C6.33476 2.01945 6.4278 2.30283 6.4278 2.68777V4.87811H5.92496V2.68777C5.92496 2.44629 5.85891 2.27371 5.72681 2.17002C5.5947 2.06632 5.43916 2.01448 5.26019 2.01448C5.03007 2.01448 4.85181 2.08408 4.72539 2.22328C4.59897 2.36107 4.53576 2.53578 4.53576 2.74743V4.87811H4.02439V2.63664C4.02439 2.45056 3.96402 2.3007 3.84328 2.18706C3.72255 2.072 3.56701 2.01448 3.37666 2.01448C3.24598 2.01448 3.12382 2.04928 3.01019 2.11888C2.89797 2.18848 2.80706 2.28507 2.73746 2.40865C2.66928 2.53081 2.63519 2.67215 2.63519 2.83266V4.87811H2.13235ZM8.31026 4.95482C8.10287 4.95482 7.91466 4.91575 7.74563 4.83763C7.57659 4.75808 7.44236 4.64374 7.34293 4.49459C7.2435 4.34402 7.19378 4.1622 7.19378 3.94914C7.19378 3.76164 7.23071 3.60965 7.30458 3.49317C7.37844 3.37527 7.47716 3.28294 7.60074 3.21618C7.72432 3.14942 7.86068 3.0997 8.00983 3.06703C8.1604 3.03294 8.31168 3.00595 8.46367 2.98607C8.66253 2.9605 8.82375 2.94132 8.94733 2.92854C9.07233 2.91433 9.16324 2.8909 9.22006 2.85823C9.2783 2.82556 9.30742 2.76874 9.30742 2.68777V2.67073C9.30742 2.4605 9.24989 2.29715 9.13483 2.18067C9.0212 2.06419 8.84861 2.00595 8.61708 2.00595C8.37702 2.00595 8.18881 2.05851 8.05245 2.16362C7.91608 2.26874 7.8202 2.38095 7.7648 2.50027L7.28753 2.32982C7.37276 2.13095 7.48639 1.97612 7.62844 1.86533C7.77191 1.75311 7.92816 1.67499 8.09719 1.63095C8.26764 1.5855 8.43526 1.56277 8.60003 1.56277C8.70514 1.56277 8.82588 1.57556 8.96225 1.60112C9.10003 1.62527 9.23284 1.6757 9.36068 1.7524C9.48995 1.82911 9.59719 1.94487 9.68242 2.0997C9.76764 2.25453 9.81026 2.46192 9.81026 2.72186V4.87811H9.30742V4.43493H9.28185C9.24776 4.50595 9.19094 4.58195 9.11139 4.66291C9.03185 4.74388 8.92603 4.81277 8.79392 4.86959C8.66182 4.92641 8.5006 4.95482 8.31026 4.95482ZM8.38696 4.50311C8.58583 4.50311 8.75344 4.46405 8.8898 4.38593C9.02759 4.3078 9.13128 4.20695 9.20088 4.08337C9.27191 3.95979 9.30742 3.82982 9.30742 3.69345V3.23323C9.28611 3.25879 9.23924 3.28223 9.16679 3.30354C9.09577 3.32343 9.01338 3.34118 8.91963 3.35681C8.8273 3.37101 8.73711 3.38379 8.64904 3.39516C8.56239 3.4051 8.49208 3.41362 8.4381 3.42073C8.30742 3.43777 8.18526 3.46547 8.07162 3.50382C7.95941 3.54075 7.8685 3.59686 7.79889 3.67215C7.73071 3.74601 7.69662 3.84686 7.69662 3.9747C7.69662 4.14942 7.76125 4.28152 7.89051 4.37101C8.0212 4.45908 8.18668 4.50311 8.38696 4.50311ZM12.0491 6.17357C11.8062 6.17357 11.5974 6.14232 11.4227 6.07982C11.2479 6.01874 11.1023 5.93777 10.9859 5.83692C10.8708 5.73749 10.7792 5.63095 10.711 5.51732L11.1116 5.23607C11.157 5.29573 11.2146 5.36391 11.2842 5.44061C11.3538 5.51874 11.4489 5.58621 11.5697 5.64303C11.6918 5.70127 11.8516 5.73039 12.0491 5.73039C12.3133 5.73039 12.5313 5.66647 12.7032 5.53862C12.8751 5.41078 12.961 5.2105 12.961 4.93777V4.273H12.9184C12.8815 4.33266 12.8289 4.40652 12.7607 4.49459C12.694 4.58124 12.5974 4.65865 12.4709 4.72683C12.3459 4.7936 12.1769 4.82698 11.9638 4.82698C11.6996 4.82698 11.4624 4.76448 11.2522 4.63948C11.0434 4.51448 10.8779 4.33266 10.7557 4.09402C10.635 3.85539 10.5746 3.56561 10.5746 3.2247C10.5746 2.88948 10.6336 2.59757 10.7515 2.34899C10.8694 2.09899 11.0334 1.90581 11.2437 1.76945C11.4539 1.63166 11.6968 1.56277 11.9724 1.56277C12.1854 1.56277 12.3545 1.59828 12.4795 1.66931C12.6059 1.73891 12.7025 1.81845 12.7692 1.90794C12.8374 1.99601 12.89 2.06845 12.9269 2.12527H12.978V1.60539H13.4638V4.97186C13.4638 5.25311 13.3999 5.48181 13.2721 5.65794C13.1457 5.8355 12.9752 5.96547 12.7607 6.04786C12.5477 6.13166 12.3104 6.17357 12.0491 6.17357ZM12.032 4.37527C12.2337 4.37527 12.4042 4.32911 12.5434 4.23678C12.6826 4.14445 12.7884 4.01164 12.8609 3.83834C12.9333 3.66504 12.9695 3.45766 12.9695 3.21618C12.9695 2.98039 12.934 2.77229 12.863 2.59189C12.792 2.41149 12.6869 2.27016 12.5477 2.16789C12.4084 2.06561 12.2366 2.01448 12.032 2.01448C11.819 2.01448 11.6414 2.06845 11.4994 2.17641C11.3587 2.28436 11.2529 2.42925 11.1819 2.61107C11.1123 2.79289 11.0775 2.99459 11.0775 3.21618C11.0775 3.44345 11.113 3.64445 11.184 3.81916C11.2565 3.99246 11.363 4.12882 11.5036 4.22825C11.6457 4.32627 11.8218 4.37527 12.032 4.37527ZM15.7565 4.94629C15.4411 4.94629 15.1691 4.87669 14.9404 4.73749C14.7131 4.59686 14.5377 4.40084 14.4141 4.14942C14.292 3.89658 14.2309 3.60254 14.2309 3.26732C14.2309 2.93209 14.292 2.63664 14.4141 2.38095C14.5377 2.12385 14.7096 1.92357 14.9298 1.7801C15.1513 1.63522 15.4099 1.56277 15.7053 1.56277C15.8758 1.56277 16.0441 1.59118 16.2103 1.648C16.3765 1.70482 16.5278 1.79715 16.6641 1.92499C16.8005 2.05141 16.9092 2.21902 16.9901 2.42783C17.0711 2.63664 17.1116 2.89374 17.1116 3.19914V3.4122H14.5888V2.97754H16.6002C16.6002 2.79289 16.5633 2.62811 16.4894 2.48323C16.417 2.33834 16.3133 2.22399 16.1783 2.14019C16.0448 2.05638 15.8871 2.01448 15.7053 2.01448C15.505 2.01448 15.3317 2.06419 15.1854 2.16362C15.0405 2.26164 14.929 2.38948 14.8509 2.54715C14.7728 2.70482 14.7337 2.87385 14.7337 3.05425V3.34402C14.7337 3.59118 14.7763 3.8007 14.8616 3.97257C14.9482 4.14303 15.0682 4.273 15.2217 4.36249C15.3751 4.45056 15.5533 4.49459 15.7565 4.49459C15.8886 4.49459 16.0079 4.47612 16.1144 4.43919C16.2224 4.40084 16.3154 4.34402 16.3935 4.26874C16.4717 4.19203 16.532 4.09686 16.5746 3.98323L17.0604 4.11959C17.0093 4.28436 16.9234 4.42925 16.8026 4.55425C16.6819 4.67783 16.5327 4.77442 16.3552 4.84402C16.1776 4.9122 15.978 4.94629 15.7565 4.94629ZM22.6151 1.87811C22.5682 1.73465 22.5065 1.6061 22.4298 1.49246C22.3545 1.3774 22.2643 1.27939 22.1592 1.19843C22.0555 1.11746 21.9376 1.05567 21.8055 1.01306C21.6734 0.970442 21.5285 0.949135 21.3708 0.949135C21.1123 0.949135 20.8772 1.0159 20.6655 1.14942C20.4539 1.28294 20.2856 1.47968 20.1606 1.73962C20.0356 1.99956 19.9731 2.31845 19.9731 2.69629C19.9731 3.07414 20.0363 3.39303 20.1627 3.65297C20.2891 3.91291 20.4603 4.10965 20.6762 4.24317C20.8921 4.37669 21.135 4.44345 21.4049 4.44345C21.6549 4.44345 21.8751 4.39019 22.0654 4.28365C22.2572 4.1757 22.4063 4.02371 22.5129 3.82769C22.6208 3.63024 22.6748 3.398 22.6748 3.13095L22.8367 3.16504H21.5242V2.69629H23.1861V3.16504C23.1861 3.52442 23.1094 3.83692 22.956 4.10254C22.804 4.36817 22.5938 4.57414 22.3254 4.72044C22.0583 4.86533 21.7515 4.93777 21.4049 4.93777C21.0185 4.93777 20.679 4.84686 20.3864 4.66504C20.0952 4.48323 19.868 4.2247 19.7046 3.88948C19.5427 3.55425 19.4617 3.15652 19.4617 2.69629C19.4617 2.35112 19.5079 2.04075 19.6002 1.76519C19.694 1.4882 19.8261 1.2524 19.9965 1.0578C20.167 0.863198 20.3687 0.71405 20.6016 0.610357C20.8346 0.506664 21.091 0.454817 21.3708 0.454817C21.6009 0.454817 21.8154 0.489618 22.0143 0.559221C22.2146 0.627402 22.3928 0.724703 22.5491 0.851124C22.7067 0.976124 22.8381 1.12598 22.9432 1.3007C23.0484 1.47399 23.1208 1.66647 23.1606 1.87811H22.6151ZM25.3951 4.94629C25.0798 4.94629 24.8078 4.87669 24.5791 4.73749C24.3518 4.59686 24.1764 4.40084 24.0528 4.14942C23.9306 3.89658 23.8696 3.60254 23.8696 3.26732C23.8696 2.93209 23.9306 2.63664 24.0528 2.38095C24.1764 2.12385 24.3483 1.92357 24.5684 1.7801C24.79 1.63522 25.0485 1.56277 25.344 1.56277C25.5144 1.56277 25.6828 1.59118 25.849 1.648C26.0152 1.70482 26.1664 1.79715 26.3028 1.92499C26.4392 2.05141 26.5478 2.21902 26.6288 2.42783C26.7098 2.63664 26.7502 2.89374 26.7502 3.19914V3.4122H24.2275V2.97754H26.2389C26.2389 2.79289 26.2019 2.62811 26.1281 2.48323C26.0556 2.33834 25.9519 2.22399 25.817 2.14019C25.6835 2.05638 25.5258 2.01448 25.344 2.01448C25.1437 2.01448 24.9704 2.06419 24.8241 2.16362C24.6792 2.26164 24.5677 2.38948 24.4896 2.54715C24.4115 2.70482 24.3724 2.87385 24.3724 3.05425V3.34402C24.3724 3.59118 24.415 3.8007 24.5002 3.97257C24.5869 4.14303 24.7069 4.273 24.8603 4.36249C25.0137 4.45056 25.192 4.49459 25.3951 4.49459C25.5272 4.49459 25.6466 4.47612 25.7531 4.43919C25.861 4.40084 25.9541 4.34402 26.0322 4.26874C26.1103 4.19203 26.1707 4.09686 26.2133 3.98323L26.6991 4.11959C26.648 4.28436 26.562 4.42925 26.4413 4.55425C26.3206 4.67783 26.1714 4.77442 25.9939 4.84402C25.8163 4.9122 25.6167 4.94629 25.3951 4.94629ZM28.018 2.90936V4.87811H27.5152V1.60539H28.001V2.11675H28.0436C28.1203 1.95056 28.2367 1.81703 28.393 1.71618C28.5492 1.61391 28.751 1.56277 28.9981 1.56277C29.2197 1.56277 29.4136 1.60823 29.5798 1.69914C29.746 1.78862 29.8752 1.92499 29.9676 2.10823C30.0599 2.29004 30.1061 2.52016 30.1061 2.79857V4.87811H29.6032V2.83266C29.6032 2.57556 29.5365 2.37527 29.4029 2.23181C29.2694 2.08692 29.0862 2.01448 28.8532 2.01448C28.6927 2.01448 28.5492 2.04928 28.4228 2.11888C28.2978 2.18848 28.1991 2.29004 28.1267 2.42357C28.0542 2.55709 28.018 2.71902 28.018 2.90936ZM6.73435 8.60539C6.70878 8.38948 6.60509 8.22186 6.42327 8.10254C6.24146 7.98323 6.01844 7.92357 5.75424 7.92357C5.56106 7.92357 5.39202 7.95482 5.24714 8.01732C5.10367 8.07982 4.99146 8.16575 4.91049 8.27513C4.83094 8.3845 4.79117 8.50879 4.79117 8.648C4.79117 8.76448 4.81887 8.86462 4.87427 8.94843C4.93109 9.03081 5.00353 9.0997 5.0916 9.1551C5.17967 9.20908 5.27199 9.25382 5.36859 9.28933C5.46518 9.32343 5.55396 9.35112 5.63492 9.37243L6.0781 9.49175C6.19174 9.52158 6.31816 9.56277 6.45736 9.61533C6.59799 9.66789 6.73222 9.73962 6.86006 9.83053C6.98932 9.92002 7.09586 10.0351 7.17967 10.1757C7.26347 10.3163 7.30538 10.4889 7.30538 10.6935C7.30538 10.9292 7.24359 11.1423 7.12001 11.3327C6.99785 11.523 6.81887 11.6743 6.58307 11.7865C6.3487 11.8987 6.0639 11.9548 5.72867 11.9548C5.41617 11.9548 5.14557 11.9044 4.91688 11.8035C4.68961 11.7027 4.51063 11.5621 4.37995 11.3817C4.25069 11.2013 4.17753 10.9917 4.16049 10.7531H4.70594C4.72015 10.9179 4.77555 11.0542 4.87214 11.1622C4.97015 11.2687 5.09373 11.3483 5.24288 11.4008C5.39344 11.452 5.55538 11.4775 5.72867 11.4775C5.93038 11.4775 6.11148 11.4449 6.27199 11.3795C6.43251 11.3128 6.55964 11.2204 6.65339 11.1025C6.74714 10.9832 6.79401 10.844 6.79401 10.6849C6.79401 10.54 6.75353 10.4221 6.67256 10.3312C6.5916 10.2403 6.48506 10.1665 6.35296 10.1096C6.22086 10.0528 6.0781 10.0031 5.92469 9.9605L5.38776 9.80709C5.04685 9.70908 4.77697 9.56916 4.5781 9.38735C4.37924 9.20553 4.27981 8.9676 4.27981 8.67357C4.27981 8.42925 4.34586 8.21618 4.47796 8.03436C4.61148 7.85112 4.79046 7.70908 5.01489 7.60823C5.24074 7.50595 5.49288 7.45482 5.77128 7.45482C6.05253 7.45482 6.30253 7.50524 6.52128 7.6061C6.74003 7.70553 6.91333 7.84189 7.04117 8.01519C7.17043 8.18848 7.23861 8.38521 7.24572 8.60539H6.73435ZM9.43552 11.9463C9.14007 11.9463 8.88084 11.876 8.65783 11.7354C8.43623 11.5947 8.26294 11.398 8.13794 11.1452C8.01436 10.8923 7.95257 10.5969 7.95257 10.2588C7.95257 9.91789 8.01436 9.6203 8.13794 9.36604C8.26294 9.11178 8.43623 8.91433 8.65783 8.77371C8.88084 8.63308 9.14007 8.56277 9.43552 8.56277C9.73098 8.56277 9.9895 8.63308 10.2111 8.77371C10.4341 8.91433 10.6074 9.11178 10.731 9.36604C10.856 9.6203 10.9185 9.91789 10.9185 10.2588C10.9185 10.5969 10.856 10.8923 10.731 11.1452C10.6074 11.398 10.4341 11.5947 10.2111 11.7354C9.9895 11.876 9.73098 11.9463 9.43552 11.9463ZM9.43552 11.4946C9.65996 11.4946 9.84462 11.4371 9.9895 11.322C10.1344 11.2069 10.2416 11.0557 10.3112 10.8682C10.3808 10.6807 10.4156 10.4775 10.4156 10.2588C10.4156 10.04 10.3808 9.83621 10.3112 9.64729C10.2416 9.45837 10.1344 9.30567 9.9895 9.18919C9.84462 9.07271 9.65996 9.01448 9.43552 9.01448C9.21109 9.01448 9.02643 9.07271 8.88155 9.18919C8.73666 9.30567 8.62942 9.45837 8.55981 9.64729C8.49021 9.83621 8.45541 10.04 8.45541 10.2588C8.45541 10.4775 8.49021 10.6807 8.55981 10.8682C8.62942 11.0557 8.73666 11.2069 8.88155 11.322C9.02643 11.4371 9.21109 11.4946 9.43552 11.4946ZM12.1889 7.51448V11.8781H11.6861V7.51448H12.1889ZM15.1724 10.54V8.60539H15.6752V11.8781H15.1724V11.3241H15.1383C15.0616 11.4903 14.9423 11.6317 14.7803 11.7481C14.6184 11.8632 14.4139 11.9207 14.1667 11.9207C13.9622 11.9207 13.7803 11.876 13.6212 11.7865C13.4622 11.6956 13.3372 11.5592 13.2462 11.3774C13.1553 11.1942 13.1099 10.9633 13.1099 10.6849V8.60539H13.6127V10.6508C13.6127 10.8895 13.6795 11.0798 13.813 11.2219C13.948 11.3639 14.1198 11.4349 14.3286 11.4349C14.4536 11.4349 14.5808 11.403 14.71 11.3391C14.8407 11.2751 14.9501 11.1771 15.0382 11.045C15.1276 10.9129 15.1724 10.7446 15.1724 10.54ZM18.0195 8.60539V9.03152H16.3235V8.60539H18.0195ZM16.8178 7.82129H17.3206V10.9406C17.3206 11.0827 17.3412 11.1892 17.3824 11.2602C17.425 11.3298 17.479 11.3767 17.5444 11.4008C17.6111 11.4236 17.6814 11.4349 17.7553 11.4349C17.8107 11.4349 17.8562 11.4321 17.8917 11.4264C17.9272 11.4193 17.9556 11.4136 17.9769 11.4094L18.0792 11.8611C18.0451 11.8739 17.9975 11.8866 17.9364 11.8994C17.8753 11.9136 17.7979 11.9207 17.7042 11.9207C17.5621 11.9207 17.4229 11.8902 17.2866 11.8291C17.1516 11.768 17.0394 11.675 16.9499 11.55C16.8618 11.425 16.8178 11.2673 16.8178 11.077V7.82129ZM18.7759 11.8781V8.60539H19.2787V11.8781H18.7759ZM19.0316 8.05993C18.9336 8.05993 18.8491 8.02655 18.778 7.95979C18.7084 7.89303 18.6736 7.81277 18.6736 7.71902C18.6736 7.62527 18.7084 7.54502 18.778 7.47825C18.8491 7.41149 18.9336 7.37811 19.0316 7.37811C19.1296 7.37811 19.2134 7.41149 19.283 7.47825C19.354 7.54502 19.3895 7.62527 19.3895 7.71902C19.3895 7.81277 19.354 7.89303 19.283 7.95979C19.2134 8.02655 19.1296 8.05993 19.0316 8.05993ZM21.5293 11.9463C21.2338 11.9463 20.9746 11.876 20.7516 11.7354C20.53 11.5947 20.3567 11.398 20.2317 11.1452C20.1081 10.8923 20.0463 10.5969 20.0463 10.2588C20.0463 9.91789 20.1081 9.6203 20.2317 9.36604C20.3567 9.11178 20.53 8.91433 20.7516 8.77371C20.9746 8.63308 21.2338 8.56277 21.5293 8.56277C21.8247 8.56277 22.0833 8.63308 22.3048 8.77371C22.5279 8.91433 22.7011 9.11178 22.8247 9.36604C22.9497 9.6203 23.0122 9.91789 23.0122 10.2588C23.0122 10.5969 22.9497 10.8923 22.8247 11.1452C22.7011 11.398 22.5279 11.5947 22.3048 11.7354C22.0833 11.876 21.8247 11.9463 21.5293 11.9463ZM21.5293 11.4946C21.7537 11.4946 21.9384 11.4371 22.0833 11.322C22.2281 11.2069 22.3354 11.0557 22.405 10.8682C22.4746 10.6807 22.5094 10.4775 22.5094 10.2588C22.5094 10.04 22.4746 9.83621 22.405 9.64729C22.3354 9.45837 22.2281 9.30567 22.0833 9.18919C21.9384 9.07271 21.7537 9.01448 21.5293 9.01448C21.3048 9.01448 21.1202 9.07271 20.9753 9.18919C20.8304 9.30567 20.7232 9.45837 20.6536 9.64729C20.584 9.83621 20.5492 10.04 20.5492 10.2588C20.5492 10.4775 20.584 10.6807 20.6536 10.8682C20.7232 11.0557 20.8304 11.2069 20.9753 11.322C21.1202 11.4371 21.3048 11.4946 21.5293 11.4946ZM24.2826 9.90936V11.8781H23.7798V8.60539H24.2656V9.11675H24.3082C24.3849 8.95056 24.5014 8.81703 24.6576 8.71618C24.8139 8.61391 25.0156 8.56277 25.2628 8.56277C25.4844 8.56277 25.6782 8.60823 25.8444 8.69914C26.0106 8.78862 26.1399 8.92499 26.2322 9.10823C26.3246 9.29004 26.3707 9.52016 26.3707 9.79857V11.8781H25.8679V9.83266C25.8679 9.57556 25.8011 9.37527 25.6676 9.23181C25.5341 9.08692 25.3508 9.01448 25.1179 9.01448C24.9574 9.01448 24.8139 9.04928 24.6875 9.11888C24.5625 9.18848 24.4638 9.29004 24.3913 9.42357C24.3189 9.55709 24.2826 9.71902 24.2826 9.90936Z" fill="white"/>
</svg>
