<svg width="32" height="32" viewBox="0 0 32 32" fill="none" xmlns="http://www.w3.org/2000/svg">
<mask id="mask0_62_25166" style="mask-type:luminance" maskUnits="userSpaceOnUse" x="5" y="5" width="22" height="22">
<path d="M5.86719 5.86663H26.1339V26.1333H5.86719V5.86663Z" fill="white"/>
</mask>
<g mask="url(#mask0_62_25166)">
<path d="M18.4546 16.7519C18.4546 17.1891 18.809 17.5436 19.2463 17.5436C19.6835 17.5436 20.0379 17.1891 20.0379 16.7519C20.0379 16.3147 19.6835 15.9602 19.2463 15.9602C18.809 15.9602 18.4546 16.3147 18.4546 16.7519Z" fill="white"/>
<path d="M13.5057 16.7519C13.5057 17.1891 13.1513 17.5436 12.714 17.5436C12.2768 17.5436 11.9224 17.1891 11.9224 16.7519C11.9224 16.3147 12.2768 15.9602 12.714 15.9602C13.1513 15.9602 13.5057 16.3147 13.5057 16.7519Z" fill="white"/>
<path d="M13.98 23.7977C14.6661 23.7713 15.5501 23.3754 15.9196 22.6102H15.9987C16.4141 23.3708 17.2984 23.8041 17.9779 23.7977" stroke="white" stroke-width="1.5" stroke-miterlimit="10" stroke-linecap="round" stroke-linejoin="round"/>
<path d="M15.964 21.1571C15.8857 21.1936 14.8737 20.5482 14.1773 19.4261C13.8607 18.9159 14.2249 18.2561 14.8254 18.2561H17.0947C17.6983 18.2561 18.0643 18.9235 17.7391 19.432C17.0432 20.5204 16.0418 21.1208 15.964 21.1571Z" fill="white"/>
<path d="M15.9604 22.5311V19.404" stroke="white" stroke-width="1.5" stroke-miterlimit="10" stroke-linecap="round" stroke-linejoin="round"/>
<path d="M12.5953 10.6819C11.9154 10.022 10.9846 8.93707 10.4306 7.52905C10.1646 6.85285 10.0348 6.65858 9.36188 6.65858C8.81932 6.65858 8.17015 7.81148 8.41188 9.74572C8.53 10.6905 9.10756 11.9335 9.7973 12.8332C9.49089 13.1817 9.28272 13.6389 9.28272 14.1395C9.28272 14.7869 9.59368 15.3617 10.0744 15.7228C9.59368 16.0839 9.28272 16.6586 9.28272 17.3061C9.28272 17.9536 9.59368 18.5284 10.0744 18.8895C9.59368 19.2505 9.28272 19.8253 9.28272 20.4728C9.28272 21.043 9.52418 21.5564 9.90996 21.9176C9.52418 22.2788 9.28272 22.7922 9.28272 23.3624C9.28272 24.4554 10.1688 25.3416 11.2619 25.3416" stroke="white" stroke-width="1.5" stroke-miterlimit="10" stroke-linecap="round" stroke-linejoin="round"/>
<path d="M19.4043 10.6819C20.0841 10.022 21.0149 8.93707 21.569 7.52905C21.835 6.85285 21.9648 6.65858 22.6377 6.65858C23.1803 6.65858 23.8294 7.81148 23.5877 9.74572C23.4696 10.6905 22.892 11.9335 22.2023 12.8332C22.5087 13.1817 22.7169 13.6389 22.7169 14.1395C22.7169 14.7869 22.4059 15.3617 21.9252 15.7228C22.4059 16.0839 22.7169 16.6586 22.7169 17.3061C22.7169 17.9536 22.4059 18.5284 21.9252 18.8895C22.4059 19.2505 22.7169 19.8253 22.7169 20.4728C22.7169 21.0429 22.4754 21.5564 22.0897 21.9176C22.4754 22.2788 22.7169 22.7922 22.7169 23.3624C22.7169 24.4554 21.8308 25.3416 20.7377 25.3416" stroke="white" stroke-width="1.5" stroke-miterlimit="10" stroke-linecap="round" stroke-linejoin="round"/>
<path d="M19.7997 11.3687C19.2455 10.2603 18.1664 9.8249 17.395 9.8249C16.8506 9.8249 16.3575 10.0629 15.9997 10.4187C15.6419 10.0629 15.1489 9.8249 14.6044 9.8249C13.833 9.8249 12.7539 10.2603 12.1997 11.3687" stroke="white" stroke-width="1.5" stroke-miterlimit="10" stroke-linecap="round" stroke-linejoin="round"/>
</g>
</svg>
