<svg width="32" height="32" viewBox="0 0 32 32" fill="none" xmlns="http://www.w3.org/2000/svg">
<path opacity="0.7" fill-rule="evenodd" clip-rule="evenodd" d="M24.7251 24C23.3182 24 22.1375 23.0316 21.8133 21.725H4.7251C4.32469 21.725 4.0001 21.4004 4.0001 21C4.0001 20.5996 4.32469 20.275 4.7251 20.275L21.8133 20.275C22.1375 18.9684 23.3182 18 24.7251 18C26.382 18 27.7251 19.3431 27.7251 21C27.7251 22.6569 26.382 24 24.7251 24ZM24.7251 22.5532C23.8673 22.5532 23.1719 21.8578 23.1719 21C23.1719 20.1422 23.8673 19.4468 24.7251 19.4468C25.5829 19.4468 26.2783 20.1422 26.2783 21C26.2783 21.8578 25.5829 22.5532 24.7251 22.5532Z" fill="white"/>
<path d="M8 25L4 21L8 17" stroke="white" stroke-width="1.45" stroke-miterlimit="10" stroke-linecap="round" stroke-linejoin="round"/>
<path opacity="0.7" fill-rule="evenodd" clip-rule="evenodd" d="M7 13C8.40687 13 9.58755 12.0316 9.91181 10.725H27C27.4004 10.725 27.725 10.4004 27.725 10C27.725 9.59959 27.4004 9.275 27 9.275L9.91181 9.275C9.58755 7.96841 8.40687 7 7 7C5.34315 7 4 8.34315 4 10C4 11.6569 5.34315 13 7 13ZM7 11.5532C7.85782 11.5532 8.55322 10.8578 8.55322 10C8.55322 9.14218 7.85782 8.44678 7 8.44678C6.14218 8.44678 5.44678 9.14218 5.44678 10C5.44678 10.8578 6.14218 11.5532 7 11.5532Z" fill="white"/>
<path d="M23.8989 14L27.8989 10L23.8989 6" stroke="white" stroke-width="1.45" stroke-miterlimit="10" stroke-linecap="round" stroke-linejoin="round"/>
</svg>
