<svg width="33" height="32" viewBox="0 0 33 32" fill="none" xmlns="http://www.w3.org/2000/svg">
<path opacity="0.7" d="M7.54738 5.0748L7.54738 21.7491M7.54738 21.7491L4.6475 18.8493M7.54738 21.7491L10.4473 18.8493" stroke="white" stroke-width="1.41772" stroke-miterlimit="10" stroke-linecap="round" stroke-linejoin="round"/>
<path opacity="0.7" d="M24.9463 5.0748L24.9463 21.7491M24.9463 21.7491L22.0464 18.8493M24.9463 21.7491L27.8462 18.8493" stroke="white" stroke-width="1.41772" stroke-miterlimit="10" stroke-linecap="round" stroke-linejoin="round"/>
<path d="M16.2469 17.3994L16.2469 27.5489M16.2469 27.5489L20.5967 23.1991M16.2469 27.5489L11.897 23.1991" stroke="white" stroke-width="1.41772" stroke-miterlimit="10" stroke-linecap="round" stroke-linejoin="round"/>
<path d="M18.1977 7.10023C18.1977 5.40596 14.2489 5.21926 14.2489 7.42627C14.2489 9.63327 18.4211 8.2316 18.4211 10.6838C18.4211 13.1361 14.0713 12.5899 14.0713 10.6838" stroke="white" stroke-width="1.41772" stroke-miterlimit="10" stroke-linecap="round"/>
<path d="M16.2461 13.0495L16.2461 13.7745" stroke="white" stroke-width="1.41772" stroke-miterlimit="10" stroke-linecap="round"/>
<path d="M16.2461 4.34985L16.2461 5.07483" stroke="white" stroke-width="1.41772" stroke-miterlimit="10" stroke-linecap="round"/>
</svg>
