<svg width="33" height="32" viewBox="0 0 33 32" fill="none" xmlns="http://www.w3.org/2000/svg">
<g opacity="0.7">
<path d="M21.1119 17.1567C21.1119 14.9495 15.9678 14.7063 15.9678 17.5814C15.9678 20.4566 21.403 18.6306 21.403 21.8252C21.403 25.0198 15.7363 24.3082 15.7363 21.8252" stroke="#F9FAFB" stroke-width="1.5" stroke-miterlimit="10" stroke-linecap="round"/>
<path d="M18.5708 14.4L18.5708 15.4625" stroke="#F9FAFB" stroke-width="1.5" stroke-miterlimit="10" stroke-linecap="round"/>
<path d="M18.5708 23.9637L18.5708 25.0262" stroke="#F9FAFB" stroke-width="1.5" stroke-miterlimit="10" stroke-linecap="round"/>
</g>
<path opacity="0.7" d="M10.2013 21L10.9397 20.8685L10.8295 20.25H10.2013V21ZM17.0693 11.1319H16.3193V12.0273L17.2008 11.8703L17.0693 11.1319ZM5.81934 7C5.81934 6.30964 6.37898 5.75 7.06934 5.75V4.25C5.55055 4.25 4.31934 5.48122 4.31934 7H5.81934ZM5.81934 19V7H4.31934V19H5.81934ZM7.06934 20.25C6.37898 20.25 5.81934 19.6904 5.81934 19H4.31934C4.31934 20.5188 5.55055 21.75 7.06934 21.75V20.25ZM10.2013 20.25H7.06934V21.75H10.2013V20.25ZM18.5693 27.25C14.7566 27.25 11.5855 24.496 10.9397 20.8685L9.46288 21.1315C10.2339 25.4621 14.0169 28.75 18.5693 28.75V27.25ZM26.3193 19.5C26.3193 23.7802 22.8495 27.25 18.5693 27.25V28.75C23.678 28.75 27.8193 24.6086 27.8193 19.5H26.3193ZM18.5693 11.75C22.8495 11.75 26.3193 15.2198 26.3193 19.5H27.8193C27.8193 14.3914 23.678 10.25 18.5693 10.25V11.75ZM17.2008 11.8703C17.6445 11.7913 18.1018 11.75 18.5693 11.75V10.25C18.0132 10.25 17.468 10.2992 16.9379 10.3935L17.2008 11.8703ZM16.3193 7V11.1319H17.8193V7H16.3193ZM15.0693 5.75C15.7597 5.75 16.3193 6.30964 16.3193 7H17.8193C17.8193 5.48122 16.5881 4.25 15.0693 4.25V5.75ZM7.06934 5.75H15.0693V4.25H7.06934V5.75Z" fill="#F9FAFB"/>
<path fill-rule="evenodd" clip-rule="evenodd" d="M7.56934 8C7.29319 8 7.06934 7.77614 7.06934 7.5C7.06934 7.22386 7.29319 7 7.56934 7H14.5693C14.8455 7 15.0693 7.22386 15.0693 7.5C15.0693 7.77614 14.8455 8 14.5693 8L7.56934 8ZM8.56934 11.25C8.56934 11.6642 8.23355 12 7.81934 12C7.40512 12 7.06934 11.6642 7.06934 11.25C7.06934 10.8358 7.40512 10.5 7.81934 10.5C8.23355 10.5 8.56934 10.8358 8.56934 11.25ZM11.5693 11.25C11.5693 11.6642 11.2335 12 10.8193 12C10.4051 12 10.0693 11.6642 10.0693 11.25C10.0693 10.8358 10.4051 10.5 10.8193 10.5C11.2335 10.5 11.5693 10.8358 11.5693 11.25ZM14.4288 11.6872C14.5172 11.5641 14.5693 11.4131 14.5693 11.25C14.5693 10.8358 14.2335 10.5 13.8193 10.5C13.4051 10.5 13.0693 10.8358 13.0693 11.25C13.0693 11.6642 13.4051 12 13.8193 12C13.8213 12 13.8232 12 13.8252 12C14.021 11.887 14.2224 11.7825 14.4288 11.6872ZM10.1686 17.2769C10.1375 17.4664 10.1135 17.6583 10.0969 17.8522C10.0789 17.7879 10.0693 17.7201 10.0693 17.65C10.0693 17.5142 10.1054 17.3868 10.1686 17.2769ZM11.4879 14.1098C11.24 14.4525 11.0204 14.817 10.8325 15.1999C10.8281 15.2 10.8237 15.2 10.8193 15.2C10.4051 15.2 10.0693 14.8642 10.0693 14.45C10.0693 14.0358 10.4051 13.7 10.8193 13.7C11.1111 13.7 11.3639 13.8666 11.4879 14.1098ZM8.56934 14.45C8.56934 14.8642 8.23355 15.2 7.81934 15.2C7.40512 15.2 7.06934 14.8642 7.06934 14.45C7.06934 14.0358 7.40512 13.7 7.81934 13.7C8.23355 13.7 8.56934 14.0358 8.56934 14.45ZM7.81934 18.4C8.23355 18.4 8.56934 18.0642 8.56934 17.65C8.56934 17.2358 8.23355 16.9 7.81934 16.9C7.40512 16.9 7.06934 17.2358 7.06934 17.65C7.06934 18.0642 7.40512 18.4 7.81934 18.4Z" fill="#D9D9D9"/>
<rect x="10.0693" y="11" width="17" height="17" rx="8.5" stroke="white" stroke-width="1.5" stroke-linecap="round" stroke-linejoin="round"/>
</svg>
