<svg width="33" height="32" viewBox="0 0 33 32" fill="none" xmlns="http://www.w3.org/2000/svg">
<path fill-rule="evenodd" clip-rule="evenodd" d="M11.4466 15.6187C11.4466 12.8838 13.6638 10.6667 16.3987 10.6667C19.1337 10.6667 21.3508 12.8838 21.3508 15.6187C21.3508 18.3537 19.1337 20.5708 16.3987 20.5708C13.6638 20.5708 11.4466 18.3537 11.4466 15.6187ZM16.3987 9.24445C12.8783 9.24445 10.0244 12.0983 10.0244 15.6187C10.0244 19.1392 12.8783 21.9931 16.3987 21.9931C17.698 21.9931 18.9065 21.6043 19.9142 20.9368L26.2457 26.4769C26.5413 26.7355 26.9905 26.7055 27.2492 26.41C27.5078 26.1144 27.4778 25.6651 27.1823 25.4065L21.0172 20.0121C22.1052 18.8687 22.773 17.3217 22.773 15.6187C22.773 12.0983 19.9191 9.24445 16.3987 9.24445Z" fill="white"/>
<g opacity="0.7">
<mask id="mask0_50_4291" style="mask-type:alpha" maskUnits="userSpaceOnUse" x="3" y="2" width="27" height="28">
<path fill-rule="evenodd" clip-rule="evenodd" d="M29.9351 2.84442H3.62402V29.1555H29.9351V2.84442ZM16.3989 22.7041C17.6471 22.7041 18.8199 22.3814 19.8385 21.8148L25.7781 27.0119C26.3692 27.5292 27.2677 27.4693 27.785 26.8782C28.3022 26.287 28.2423 25.3885 27.6512 24.8713L22.0149 19.9395C22.9363 18.7436 23.4843 17.2452 23.4843 15.6187C23.4843 11.7056 20.312 8.53332 16.3989 8.53332C12.4857 8.53332 9.31346 11.7056 9.31346 15.6187C9.31346 19.5319 12.4857 22.7041 16.3989 22.7041Z" fill="white"/>
</mask>
<g mask="url(#mask0_50_4291)">
<path fill-rule="evenodd" clip-rule="evenodd" d="M6.46843 4.97777C6.46843 4.58504 6.15005 4.26666 5.75732 4.26666C5.36458 4.26666 5.04621 4.58504 5.04621 4.97777L5.04621 8.53333C5.04621 8.92607 5.36458 9.24444 5.75732 9.24444C6.15005 9.24444 6.46843 8.92607 6.46843 8.53333L6.46843 4.97777ZM23.5355 12.8C23.1428 12.8 22.8244 13.1184 22.8244 13.5111V17.0667C22.8244 17.4594 23.1428 17.7778 23.5355 17.7778C23.9283 17.7778 24.2466 17.4594 24.2466 17.0667V13.5111C24.2466 13.1184 23.9283 12.8 23.5355 12.8ZM27.0911 12.8C26.1092 12.8 25.3133 13.5959 25.3133 14.5778V16C25.3133 16.9819 26.1092 17.7778 27.0911 17.7778C28.0729 17.7778 28.8688 16.9818 28.8688 16V14.5778C28.8688 13.5959 28.0729 12.8 27.0911 12.8ZM26.7355 14.5778C26.7355 14.3814 26.8947 14.2222 27.0911 14.2222C27.2874 14.2222 27.4466 14.3814 27.4466 14.5778V16C27.4466 16.1964 27.2874 16.3556 27.0911 16.3556C26.8947 16.3556 26.7355 16.1964 26.7355 16V14.5778ZM18.2022 14.5778C18.2022 13.5959 18.9981 12.8 19.98 12.8C20.9618 12.8 21.7577 13.5959 21.7577 14.5778V16C21.7577 16.9818 20.9618 17.7778 19.98 17.7778C18.9981 17.7778 18.2022 16.9819 18.2022 16V14.5778ZM19.98 14.2222C19.7836 14.2222 19.6244 14.3814 19.6244 14.5778V16C19.6244 16.1964 19.7836 16.3556 19.98 16.3556C20.1763 16.3556 20.3355 16.1964 20.3355 16V14.5778C20.3355 14.3814 20.1763 14.2222 19.98 14.2222ZM16.4244 12.8C16.0317 12.8 15.7133 13.1184 15.7133 13.5111V17.0667C15.7133 17.4594 16.0317 17.7778 16.4244 17.7778C16.8171 17.7778 17.1355 17.4594 17.1355 17.0667V13.5111C17.1355 13.1184 16.8171 12.8 16.4244 12.8ZM11.0911 14.5778C11.0911 13.5959 11.887 12.8 12.8689 12.8C13.8507 12.8 14.6467 13.5959 14.6467 14.5778V16C14.6467 16.9818 13.8507 17.7778 12.8689 17.7778C11.887 17.7778 11.0911 16.9819 11.0911 16V14.5778ZM12.8689 14.2222C12.6725 14.2222 12.5133 14.3814 12.5133 14.5778V16C12.5133 16.1964 12.6725 16.3556 12.8689 16.3556C13.0652 16.3556 13.2244 16.1964 13.2244 16V14.5778C13.2244 14.3814 13.0652 14.2222 12.8689 14.2222ZM9.31329 12.8C8.92056 12.8 8.60218 13.1184 8.60218 13.5111V17.0667C8.60218 17.4594 8.92056 17.7778 9.31329 17.7778C9.70603 17.7778 10.0244 17.4594 10.0244 17.0667V13.5111C10.0244 13.1184 9.70603 12.8 9.31329 12.8ZM3.97998 14.5778C3.97998 13.5959 4.77592 12.8 5.75776 12.8C6.7396 12.8 7.53554 13.5959 7.53554 14.5778V16C7.53554 16.9818 6.7396 17.7778 5.75776 17.7778C4.77592 17.7778 3.97998 16.9819 3.97998 16V14.5778ZM5.75776 14.2222C5.56139 14.2222 5.4022 14.3814 5.4022 14.5778V16C5.4022 16.1964 5.56139 16.3556 5.75776 16.3556C5.95413 16.3556 6.11331 16.1964 6.11331 16V14.5778C6.11331 14.3814 5.95413 14.2222 5.75776 14.2222ZM5.75732 21.3333C6.15005 21.3333 6.46843 21.6517 6.46843 22.0444L6.46843 25.6C6.46843 25.9927 6.15005 26.3111 5.75732 26.3111C5.36458 26.3111 5.04621 25.9927 5.04621 25.6L5.04621 22.0444C5.04621 21.6517 5.36458 21.3333 5.75732 21.3333ZM11.0907 23.1111C11.0907 22.1293 10.2947 21.3333 9.31288 21.3333C8.33104 21.3333 7.5351 22.1293 7.5351 23.1111V24.5333C7.5351 25.5152 8.33104 26.3111 9.31288 26.3111C10.2947 26.3111 11.0907 25.5152 11.0907 24.5333L11.0907 23.1111ZM9.31288 22.7556C9.50925 22.7556 9.66844 22.9147 9.66844 23.1111V24.5333C9.66844 24.7297 9.50925 24.8889 9.31288 24.8889C9.11651 24.8889 8.95732 24.7297 8.95732 24.5333V23.1111C8.95732 22.9147 9.11651 22.7556 9.31288 22.7556ZM12.8684 21.3333C13.2612 21.3333 13.5795 21.6517 13.5795 22.0444V25.6C13.5795 25.9927 13.2612 26.3111 12.8684 26.3111C12.4757 26.3111 12.1573 25.9927 12.1573 25.6V22.0444C12.1573 21.6517 12.4757 21.3333 12.8684 21.3333ZM18.2018 23.1111C18.2018 22.1293 17.4058 21.3333 16.424 21.3333C15.4422 21.3333 14.6462 22.1293 14.6462 23.1111V24.5333C14.6462 25.5152 15.4421 26.3111 16.424 26.3111C17.4058 26.3111 18.2018 25.5152 18.2018 24.5333V23.1111ZM16.424 22.7556C16.6204 22.7556 16.7795 22.9147 16.7795 23.1111V24.5333C16.7795 24.7297 16.6204 24.8889 16.424 24.8889C16.2276 24.8889 16.0684 24.7297 16.0684 24.5333V23.1111C16.0684 22.9147 16.2276 22.7556 16.424 22.7556ZM19.9795 21.3333C20.3723 21.3333 20.6907 21.6517 20.6907 22.0444V25.6C20.6907 25.9927 20.3723 26.3111 19.9795 26.3111C19.5868 26.3111 19.2684 25.9927 19.2684 25.6V22.0444C19.2684 21.6517 19.5868 21.3333 19.9795 21.3333ZM25.3129 23.1111C25.3129 22.1293 24.5169 21.3333 23.5351 21.3333C22.5533 21.3333 21.7573 22.1293 21.7573 23.1111V24.5333C21.7573 25.5152 22.5533 26.3111 23.5351 26.3111C24.5169 26.3111 25.3129 25.5152 25.3129 24.5333V23.1111ZM23.5351 22.7556C23.7315 22.7556 23.8907 22.9147 23.8907 23.1111V24.5333C23.8907 24.7297 23.7315 24.8889 23.5351 24.8889C23.3387 24.8889 23.1795 24.7297 23.1795 24.5333V23.1111C23.1795 22.9147 23.3387 22.7556 23.5351 22.7556ZM27.0907 21.3333C27.4834 21.3333 27.8018 21.6517 27.8018 22.0444V25.6C27.8018 25.9927 27.4834 26.3111 27.0907 26.3111C26.6979 26.3111 26.3795 25.9927 26.3795 25.6V22.0444C26.3795 21.6517 26.6979 21.3333 27.0907 21.3333ZM9.31288 4.26666C10.2947 4.26666 11.0907 5.0626 11.0907 6.04444L11.0907 7.46666C11.0907 8.4485 10.2947 9.24444 9.31288 9.24444C8.33104 9.24444 7.5351 8.4485 7.5351 7.46666V6.04444C7.5351 5.0626 8.33104 4.26666 9.31288 4.26666ZM9.66844 6.04444C9.66844 5.84807 9.50925 5.68889 9.31288 5.68889C9.11651 5.68889 8.95732 5.84807 8.95732 6.04444V7.46666C8.95732 7.66303 9.11651 7.82222 9.31288 7.82222C9.50925 7.82222 9.66844 7.66303 9.66844 7.46666V6.04444ZM13.5795 4.97777C13.5795 4.58504 13.2612 4.26666 12.8684 4.26666C12.4757 4.26666 12.1573 4.58504 12.1573 4.97777V8.53333C12.1573 8.92607 12.4757 9.24444 12.8684 9.24444C13.2612 9.24444 13.5795 8.92607 13.5795 8.53333V4.97777ZM16.424 4.26666C17.4058 4.26666 18.2018 5.0626 18.2018 6.04444V7.46666C18.2018 8.4485 17.4058 9.24444 16.424 9.24444C15.4421 9.24444 14.6462 8.4485 14.6462 7.46666V6.04444C14.6462 5.0626 15.4422 4.26666 16.424 4.26666ZM16.7795 6.04444C16.7795 5.84807 16.6204 5.68889 16.424 5.68889C16.2276 5.68889 16.0684 5.84807 16.0684 6.04444V7.46666C16.0684 7.66303 16.2276 7.82222 16.424 7.82222C16.6204 7.82222 16.7795 7.66303 16.7795 7.46666V6.04444ZM20.6907 4.97777C20.6907 4.58504 20.3723 4.26666 19.9795 4.26666C19.5868 4.26666 19.2684 4.58504 19.2684 4.97777V8.53333C19.2684 8.92607 19.5868 9.24444 19.9795 9.24444C20.3723 9.24444 20.6907 8.92607 20.6907 8.53333V4.97777ZM23.5351 4.26666C24.5169 4.26666 25.3129 5.0626 25.3129 6.04444V7.46666C25.3129 8.4485 24.5169 9.24444 23.5351 9.24444C22.5533 9.24444 21.7573 8.4485 21.7573 7.46666V6.04444C21.7573 5.0626 22.5533 4.26666 23.5351 4.26666ZM23.8907 6.04444C23.8907 5.84807 23.7315 5.68889 23.5351 5.68889C23.3387 5.68889 23.1795 5.84807 23.1795 6.04444V7.46666C23.1795 7.66303 23.3387 7.82222 23.5351 7.82222C23.7315 7.82222 23.8907 7.66303 23.8907 7.46666V6.04444ZM27.8018 4.97777C27.8018 4.58504 27.4834 4.26666 27.0907 4.26666C26.6979 4.26666 26.3795 4.58504 26.3795 4.97777V8.53333C26.3795 8.92607 26.6979 9.24444 27.0907 9.24444C27.4834 9.24444 27.8018 8.92607 27.8018 8.53333V4.97777Z" fill="white"/>
</g>
</g>
<line x1="14.2902" y1="13.5111" x2="14.2902" y2="17.0667" stroke="white" stroke-width="1.42222" stroke-miterlimit="10" stroke-linecap="round" stroke-linejoin="round"/>
<rect x="18.5566" y="13.5111" width="3.55556" height="2.13333" rx="1.06667" transform="rotate(90 18.5566 13.5111)" stroke="white" stroke-width="1.42222" stroke-miterlimit="10" stroke-linecap="round" stroke-linejoin="round"/>
</svg>
