<svg width="32" height="32" viewBox="0 0 32 32" fill="none" xmlns="http://www.w3.org/2000/svg">
<path d="M19.8755 12.5542V17.7208L23.7935 15.1375L19.8755 12.5542Z" stroke="white" stroke-opacity="0.7" stroke-width="1.5" stroke-miterlimit="10" stroke-linejoin="round"/>
<mask id="mask0_62_25185" style="mask-type:luminance" maskUnits="userSpaceOnUse" x="4" y="3" width="24" height="23">
<path d="M4.97705 3.55565H27.0215V25.6001H4.97705V3.55565Z" fill="white"/>
</mask>
<g mask="url(#mask0_62_25185)">
<path d="M15.9996 8.67924L15.3488 8.24541C13.2465 6.84382 10.7333 6.0959 8.20654 6.0959V20.3042C10.7333 20.3042 13.2465 21.0522 15.3488 22.4537L15.9996 22.8876" stroke="white" stroke-width="1.5" stroke-miterlimit="10" stroke-linejoin="round"/>
<path d="M15.9994 22.8876V8.67924C19.3917 7.83118 22.9836 7.83118 26.3758 8.67924V22.8876C22.9836 22.0395 19.3917 22.0395 15.9994 22.8876ZM15.9994 22.8876C12.6072 22.0395 9.01531 22.0395 5.62305 22.8876V8.67924C6.47593 8.46603 7.33872 8.30642 8.20638 8.20042" stroke="white" stroke-width="1.5" stroke-miterlimit="10" stroke-linejoin="round"/>
</g>
</svg>
