<svg width="33" height="32" viewBox="0 0 33 32" fill="none" xmlns="http://www.w3.org/2000/svg">
<path d="M6.49023 24.2682H11.3836" stroke="white" stroke-width="1.5" stroke-miterlimit="10" stroke-linecap="round" stroke-linejoin="round"/>
<path d="M18.1333 24.2682H26.4015" stroke="white" stroke-opacity="0.7" stroke-width="1.5" stroke-miterlimit="10" stroke-linecap="round" stroke-linejoin="round"/>
<path d="M13.0702 25.9556C14.0021 25.9556 14.7576 25.2001 14.7576 24.2682C14.7576 23.3363 14.0021 22.5808 13.0702 22.5808C12.1383 22.5808 11.3828 23.3363 11.3828 24.2682C11.3828 25.2001 12.1383 25.9556 13.0702 25.9556Z" stroke="white" stroke-width="1.5" stroke-miterlimit="10" stroke-linecap="round" stroke-linejoin="round"/>
<path d="M24.8826 9.23841V16.1687C24.8826 18.0326 23.3717 19.5435 21.5078 19.5435H11.3836C9.51971 19.5435 8.00879 18.0326 8.00879 16.1687V9.4192C8.00879 7.55536 9.51971 6.04443 11.3836 6.04443H21.5078C23.3716 6.04443 24.8826 7.55515 24.8826 9.4192" stroke="white" stroke-width="1.5" stroke-miterlimit="10" stroke-linecap="round" stroke-linejoin="round"/>
<path d="M15.5113 15.9915C15.2845 16.1049 15.0286 16.1687 14.7577 16.1687C13.8258 16.1687 13.0703 15.4132 13.0703 14.4813V11.1066C13.0703 10.1747 13.8258 9.41919 14.7577 9.41919C15.0286 9.41919 15.2845 9.48301 15.5113 9.59641L18.8861 11.2838C19.4397 11.5606 19.8198 12.1329 19.8198 12.794C19.8198 13.455 19.4397 14.0273 18.8861 14.3041L15.5113 15.9915Z" stroke="white" stroke-opacity="0.7" stroke-width="1.5" stroke-miterlimit="10" stroke-linecap="round" stroke-linejoin="round"/>
</svg>
