<svg width="64" height="64" fill="none" xmlns="http://www.w3.org/2000/svg"><g clip-path="url(#a)"><path d="M5 19a1 1 0 0 1 1-1h26v36H6a1 1 0 0 1-1-1V19Z" fill="url(#b)"/><path d="M32 54h26a1 1 0 0 0 1-1V19a1 1 0 0 0-1-1H32v36Z" fill="url(#c)"/><path d="M2 58a2 2 0 0 1 2-2h56a2 2 0 1 1 0 4H4a2 2 0 0 1-2-2Z" fill="#111010"/><g opacity=".4" filter="url(#d)"><path fill-rule="evenodd" clip-rule="evenodd" d="M39.5 26H22a7 7 0 1 1 1.052-13.921A8.001 8.001 0 0 1 38.005 9.13 8.5 8.5 0 1 1 40 25.985V26h-.5Z" fill="#133440"/></g><path fill-rule="evenodd" clip-rule="evenodd" d="M23.5 35.5V25h3v10.5A5.5 5.5 0 0 1 21 41h-4v-3h4a2.5 2.5 0 0 0 2.5-2.5Zm7 8V25h3v18.5h-3Zm10-18.5v6a2.5 2.5 0 0 0 2.5 2.5h4v3h-4a5.5 5.5 0 0 1-5.5-5.5v-6h3Z" fill="#111010"/><path d="M49 34.5a2.5 2.5 0 1 1-5 0 2.5 2.5 0 0 1 5 0Zm-30 5a2.5 2.5 0 1 1-5 0 2.5 2.5 0 0 1 5 0Zm15.5 5a2.5 2.5 0 1 1-5 0 2.5 2.5 0 0 1 5 0Z" fill="#E1FFFC"/><path fill-rule="evenodd" clip-rule="evenodd" d="M20 24.984a7.5 7.5 0 1 1 2.039-14.826 9.001 9.001 0 0 1 17.117-2.969A9 9 0 1 1 41 25H20v-.015Z" fill="url(#e)"/></g><defs><linearGradient id="b" x1="18.5" y1="18" x2="18.5" y2="111" gradientUnits="userSpaceOnUse"><stop stop-color="#FBDCDD"/><stop offset="1" stop-color="#EF9193"/></linearGradient><linearGradient id="c" x1="43.172" y1="6.75" x2="16.161" y2="88.247" gradientUnits="userSpaceOnUse"><stop stop-color="#E67174"/><stop offset="1" stop-color="#F3C1C2"/></linearGradient><linearGradient id="e" x1="30.5" y1="-19" x2="30.5" y2="27" gradientUnits="userSpaceOnUse"><stop stop-color="#AFC1FF"/><stop offset="1" stop-color="#5159F6"/></linearGradient><clipPath id="a"><path fill="#fff" d="M0 0h64v64H0z"/></clipPath><filter id="d" x="5.9" y="-4.1" width="51.2" height="39.2" filterUnits="userSpaceOnUse" color-interpolation-filters="sRGB"><feFlood flood-opacity="0" result="BackgroundImageFix"/><feBlend in="SourceGraphic" in2="BackgroundImageFix" result="shape"/><feGaussianBlur stdDeviation="4.55" result="effect1_foregroundBlur_3934_25692"/></filter></defs></svg>
